# MagicaVoxel @ Ephtracy

# material
mtllib table_de_chevet.mtl
usemtl palette

# normals
vn -1 0 0
vn 1 0 0
vn 0 0 1
vn 0 0 -1
vn 0 -1 0
vn 0 1 0

# texcoords
vt 0.0332031 0.5
vt 0.0488281 0.5
vt 0.896484 0.5
vt 0.900391 0.5

# verts
v -42 83 42
v -42 83 -42
v -42 88 42
v -42 88 -42
v -37 0 37
v -37 0 32
v -37 0 -32
v -37 0 -37
v -37 11 32
v -37 11 -32
v -37 16 32
v -37 16 -32
v -37 78 32
v -37 78 -32
v -37 83 37
v -37 83 -37
v -36 16 32
v -36 16 -32
v -36 17 31
v -36 17 -31
v -36 46 31
v -36 46 -31
v -36 47 31
v -36 47 -31
v -36 77 31
v -36 77 -31
v -36 78 32
v -36 78 -32
v -34 17 31
v -34 17 -31
v -34 46 31
v -34 46 -31
v -34 47 31
v -34 47 -31
v -34 77 31
v -34 77 -31
v -3 16 36
v -3 16 33
v -3 16 -33
v -3 16 -36
v -3 78 36
v -3 78 33
v -3 78 -33
v -3 78 -36
v 32 0 37
v 32 0 32
v 32 0 -32
v 32 0 -37
v 32 11 37
v 32 11 32
v 32 11 -32
v 32 11 -37
v 32 14 32
v 32 14 -32
v 32 15 32
v 32 15 -32
v 32 16 37
v 32 16 33
v 32 16 32
v 32 16 -32
v 32 16 -33
v 32 16 -37
v 32 78 37
v 32 78 33
v 32 78 32
v 32 78 -32
v 32 78 -33
v 32 78 -37
v 32 87 32
v 32 87 -32
v 39 22 4
v 39 22 1
v 39 22 -0
v 39 22 -3
v 39 23 3
v 39 23 1
v 39 23 -0
v 39 23 -2
v 39 28 3
v 39 28 1
v 39 28 -0
v 39 28 -2
v 39 29 4
v 39 29 1
v 39 29 -0
v 39 29 -3
v 39 51 4
v 39 51 1
v 39 51 -0
v 39 51 -3
v 39 52 3
v 39 52 1
v 39 52 -0
v 39 52 -2
v 39 57 3
v 39 57 1
v 39 57 -0
v 39 57 -2
v 39 58 4
v 39 58 1
v 39 58 -0
v 39 58 -3
v -32 0 37
v -32 0 32
v -32 0 -32
v -32 0 -37
v -32 11 37
v -32 11 32
v -32 11 -32
v -32 11 -37
v -32 14 32
v -32 14 -32
v -32 15 32
v -32 15 -32
v -32 16 37
v -32 16 33
v -32 16 32
v -32 16 -32
v -32 16 -33
v -32 16 -37
v -32 78 37
v -32 78 33
v -32 78 32
v -32 78 -32
v -32 78 -33
v -32 78 -37
v -32 87 32
v -32 87 -32
v 3 16 36
v 3 16 33
v 3 16 -33
v 3 16 -36
v 3 78 36
v 3 78 33
v 3 78 -33
v 3 78 -36
v 36 16 32
v 36 16 -32
v 36 17 31
v 36 17 -31
v 36 46 31
v 36 46 -31
v 36 47 31
v 36 47 -31
v 36 77 31
v 36 77 -31
v 36 78 32
v 36 78 -32
v 37 0 37
v 37 0 32
v 37 0 -32
v 37 0 -37
v 37 11 32
v 37 11 -32
v 37 16 32
v 37 16 -32
v 37 17 31
v 37 17 -31
v 37 19 29
v 37 19 -29
v 37 45 29
v 37 45 -29
v 37 46 31
v 37 46 -31
v 37 47 31
v 37 47 -31
v 37 48 29
v 37 48 -29
v 37 75 29
v 37 75 -29
v 37 77 31
v 37 77 -31
v 37 78 32
v 37 78 -32
v 37 83 37
v 37 83 -37
v 38 19 29
v 38 19 -29
v 38 22 1
v 38 22 -0
v 38 29 1
v 38 29 -0
v 38 45 29
v 38 45 -29
v 38 48 29
v 38 48 -29
v 38 51 1
v 38 51 -0
v 38 58 1
v 38 58 -0
v 38 75 29
v 38 75 -29
v 40 22 4
v 40 22 -3
v 40 23 3
v 40 23 -2
v 40 25 1
v 40 25 -0
v 40 26 1
v 40 26 -0
v 40 28 3
v 40 28 -2
v 40 29 4
v 40 29 -3
v 40 51 4
v 40 51 -3
v 40 52 3
v 40 52 -2
v 40 54 1
v 40 54 -0
v 40 55 1
v 40 55 -0
v 40 57 3
v 40 57 -2
v 40 58 4
v 40 58 -3
v 41 23 3
v 41 23 -2
v 41 25 1
v 41 25 -0
v 41 26 1
v 41 26 -0
v 41 28 3
v 41 28 -2
v 41 52 3
v 41 52 -2
v 41 54 1
v 41 54 -0
v 41 55 1
v 41 55 -0
v 41 57 3
v 41 57 -2
v 42 83 42
v 42 83 -42
v 42 88 42
v 42 88 -42
v -42 83 42
v -42 88 42
v 42 83 42
v 42 88 42
v -37 0 37
v -37 83 37
v -32 0 37
v -32 11 37
v -32 16 37
v -32 78 37
v 32 0 37
v 32 11 37
v 32 16 37
v 32 78 37
v 37 0 37
v 37 83 37
v -3 16 36
v -3 78 36
v 3 16 36
v 3 78 36
v -32 16 33
v -32 78 33
v -3 16 33
v -3 78 33
v 3 16 33
v 3 78 33
v 32 16 33
v 32 78 33
v 36 17 31
v 36 46 31
v 36 47 31
v 36 77 31
v 37 17 31
v 37 46 31
v 37 47 31
v 37 77 31
v 37 19 29
v 37 45 29
v 37 48 29
v 37 75 29
v 38 19 29
v 38 45 29
v 38 48 29
v 38 75 29
v 39 22 4
v 39 29 4
v 39 51 4
v 39 58 4
v 40 22 4
v 40 29 4
v 40 51 4
v 40 58 4
v 40 23 3
v 40 28 3
v 40 52 3
v 40 57 3
v 41 23 3
v 41 28 3
v 41 52 3
v 41 57 3
v 38 22 1
v 38 29 1
v 38 51 1
v 38 58 1
v 39 22 1
v 39 23 1
v 39 28 1
v 39 29 1
v 39 51 1
v 39 52 1
v 39 57 1
v 39 58 1
v 40 25 -0
v 40 26 -0
v 40 54 -0
v 40 55 -0
v 41 25 -0
v 41 26 -0
v 41 54 -0
v 41 55 -0
v -36 17 -31
v -36 46 -31
v -36 47 -31
v -36 77 -31
v -34 17 -31
v -34 46 -31
v -34 47 -31
v -34 77 -31
v -37 0 -32
v -37 11 -32
v -37 16 -32
v -37 78 -32
v -36 16 -32
v -36 78 -32
v -32 0 -32
v -32 11 -32
v -32 14 -32
v -32 15 -32
v -32 16 -32
v -32 78 -32
v -32 87 -32
v -3 16 -32
v -3 78 -32
v 3 16 -32
v 3 78 -32
v 32 0 -32
v 32 11 -32
v 32 14 -32
v 32 15 -32
v 32 16 -32
v 32 78 -32
v 32 87 -32
v 36 16 -32
v 36 78 -32
v 37 0 -32
v 37 11 -32
v 37 16 -32
v 37 78 -32
v -37 0 32
v -37 11 32
v -37 16 32
v -37 78 32
v -36 16 32
v -36 78 32
v -32 0 32
v -32 11 32
v -32 14 32
v -32 15 32
v -32 16 32
v -32 78 32
v -32 87 32
v -3 16 32
v -3 78 32
v 3 16 32
v 3 78 32
v 32 0 32
v 32 11 32
v 32 14 32
v 32 15 32
v 32 16 32
v 32 78 32
v 32 87 32
v 36 16 32
v 36 78 32
v 37 0 32
v 37 11 32
v 37 16 32
v 37 78 32
v -36 17 31
v -36 46 31
v -36 47 31
v -36 77 31
v -34 17 31
v -34 46 31
v -34 47 31
v -34 77 31
v 40 25 1
v 40 26 1
v 40 54 1
v 40 55 1
v 41 25 1
v 41 26 1
v 41 54 1
v 41 55 1
v 38 22 -0
v 38 29 -0
v 38 51 -0
v 38 58 -0
v 39 22 -0
v 39 23 -0
v 39 28 -0
v 39 29 -0
v 39 51 -0
v 39 52 -0
v 39 57 -0
v 39 58 -0
v 40 23 -2
v 40 28 -2
v 40 52 -2
v 40 57 -2
v 41 23 -2
v 41 28 -2
v 41 52 -2
v 41 57 -2
v 39 22 -3
v 39 29 -3
v 39 51 -3
v 39 58 -3
v 40 22 -3
v 40 29 -3
v 40 51 -3
v 40 58 -3
v 37 19 -29
v 37 45 -29
v 37 48 -29
v 37 75 -29
v 38 19 -29
v 38 45 -29
v 38 48 -29
v 38 75 -29
v 36 17 -31
v 36 46 -31
v 36 47 -31
v 36 77 -31
v 37 17 -31
v 37 46 -31
v 37 47 -31
v 37 77 -31
v -32 16 -33
v -32 78 -33
v -3 16 -33
v -3 78 -33
v 3 16 -33
v 3 78 -33
v 32 16 -33
v 32 78 -33
v -3 16 -36
v -3 78 -36
v 3 16 -36
v 3 78 -36
v -37 0 -37
v -37 83 -37
v -32 0 -37
v -32 11 -37
v -32 16 -37
v -32 78 -37
v 32 0 -37
v 32 11 -37
v 32 16 -37
v 32 78 -37
v 37 0 -37
v 37 83 -37
v -42 83 -42
v -42 88 -42
v 42 83 -42
v 42 88 -42
v -37 0 37
v -32 0 37
v 32 0 37
v 37 0 37
v -37 0 32
v -32 0 32
v 32 0 32
v 37 0 32
v -37 0 -32
v -32 0 -32
v 32 0 -32
v 37 0 -32
v -37 0 -37
v -32 0 -37
v 32 0 -37
v 37 0 -37
v -32 11 37
v 32 11 37
v -37 11 32
v -32 11 32
v 32 11 32
v 37 11 32
v -37 11 -32
v -32 11 -32
v 32 11 -32
v 37 11 -32
v -32 11 -37
v 32 11 -37
v -32 14 32
v 32 14 32
v -32 14 -32
v 32 14 -32
v 36 17 31
v 37 17 31
v 36 17 -31
v 37 17 -31
v 37 19 29
v 38 19 29
v 37 19 -29
v 38 19 -29
v 39 22 4
v 40 22 4
v 38 22 1
v 39 22 1
v 38 22 -0
v 39 22 -0
v 39 22 -3
v 40 22 -3
v 40 23 3
v 41 23 3
v 40 23 -2
v 41 23 -2
v 40 26 1
v 41 26 1
v 40 26 -0
v 41 26 -0
v -36 46 31
v -34 46 31
v -36 46 -31
v -34 46 -31
v 36 47 31
v 37 47 31
v 36 47 -31
v 37 47 -31
v 37 48 29
v 38 48 29
v 37 48 -29
v 38 48 -29
v 39 51 4
v 40 51 4
v 38 51 1
v 39 51 1
v 38 51 -0
v 39 51 -0
v 39 51 -3
v 40 51 -3
v 40 52 3
v 41 52 3
v 40 52 -2
v 41 52 -2
v 40 55 1
v 41 55 1
v 40 55 -0
v 41 55 -0
v -36 77 31
v -34 77 31
v -36 77 -31
v -34 77 -31
v -32 78 37
v 32 78 37
v -3 78 36
v 3 78 36
v -32 78 33
v -3 78 33
v 3 78 33
v 32 78 33
v -37 78 32
v -36 78 32
v 36 78 32
v 37 78 32
v -37 78 -32
v -36 78 -32
v 36 78 -32
v 37 78 -32
v -32 78 -33
v -3 78 -33
v 3 78 -33
v 32 78 -33
v -3 78 -36
v 3 78 -36
v -32 78 -37
v 32 78 -37
v -42 83 42
v 42 83 42
v -37 83 37
v 37 83 37
v -37 83 -37
v 37 83 -37
v -42 83 -42
v 42 83 -42
v -32 87 32
v 32 87 32
v -32 87 -32
v 32 87 -32
v -32 15 32
v 32 15 32
v -32 15 -32
v 32 15 -32
v -32 16 37
v 32 16 37
v -3 16 36
v 3 16 36
v -32 16 33
v -3 16 33
v 3 16 33
v 32 16 33
v -37 16 32
v -36 16 32
v 36 16 32
v 37 16 32
v -37 16 -32
v -36 16 -32
v 36 16 -32
v 37 16 -32
v -32 16 -33
v -3 16 -33
v 3 16 -33
v 32 16 -33
v -3 16 -36
v 3 16 -36
v -32 16 -37
v 32 16 -37
v -36 17 31
v -34 17 31
v -36 17 -31
v -34 17 -31
v 40 25 1
v 41 25 1
v 40 25 -0
v 41 25 -0
v 40 28 3
v 41 28 3
v 40 28 -2
v 41 28 -2
v 39 29 4
v 40 29 4
v 38 29 1
v 39 29 1
v 38 29 -0
v 39 29 -0
v 39 29 -3
v 40 29 -3
v 37 45 29
v 38 45 29
v 37 45 -29
v 38 45 -29
v 36 46 31
v 37 46 31
v 36 46 -31
v 37 46 -31
v -36 47 31
v -34 47 31
v -36 47 -31
v -34 47 -31
v 40 54 1
v 41 54 1
v 40 54 -0
v 41 54 -0
v 40 57 3
v 41 57 3
v 40 57 -2
v 41 57 -2
v 39 58 4
v 40 58 4
v 38 58 1
v 39 58 1
v 38 58 -0
v 39 58 -0
v 39 58 -3
v 40 58 -3
v 37 75 29
v 38 75 29
v 37 75 -29
v 38 75 -29
v 36 77 31
v 37 77 31
v 36 77 -31
v 37 77 -31
v -42 88 42
v 42 88 42
v -42 88 -42
v 42 88 -42

# faces
f 3/3/1 2/3/1 1/3/1
f 4/3/1 2/3/1 3/3/1
f 9/4/1 6/4/1 5/4/1
f 10/4/1 8/4/1 7/4/1
f 11/4/1 9/4/1 5/4/1
f 11/4/1 10/4/1 9/4/1
f 12/4/1 8/4/1 10/4/1
f 12/4/1 10/4/1 11/4/1
f 13/4/1 11/4/1 5/4/1
f 14/4/1 8/4/1 12/4/1
f 15/4/1 13/4/1 5/4/1
f 15/4/1 14/4/1 13/4/1
f 16/4/1 8/4/1 14/4/1
f 16/4/1 14/4/1 15/4/1
f 19/4/1 18/4/1 17/4/1
f 20/4/1 18/4/1 19/4/1
f 21/4/1 19/4/1 17/4/1
f 22/4/1 18/4/1 20/4/1
f 23/4/1 21/4/1 17/4/1
f 23/4/1 22/4/1 21/4/1
f 24/4/1 18/4/1 22/4/1
f 24/4/1 22/4/1 23/4/1
f 25/4/1 23/4/1 17/4/1
f 26/4/1 18/4/1 24/4/1
f 27/4/1 25/4/1 17/4/1
f 27/4/1 26/4/1 25/4/1
f 28/4/1 18/4/1 26/4/1
f 28/4/1 26/4/1 27/4/1
f 31/3/1 30/3/1 29/3/1
f 32/3/1 30/3/1 31/3/1
f 35/3/1 34/3/1 33/3/1
f 36/3/1 34/3/1 35/3/1
f 41/4/1 38/4/1 37/4/1
f 42/4/1 38/4/1 41/4/1
f 43/4/1 40/4/1 39/4/1
f 44/4/1 40/4/1 43/4/1
f 49/4/1 46/4/1 45/4/1
f 50/4/1 46/4/1 49/4/1
f 51/4/1 48/4/1 47/4/1
f 52/4/1 48/4/1 51/4/1
f 53/4/1 51/4/1 50/4/1
f 54/4/1 51/4/1 53/4/1
f 59/4/1 56/4/1 55/4/1
f 60/4/1 56/4/1 59/4/1
f 63/4/1 58/4/1 57/4/1
f 64/4/1 58/4/1 63/4/1
f 65/4/1 60/4/1 59/4/1
f 66/4/1 60/4/1 65/4/1
f 67/4/1 62/4/1 61/4/1
f 68/4/1 62/4/1 67/4/1
f 69/4/1 66/4/1 65/4/1
f 70/4/1 66/4/1 69/4/1
f 75/2/1 72/2/1 71/2/1
f 76/2/1 72/2/1 75/2/1
f 77/2/1 74/2/1 73/2/1
f 78/2/1 74/2/1 77/2/1
f 79/1/1 76/1/1 75/1/1
f 79/2/1 75/2/1 71/2/1
f 80/1/1 76/1/1 79/1/1
f 81/1/1 78/1/1 77/1/1
f 82/2/1 74/2/1 78/2/1
f 82/1/1 78/1/1 81/1/1
f 83/2/1 80/2/1 79/2/1
f 83/2/1 79/2/1 71/2/1
f 84/2/1 80/2/1 83/2/1
f 85/2/1 82/2/1 81/2/1
f 86/2/1 74/2/1 82/2/1
f 86/2/1 82/2/1 85/2/1
f 91/2/1 88/2/1 87/2/1
f 92/2/1 88/2/1 91/2/1
f 93/2/1 90/2/1 89/2/1
f 94/2/1 90/2/1 93/2/1
f 95/4/1 92/4/1 91/4/1
f 95/2/1 91/2/1 87/2/1
f 96/4/1 92/4/1 95/4/1
f 97/4/1 94/4/1 93/4/1
f 98/2/1 90/2/1 94/2/1
f 98/4/1 94/4/1 97/4/1
f 99/2/1 96/2/1 95/2/1
f 99/2/1 95/2/1 87/2/1
f 100/2/1 96/2/1 99/2/1
f 101/2/1 98/2/1 97/2/1
f 102/2/1 90/2/1 98/2/1
f 102/2/1 98/2/1 101/2/1
f 103/4/2 104/4/2 107/4/2
f 107/4/2 104/4/2 108/4/2
f 105/4/2 106/4/2 109/4/2
f 109/4/2 106/4/2 110/4/2
f 108/4/2 109/4/2 111/4/2
f 111/4/2 109/4/2 112/4/2
f 113/4/2 114/4/2 117/4/2
f 117/4/2 114/4/2 118/4/2
f 115/4/2 116/4/2 121/4/2
f 121/4/2 116/4/2 122/4/2
f 117/4/2 118/4/2 123/4/2
f 123/4/2 118/4/2 124/4/2
f 119/4/2 120/4/2 125/4/2
f 125/4/2 120/4/2 126/4/2
f 123/4/2 124/4/2 127/4/2
f 127/4/2 124/4/2 128/4/2
f 129/4/2 130/4/2 133/4/2
f 133/4/2 130/4/2 134/4/2
f 131/4/2 132/4/2 135/4/2
f 135/4/2 132/4/2 136/4/2
f 137/4/2 138/4/2 139/4/2
f 139/4/2 138/4/2 140/4/2
f 137/4/2 139/4/2 141/4/2
f 140/4/2 138/4/2 142/4/2
f 137/4/2 141/4/2 143/4/2
f 141/4/2 142/4/2 143/4/2
f 142/4/2 138/4/2 144/4/2
f 143/4/2 142/4/2 144/4/2
f 137/4/2 143/4/2 145/4/2
f 144/4/2 138/4/2 146/4/2
f 137/4/2 145/4/2 147/4/2
f 145/4/2 146/4/2 147/4/2
f 146/4/2 138/4/2 148/4/2
f 147/4/2 146/4/2 148/4/2
f 149/4/2 150/4/2 153/4/2
f 151/4/2 152/4/2 154/4/2
f 149/4/2 153/4/2 155/4/2
f 153/4/2 154/4/2 155/4/2
f 154/4/2 152/4/2 156/4/2
f 155/4/2 154/4/2 156/4/2
f 157/3/2 158/3/2 159/3/2
f 159/3/2 158/3/2 160/3/2
f 157/3/2 159/3/2 161/3/2
f 160/3/2 158/3/2 162/3/2
f 157/3/2 161/3/2 163/3/2
f 161/3/2 162/3/2 163/3/2
f 162/3/2 158/3/2 164/3/2
f 163/3/2 162/3/2 164/3/2
f 165/3/2 166/3/2 167/3/2
f 167/3/2 166/3/2 168/3/2
f 165/3/2 167/3/2 169/3/2
f 168/3/2 166/3/2 170/3/2
f 165/3/2 169/3/2 171/3/2
f 169/3/2 170/3/2 171/3/2
f 170/3/2 166/3/2 172/3/2
f 171/3/2 170/3/2 172/3/2
f 149/4/2 155/4/2 173/4/2
f 156/4/2 152/4/2 174/4/2
f 149/4/2 173/4/2 175/4/2
f 173/4/2 174/4/2 175/4/2
f 174/4/2 152/4/2 176/4/2
f 175/4/2 174/4/2 176/4/2
f 177/3/2 178/3/2 179/3/2
f 179/3/2 178/3/2 180/3/2
f 177/3/2 179/3/2 181/3/2
f 180/3/2 178/3/2 182/3/2
f 177/3/2 181/3/2 183/3/2
f 181/3/2 182/3/2 183/3/2
f 182/3/2 178/3/2 184/3/2
f 183/3/2 182/3/2 184/3/2
f 185/3/2 186/3/2 187/3/2
f 187/3/2 186/3/2 188/3/2
f 185/3/2 187/3/2 189/3/2
f 188/3/2 186/3/2 190/3/2
f 185/3/2 189/3/2 191/3/2
f 189/3/2 190/3/2 191/3/2
f 190/3/2 186/3/2 192/3/2
f 191/3/2 190/3/2 192/3/2
f 193/2/2 194/2/2 195/2/2
f 195/2/2 194/2/2 196/2/2
f 197/3/2 198/3/2 199/3/2
f 199/3/2 198/3/2 200/3/2
f 193/2/2 195/2/2 201/2/2
f 196/2/2 194/2/2 202/2/2
f 193/2/2 201/2/2 203/2/2
f 201/2/2 202/2/2 203/2/2
f 202/2/2 194/2/2 204/2/2
f 203/2/2 202/2/2 204/2/2
f 205/2/2 206/2/2 207/2/2
f 207/2/2 206/2/2 208/2/2
f 209/3/2 210/3/2 211/3/2
f 211/3/2 210/3/2 212/3/2
f 205/2/2 207/2/2 213/2/2
f 208/2/2 206/2/2 214/2/2
f 205/2/2 213/2/2 215/2/2
f 213/2/2 214/2/2 215/2/2
f 214/2/2 206/2/2 216/2/2
f 215/2/2 214/2/2 216/2/2
f 217/2/2 218/2/2 219/2/2
f 219/2/2 218/2/2 220/2/2
f 217/2/2 219/2/2 221/2/2
f 220/2/2 218/2/2 222/2/2
f 217/2/2 221/2/2 223/2/2
f 221/2/2 222/2/2 223/2/2
f 222/2/2 218/2/2 224/2/2
f 223/2/2 222/2/2 224/2/2
f 225/2/2 226/2/2 227/2/2
f 227/2/2 226/2/2 228/2/2
f 225/2/2 227/2/2 229/2/2
f 228/2/2 226/2/2 230/2/2
f 225/2/2 229/2/2 231/2/2
f 229/2/2 230/2/2 231/2/2
f 230/2/2 226/2/2 232/2/2
f 231/2/2 230/2/2 232/2/2
f 233/3/2 234/3/2 235/3/2
f 235/3/2 234/3/2 236/3/2
f 239/3/3 238/3/3 237/3/3
f 240/3/3 238/3/3 239/3/3
f 243/4/3 242/4/3 241/4/3
f 244/4/3 242/4/3 243/4/3
f 245/4/3 242/4/3 244/4/3
f 246/4/3 242/4/3 245/4/3
f 248/4/3 245/4/3 244/4/3
f 249/4/3 245/4/3 248/4/3
f 250/4/3 242/4/3 246/4/3
f 251/4/3 249/4/3 248/4/3
f 251/4/3 250/4/3 249/4/3
f 251/4/3 248/4/3 247/4/3
f 252/4/3 242/4/3 250/4/3
f 252/4/3 250/4/3 251/4/3
f 255/4/3 254/4/3 253/4/3
f 256/4/3 254/4/3 255/4/3
f 259/3/3 258/3/3 257/3/3
f 260/3/3 258/3/3 259/3/3
f 263/3/3 262/3/3 261/3/3
f 264/3/3 262/3/3 263/3/3
f 269/3/3 266/3/3 265/3/3
f 270/3/3 266/3/3 269/3/3
f 271/3/3 268/3/3 267/3/3
f 272/3/3 268/3/3 271/3/3
f 277/3/3 274/3/3 273/3/3
f 278/3/3 274/3/3 277/3/3
f 279/3/3 276/3/3 275/3/3
f 280/3/3 276/3/3 279/3/3
f 285/2/3 282/2/3 281/2/3
f 286/2/3 282/2/3 285/2/3
f 287/2/3 284/2/3 283/2/3
f 288/2/3 284/2/3 287/2/3
f 293/2/3 290/2/3 289/2/3
f 294/2/3 290/2/3 293/2/3
f 295/2/3 292/2/3 291/2/3
f 296/2/3 292/2/3 295/2/3
f 301/4/3 298/4/3 297/4/3
f 302/4/3 298/4/3 301/4/3
f 303/4/3 298/4/3 302/4/3
f 304/4/3 298/4/3 303/4/3
f 305/4/3 300/4/3 299/4/3
f 306/4/3 300/4/3 305/4/3
f 307/4/3 300/4/3 306/4/3
f 308/4/3 300/4/3 307/4/3
f 313/2/3 310/2/3 309/2/3
f 314/2/3 310/2/3 313/2/3
f 315/2/3 312/2/3 311/2/3
f 316/2/3 312/2/3 315/2/3
f 321/4/3 318/4/3 317/4/3
f 322/4/3 318/4/3 321/4/3
f 323/4/3 320/4/3 319/4/3
f 324/4/3 320/4/3 323/4/3
f 329/4/3 328/4/3 327/4/3
f 330/4/3 328/4/3 329/4/3
f 331/4/3 326/4/3 325/4/3
f 332/4/3 326/4/3 331/4/3
f 338/3/3 336/3/3 335/3/3
f 338/4/3 335/4/3 334/4/3
f 339/4/3 337/4/3 336/4/3
f 339/3/3 336/3/3 338/3/3
f 340/4/3 338/4/3 334/4/3
f 340/4/3 339/4/3 338/4/3
f 341/4/3 337/4/3 339/4/3
f 341/4/3 339/4/3 340/4/3
f 343/4/3 333/4/3 332/4/3
f 344/4/3 333/4/3 343/4/3
f 345/4/3 340/4/3 334/4/3
f 346/3/3 341/3/3 340/3/3
f 346/4/3 340/4/3 345/4/3
f 347/4/3 337/4/3 341/4/3
f 347/3/3 341/3/3 346/3/3
f 348/4/3 337/4/3 347/4/3
f 351/4/3 343/4/3 342/4/3
f 352/4/3 343/4/3 351/4/3
f 353/4/3 350/4/3 349/4/3
f 354/4/3 350/4/3 353/4/3
f 357/4/4 358/4/4 359/4/4
f 359/4/4 358/4/4 360/4/4
f 355/4/4 356/4/4 361/4/4
f 361/4/4 356/4/4 362/4/4
f 365/3/4 366/3/4 368/3/4
f 364/4/4 365/4/4 368/4/4
f 366/4/4 367/4/4 369/4/4
f 368/3/4 366/3/4 369/3/4
f 364/4/4 368/4/4 370/4/4
f 368/4/4 369/4/4 370/4/4
f 369/4/4 367/4/4 371/4/4
f 370/4/4 369/4/4 371/4/4
f 362/4/4 363/4/4 373/4/4
f 373/4/4 363/4/4 374/4/4
f 364/4/4 370/4/4 375/4/4
f 370/3/4 371/3/4 376/3/4
f 375/4/4 370/4/4 376/4/4
f 371/4/4 367/4/4 377/4/4
f 376/3/4 371/3/4 377/3/4
f 377/4/4 367/4/4 378/4/4
f 372/4/4 373/4/4 381/4/4
f 381/4/4 373/4/4 382/4/4
f 379/4/4 380/4/4 383/4/4
f 383/4/4 380/4/4 384/4/4
f 385/4/4 386/4/4 389/4/4
f 389/4/4 386/4/4 390/4/4
f 387/4/4 388/4/4 391/4/4
f 391/4/4 388/4/4 392/4/4
f 393/2/4 394/2/4 397/2/4
f 397/2/4 394/2/4 398/2/4
f 395/2/4 396/2/4 399/2/4
f 399/2/4 396/2/4 400/2/4
f 401/4/4 402/4/4 405/4/4
f 405/4/4 402/4/4 406/4/4
f 406/4/4 402/4/4 407/4/4
f 407/4/4 402/4/4 408/4/4
f 403/4/4 404/4/4 409/4/4
f 409/4/4 404/4/4 410/4/4
f 410/4/4 404/4/4 411/4/4
f 411/4/4 404/4/4 412/4/4
f 413/2/4 414/2/4 417/2/4
f 417/2/4 414/2/4 418/2/4
f 415/2/4 416/2/4 419/2/4
f 419/2/4 416/2/4 420/2/4
f 421/2/4 422/2/4 425/2/4
f 425/2/4 422/2/4 426/2/4
f 423/2/4 424/2/4 427/2/4
f 427/2/4 424/2/4 428/2/4
f 429/3/4 430/3/4 433/3/4
f 433/3/4 430/3/4 434/3/4
f 431/3/4 432/3/4 435/3/4
f 435/3/4 432/3/4 436/3/4
f 437/3/4 438/3/4 441/3/4
f 441/3/4 438/3/4 442/3/4
f 439/3/4 440/3/4 443/3/4
f 443/3/4 440/3/4 444/3/4
f 445/3/4 446/3/4 447/3/4
f 447/3/4 446/3/4 448/3/4
f 449/3/4 450/3/4 451/3/4
f 451/3/4 450/3/4 452/3/4
f 453/4/4 454/4/4 455/4/4
f 455/4/4 454/4/4 456/4/4
f 457/4/4 458/4/4 459/4/4
f 459/4/4 458/4/4 460/4/4
f 460/4/4 458/4/4 461/4/4
f 461/4/4 458/4/4 462/4/4
f 460/4/4 461/4/4 464/4/4
f 464/4/4 461/4/4 465/4/4
f 462/4/4 458/4/4 466/4/4
f 464/4/4 465/4/4 467/4/4
f 465/4/4 466/4/4 467/4/4
f 463/4/4 464/4/4 467/4/4
f 466/4/4 458/4/4 468/4/4
f 467/4/4 466/4/4 468/4/4
f 469/3/4 470/3/4 471/3/4
f 471/3/4 470/3/4 472/3/4
f 477/4/5 474/4/5 473/4/5
f 478/4/5 474/4/5 477/4/5
f 479/4/5 476/4/5 475/4/5
f 480/4/5 476/4/5 479/4/5
f 485/4/5 482/4/5 481/4/5
f 486/4/5 482/4/5 485/4/5
f 487/4/5 484/4/5 483/4/5
f 488/4/5 484/4/5 487/4/5
f 492/4/5 490/4/5 489/4/5
f 493/4/5 490/4/5 492/4/5
f 495/4/5 492/4/5 491/4/5
f 496/4/5 492/4/5 495/4/5
f 497/4/5 494/4/5 493/4/5
f 498/4/5 494/4/5 497/4/5
f 499/4/5 497/4/5 496/4/5
f 500/4/5 497/4/5 499/4/5
f 503/4/5 502/4/5 501/4/5
f 504/4/5 502/4/5 503/4/5
f 507/3/5 506/3/5 505/3/5
f 508/3/5 506/3/5 507/3/5
f 511/3/5 510/3/5 509/3/5
f 512/3/5 510/3/5 511/3/5
f 516/2/5 514/2/5 513/2/5
f 517/4/5 516/4/5 515/4/5
f 518/2/5 514/2/5 516/2/5
f 518/4/5 516/4/5 517/4/5
f 519/2/5 514/2/5 518/2/5
f 520/2/5 514/2/5 519/2/5
f 523/2/5 522/2/5 521/2/5
f 524/2/5 522/2/5 523/2/5
f 527/2/5 526/2/5 525/2/5
f 528/2/5 526/2/5 527/2/5
f 531/4/5 530/4/5 529/4/5
f 532/4/5 530/4/5 531/4/5
f 535/3/5 534/3/5 533/3/5
f 536/3/5 534/3/5 535/3/5
f 539/3/5 538/3/5 537/3/5
f 540/3/5 538/3/5 539/3/5
f 544/2/5 542/2/5 541/2/5
f 545/4/5 544/4/5 543/4/5
f 546/2/5 542/2/5 544/2/5
f 546/4/5 544/4/5 545/4/5
f 547/2/5 542/2/5 546/2/5
f 548/2/5 542/2/5 547/2/5
f 551/2/5 550/2/5 549/2/5
f 552/2/5 550/2/5 551/2/5
f 555/2/5 554/2/5 553/2/5
f 556/2/5 554/2/5 555/2/5
f 559/4/5 558/4/5 557/4/5
f 560/4/5 558/4/5 559/4/5
f 563/4/5 562/4/5 561/4/5
f 564/4/5 562/4/5 563/4/5
f 565/4/5 563/4/5 561/4/5
f 566/4/5 563/4/5 565/4/5
f 567/4/5 562/4/5 564/4/5
f 568/4/5 562/4/5 567/4/5
f 573/4/5 570/4/5 569/4/5
f 574/4/5 570/4/5 573/4/5
f 575/4/5 572/4/5 571/4/5
f 576/4/5 572/4/5 575/4/5
f 581/4/5 578/4/5 577/4/5
f 582/4/5 580/4/5 579/4/5
f 583/4/5 581/4/5 577/4/5
f 583/4/5 582/4/5 581/4/5
f 584/4/5 580/4/5 582/4/5
f 584/4/5 582/4/5 583/4/5
f 587/3/5 586/3/5 585/3/5
f 588/3/5 586/3/5 587/3/5
f 589/3/5 587/3/5 585/3/5
f 590/3/5 586/3/5 588/3/5
f 591/3/5 589/3/5 585/3/5
f 591/3/5 590/3/5 589/3/5
f 592/3/5 586/3/5 590/3/5
f 592/3/5 590/3/5 591/3/5
f 595/3/5 594/3/5 593/3/5
f 596/3/5 594/3/5 595/3/5
f 597/4/6 598/4/6 599/4/6
f 599/4/6 598/4/6 600/4/6
f 601/4/6 602/4/6 603/4/6
f 603/4/6 602/4/6 604/4/6
f 601/4/6 603/4/6 605/4/6
f 605/4/6 603/4/6 606/4/6
f 604/4/6 602/4/6 607/4/6
f 607/4/6 602/4/6 608/4/6
f 609/4/6 610/4/6 613/4/6
f 613/4/6 610/4/6 614/4/6
f 611/4/6 612/4/6 615/4/6
f 615/4/6 612/4/6 616/4/6
f 617/4/6 618/4/6 621/4/6
f 619/4/6 620/4/6 622/4/6
f 617/4/6 621/4/6 623/4/6
f 621/4/6 622/4/6 623/4/6
f 622/4/6 620/4/6 624/4/6
f 623/4/6 622/4/6 624/4/6
f 625/4/6 626/4/6 627/4/6
f 627/4/6 626/4/6 628/4/6
f 629/2/6 630/2/6 631/2/6
f 631/2/6 630/2/6 632/2/6
f 633/2/6 634/2/6 635/2/6
f 635/2/6 634/2/6 636/2/6
f 637/2/6 638/2/6 640/2/6
f 639/4/6 640/4/6 641/4/6
f 640/2/6 638/2/6 642/2/6
f 641/4/6 640/4/6 642/4/6
f 642/2/6 638/2/6 643/2/6
f 643/2/6 638/2/6 644/2/6
f 645/3/6 646/3/6 647/3/6
f 647/3/6 646/3/6 648/3/6
f 649/3/6 650/3/6 651/3/6
f 651/3/6 650/3/6 652/3/6
f 653/4/6 654/4/6 655/4/6
f 655/4/6 654/4/6 656/4/6
f 657/2/6 658/2/6 659/2/6
f 659/2/6 658/2/6 660/2/6
f 661/2/6 662/2/6 663/2/6
f 663/2/6 662/2/6 664/2/6
f 665/2/6 666/2/6 668/2/6
f 667/4/6 668/4/6 669/4/6
f 668/2/6 666/2/6 670/2/6
f 669/4/6 668/4/6 670/4/6
f 670/2/6 666/2/6 671/2/6
f 671/2/6 666/2/6 672/2/6
f 673/3/6 674/3/6 675/3/6
f 675/3/6 674/3/6 676/3/6
f 677/3/6 678/3/6 679/3/6
f 679/3/6 678/3/6 680/3/6
f 681/3/6 682/3/6 683/3/6
f 683/3/6 682/3/6 684/3/6
