# MagicaVoxel @ Ephtracy

# material
mtllib puzzle_1.mtl
usemtl palette

# normals
vn -1 0 0
vn 1 0 0
vn 0 0 1
vn 0 0 -1
vn 0 -1 0
vn 0 1 0

# texcoords
vt 0.00195313 0.5
vt 0.947266 0.5

# verts
v -50 0 24
v -50 0 2
v -50 0 -10
v -50 0 -50
v -50 3 24
v -50 3 2
v -50 3 -10
v -50 3 -50
v -48 0 2
v -48 0 1
v -48 3 2
v -48 3 1
v -40 0 -12
v -40 0 -13
v -40 3 -12
v -40 3 -13
v -38 0 -11
v -38 0 -12
v -38 3 -11
v -38 3 -12
v -37 0 -10
v -37 0 -11
v -37 3 -10
v -37 3 -11
v -36 0 -9
v -36 0 -10
v -36 3 -9
v -36 3 -10
v -35 0 4
v -35 0 3
v -35 0 -7
v -35 0 -9
v -35 3 4
v -35 3 3
v -35 3 -7
v -35 3 -9
v -34 0 -6
v -34 0 -7
v -34 3 -6
v -34 3 -7
v -33 0 -4
v -33 0 -6
v -33 3 -4
v -33 3 -6
v -32 0 3
v -32 0 2
v -32 0 -2
v -32 0 -4
v -32 3 3
v -32 3 2
v -32 3 -2
v -32 3 -4
v -31 0 2
v -31 0 -2
v -31 3 2
v -31 3 -2
v -20 0 47
v -20 0 41
v -20 3 47
v -20 3 41
v -18 0 48
v -18 0 47
v -18 0 41
v -18 0 40
v -18 0 25
v -18 0 24
v -18 3 48
v -18 3 47
v -18 3 41
v -18 3 40
v -18 3 25
v -18 3 24
v -17 0 49
v -17 0 48
v -17 0 40
v -17 0 39
v -17 3 49
v -17 3 48
v -17 3 40
v -17 3 39
v -16 0 39
v -16 0 38
v -16 0 26
v -16 0 25
v -16 3 39
v -16 3 38
v -16 3 26
v -16 3 25
v -15 0 38
v -15 0 37
v -15 0 27
v -15 0 26
v -15 3 38
v -15 3 37
v -15 3 27
v -15 3 26
v -14 0 50
v -14 0 49
v -14 0 37
v -14 0 36
v -14 3 50
v -14 3 49
v -14 3 37
v -14 3 36
v -13 0 36
v -13 0 35
v -13 0 28
v -13 0 27
v -13 3 36
v -13 3 35
v -13 3 28
v -13 3 27
v -12 0 35
v -12 0 33
v -12 0 30
v -12 0 28
v -12 3 35
v -12 3 33
v -12 3 30
v -12 3 28
v -11 0 33
v -11 0 30
v -11 3 33
v -11 3 30
v -47 0 -10
v -47 0 -11
v -47 3 -10
v -47 3 -11
v -46 0 -11
v -46 0 -12
v -46 3 -11
v -46 3 -12
v -45 0 -12
v -45 0 -13
v -45 3 -12
v -45 3 -13
v -41 0 2
v -41 0 1
v -41 3 2
v -41 3 1
v -39 0 3
v -39 0 2
v -39 3 3
v -39 3 2
v -38 0 4
v -38 0 3
v -38 3 4
v -38 3 3
v -5 0 39
v -5 0 32
v -5 3 39
v -5 3 32
v -4 0 40
v -4 0 39
v -4 0 32
v -4 0 30
v -4 3 40
v -4 3 39
v -4 3 32
v -4 3 30
v -3 0 50
v -3 0 49
v -3 0 41
v -3 0 40
v -3 0 30
v -3 0 29
v -3 3 50
v -3 3 49
v -3 3 41
v -3 3 40
v -3 3 30
v -3 3 29
v -2 0 42
v -2 0 41
v -2 0 29
v -2 0 28
v -2 3 42
v -2 3 41
v -2 3 29
v -2 3 28
v -1 0 43
v -1 0 42
v -1 0 28
v -1 0 27
v -1 3 43
v -1 3 42
v -1 3 28
v -1 3 27
v 0 0 49
v 0 0 48
v 0 3 49
v 0 3 48
v 1 0 48
v 1 0 47
v 1 0 44
v 1 0 43
v 1 0 27
v 1 0 26
v 1 3 48
v 1 3 47
v 1 3 44
v 1 3 43
v 1 3 27
v 1 3 26
v 2 0 47
v 2 0 44
v 2 3 47
v 2 3 44
v 6 0 26
v 6 0 25
v 6 3 26
v 6 3 25
v 50 0 25
v 50 0 -50
v 50 3 25
v 50 3 -50
v -14 0 50
v -14 3 50
v -3 0 50
v -3 3 50
v -17 0 49
v -17 3 49
v -14 0 49
v -14 3 49
v -3 0 49
v -3 3 49
v 0 0 49
v 0 3 49
v -18 0 48
v -18 3 48
v -17 0 48
v -17 3 48
v 0 0 48
v 0 3 48
v 1 0 48
v 1 3 48
v -20 0 47
v -20 3 47
v -18 0 47
v -18 3 47
v 1 0 47
v 1 3 47
v 2 0 47
v 2 3 47
v -5 0 32
v -5 3 32
v -4 0 32
v -4 3 32
v -12 0 30
v -12 3 30
v -11 0 30
v -11 3 30
v -4 0 30
v -4 3 30
v -3 0 30
v -3 3 30
v -3 0 29
v -3 3 29
v -2 0 29
v -2 3 29
v -13 0 28
v -13 3 28
v -12 0 28
v -12 3 28
v -2 0 28
v -2 3 28
v -1 0 28
v -1 3 28
v -15 0 27
v -15 3 27
v -13 0 27
v -13 3 27
v -1 0 27
v -1 3 27
v 1 0 27
v 1 3 27
v -16 0 26
v -16 3 26
v -15 0 26
v -15 3 26
v 1 0 26
v 1 3 26
v 6 0 26
v 6 3 26
v -18 0 25
v -18 3 25
v -16 0 25
v -16 3 25
v 6 0 25
v 6 3 25
v 50 0 25
v 50 3 25
v -50 0 24
v -50 3 24
v -18 0 24
v -18 3 24
v -32 0 -2
v -32 3 -2
v -31 0 -2
v -31 3 -2
v -33 0 -4
v -33 3 -4
v -32 0 -4
v -32 3 -4
v -34 0 -6
v -34 3 -6
v -33 0 -6
v -33 3 -6
v -35 0 -7
v -35 3 -7
v -34 0 -7
v -34 3 -7
v -36 0 -9
v -36 3 -9
v -35 0 -9
v -35 3 -9
v -50 0 -10
v -50 3 -10
v -47 0 -10
v -47 3 -10
v -37 0 -10
v -37 3 -10
v -36 0 -10
v -36 3 -10
v -47 0 -11
v -47 3 -11
v -46 0 -11
v -46 3 -11
v -38 0 -11
v -38 3 -11
v -37 0 -11
v -37 3 -11
v -46 0 -12
v -46 3 -12
v -45 0 -12
v -45 3 -12
v -40 0 -12
v -40 3 -12
v -38 0 -12
v -38 3 -12
v -45 0 -13
v -45 3 -13
v -40 0 -13
v -40 3 -13
v 1 0 44
v 1 3 44
v 2 0 44
v 2 3 44
v -1 0 43
v -1 3 43
v 1 0 43
v 1 3 43
v -2 0 42
v -2 3 42
v -1 0 42
v -1 3 42
v -20 0 41
v -20 3 41
v -18 0 41
v -18 3 41
v -3 0 41
v -3 3 41
v -2 0 41
v -2 3 41
v -18 0 40
v -18 3 40
v -17 0 40
v -17 3 40
v -4 0 40
v -4 3 40
v -3 0 40
v -3 3 40
v -17 0 39
v -17 3 39
v -16 0 39
v -16 3 39
v -5 0 39
v -5 3 39
v -4 0 39
v -4 3 39
v -16 0 38
v -16 3 38
v -15 0 38
v -15 3 38
v -15 0 37
v -15 3 37
v -14 0 37
v -14 3 37
v -14 0 36
v -14 3 36
v -13 0 36
v -13 3 36
v -13 0 35
v -13 3 35
v -12 0 35
v -12 3 35
v -12 0 33
v -12 3 33
v -11 0 33
v -11 3 33
v -38 0 4
v -38 3 4
v -35 0 4
v -35 3 4
v -39 0 3
v -39 3 3
v -38 0 3
v -38 3 3
v -35 0 3
v -35 3 3
v -32 0 3
v -32 3 3
v -50 0 2
v -50 3 2
v -48 0 2
v -48 3 2
v -41 0 2
v -41 3 2
v -39 0 2
v -39 3 2
v -32 0 2
v -32 3 2
v -31 0 2
v -31 3 2
v -48 0 1
v -48 3 1
v -41 0 1
v -41 3 1
v -50 0 -50
v -50 3 -50
v 50 0 -50
v 50 3 -50
v -14 0 50
v -3 0 50
v -17 0 49
v -14 0 49
v -3 0 49
v 0 0 49
v -18 0 48
v -17 0 48
v 0 0 48
v 1 0 48
v -20 0 47
v -18 0 47
v 1 0 47
v 2 0 47
v 1 0 44
v 2 0 44
v -1 0 43
v 1 0 43
v -2 0 42
v -1 0 42
v -20 0 41
v -18 0 41
v -3 0 41
v -2 0 41
v -18 0 40
v -17 0 40
v -4 0 40
v -3 0 40
v -17 0 39
v -16 0 39
v -5 0 39
v -4 0 39
v -16 0 38
v -15 0 38
v -15 0 37
v -14 0 37
v -14 0 36
v -13 0 36
v -13 0 35
v -12 0 35
v -12 0 33
v -11 0 33
v -5 0 32
v -4 0 32
v -12 0 30
v -11 0 30
v -4 0 30
v -3 0 30
v -3 0 29
v -2 0 29
v -13 0 28
v -12 0 28
v -2 0 28
v -1 0 28
v -15 0 27
v -13 0 27
v -1 0 27
v 1 0 27
v -16 0 26
v -15 0 26
v 1 0 26
v 6 0 26
v -18 0 25
v -16 0 25
v 6 0 25
v 50 0 25
v -50 0 24
v -18 0 24
v -38 0 4
v -35 0 4
v -39 0 3
v -38 0 3
v -35 0 3
v -32 0 3
v -50 0 2
v -48 0 2
v -41 0 2
v -39 0 2
v -32 0 2
v -31 0 2
v -48 0 1
v -41 0 1
v -32 0 -2
v -31 0 -2
v -33 0 -4
v -32 0 -4
v -34 0 -6
v -33 0 -6
v -35 0 -7
v -34 0 -7
v -36 0 -9
v -35 0 -9
v -50 0 -10
v -47 0 -10
v -37 0 -10
v -36 0 -10
v -47 0 -11
v -46 0 -11
v -38 0 -11
v -37 0 -11
v -46 0 -12
v -45 0 -12
v -40 0 -12
v -38 0 -12
v -45 0 -13
v -40 0 -13
v -50 0 -50
v 50 0 -50
v -14 3 50
v -3 3 50
v -17 3 49
v -14 3 49
v -3 3 49
v 0 3 49
v -18 3 48
v -17 3 48
v 0 3 48
v 1 3 48
v -20 3 47
v -18 3 47
v 1 3 47
v 2 3 47
v 1 3 44
v 2 3 44
v -1 3 43
v 1 3 43
v -2 3 42
v -1 3 42
v -20 3 41
v -18 3 41
v -3 3 41
v -2 3 41
v -18 3 40
v -17 3 40
v -4 3 40
v -3 3 40
v -17 3 39
v -16 3 39
v -5 3 39
v -4 3 39
v -16 3 38
v -15 3 38
v -15 3 37
v -14 3 37
v -14 3 36
v -13 3 36
v -13 3 35
v -12 3 35
v -12 3 33
v -11 3 33
v -5 3 32
v -4 3 32
v -12 3 30
v -11 3 30
v -4 3 30
v -3 3 30
v -3 3 29
v -2 3 29
v -13 3 28
v -12 3 28
v -2 3 28
v -1 3 28
v -15 3 27
v -13 3 27
v -1 3 27
v 1 3 27
v -16 3 26
v -15 3 26
v 1 3 26
v 6 3 26
v -18 3 25
v -16 3 25
v 6 3 25
v 50 3 25
v -50 3 24
v -18 3 24
v -38 3 4
v -35 3 4
v 7 3 4
v 16 3 4
v -39 3 3
v -38 3 3
v -35 3 3
v -32 3 3
v 4 3 3
v 7 3 3
v 16 3 3
v 19 3 3
v -50 3 2
v -48 3 2
v -41 3 2
v -39 3 2
v -32 3 2
v -31 3 2
v 2 3 2
v 4 3 2
v 19 3 2
v 21 3 2
v -48 3 1
v -41 3 1
v 1 3 1
v 2 3 1
v 21 3 1
v 22 3 1
v 0 3 -0
v 1 3 -0
v 22 3 -0
v 23 3 -0
v -1 3 -1
v 0 3 -1
v 23 3 -1
v 24 3 -1
v -32 3 -2
v -31 3 -2
v -2 3 -2
v -1 3 -2
v 24 3 -2
v 25 3 -2
v -3 3 -3
v -2 3 -3
v 25 3 -3
v 26 3 -3
v -33 3 -4
v -32 3 -4
v -4 3 -4
v -3 3 -4
v 26 3 -4
v 27 3 -4
v -34 3 -6
v -33 3 -6
v -5 3 -6
v -4 3 -6
v 27 3 -6
v 28 3 -6
v -35 3 -7
v -34 3 -7
v -36 3 -9
v -35 3 -9
v -6 3 -9
v -5 3 -9
v 28 3 -9
v 29 3 -9
v -50 3 -10
v -47 3 -10
v -37 3 -10
v -36 3 -10
v -47 3 -11
v -46 3 -11
v -38 3 -11
v -37 3 -11
v -46 3 -12
v -45 3 -12
v -40 3 -12
v -38 3 -12
v -45 3 -13
v -40 3 -13
v -6 3 -18
v -5 3 -18
v 28 3 -18
v 29 3 -18
v -5 3 -21
v -4 3 -21
v 27 3 -21
v 28 3 -21
v -4 3 -23
v -3 3 -23
v 26 3 -23
v 27 3 -23
v -3 3 -24
v -2 3 -24
v 25 3 -24
v 26 3 -24
v -2 3 -25
v -1 3 -25
v 24 3 -25
v 25 3 -25
v -1 3 -26
v 0 3 -26
v 23 3 -26
v 24 3 -26
v 0 3 -27
v 1 3 -27
v 22 3 -27
v 23 3 -27
v 1 3 -28
v 2 3 -28
v 21 3 -28
v 22 3 -28
v 2 3 -29
v 4 3 -29
v 19 3 -29
v 21 3 -29
v 4 3 -30
v 7 3 -30
v 16 3 -30
v 19 3 -30
v 7 3 -31
v 16 3 -31
v -50 3 -50
v 50 3 -50

# faces
f 5/2/1 2/2/1 1/2/1
f 6/2/1 2/2/1 5/2/1
f 7/2/1 4/2/1 3/2/1
f 8/2/1 4/2/1 7/2/1
f 11/2/1 10/2/1 9/2/1
f 12/2/1 10/2/1 11/2/1
f 15/2/1 14/2/1 13/2/1
f 16/2/1 14/2/1 15/2/1
f 19/2/1 18/2/1 17/2/1
f 20/2/1 18/2/1 19/2/1
f 23/2/1 22/2/1 21/2/1
f 24/2/1 22/2/1 23/2/1
f 27/2/1 26/2/1 25/2/1
f 28/2/1 26/2/1 27/2/1
f 33/2/1 30/2/1 29/2/1
f 34/2/1 30/2/1 33/2/1
f 35/2/1 32/2/1 31/2/1
f 36/2/1 32/2/1 35/2/1
f 39/2/1 38/2/1 37/2/1
f 40/2/1 38/2/1 39/2/1
f 43/2/1 42/2/1 41/2/1
f 44/2/1 42/2/1 43/2/1
f 49/2/1 46/2/1 45/2/1
f 50/2/1 46/2/1 49/2/1
f 51/2/1 48/2/1 47/2/1
f 52/2/1 48/2/1 51/2/1
f 55/2/1 54/2/1 53/2/1
f 56/2/1 54/2/1 55/2/1
f 59/2/1 58/2/1 57/2/1
f 60/2/1 58/2/1 59/2/1
f 67/2/1 62/2/1 61/2/1
f 68/2/1 62/2/1 67/2/1
f 69/2/1 64/2/1 63/2/1
f 70/2/1 64/2/1 69/2/1
f 71/2/1 66/2/1 65/2/1
f 72/2/1 66/2/1 71/2/1
f 77/2/1 74/2/1 73/2/1
f 78/2/1 74/2/1 77/2/1
f 79/2/1 76/2/1 75/2/1
f 80/2/1 76/2/1 79/2/1
f 85/2/1 82/2/1 81/2/1
f 86/2/1 82/2/1 85/2/1
f 87/2/1 84/2/1 83/2/1
f 88/2/1 84/2/1 87/2/1
f 93/2/1 90/2/1 89/2/1
f 94/2/1 90/2/1 93/2/1
f 95/2/1 92/2/1 91/2/1
f 96/2/1 92/2/1 95/2/1
f 101/2/1 98/2/1 97/2/1
f 102/2/1 98/2/1 101/2/1
f 103/2/1 100/2/1 99/2/1
f 104/2/1 100/2/1 103/2/1
f 109/2/1 106/2/1 105/2/1
f 110/2/1 106/2/1 109/2/1
f 111/2/1 108/2/1 107/2/1
f 112/2/1 108/2/1 111/2/1
f 117/2/1 114/2/1 113/2/1
f 118/2/1 114/2/1 117/2/1
f 119/2/1 116/2/1 115/2/1
f 120/2/1 116/2/1 119/2/1
f 123/2/1 122/2/1 121/2/1
f 124/2/1 122/2/1 123/2/1
f 125/2/2 126/2/2 127/2/2
f 127/2/2 126/2/2 128/2/2
f 129/2/2 130/2/2 131/2/2
f 131/2/2 130/2/2 132/2/2
f 133/2/2 134/2/2 135/2/2
f 135/2/2 134/2/2 136/2/2
f 137/2/2 138/2/2 139/2/2
f 139/2/2 138/2/2 140/2/2
f 141/2/2 142/2/2 143/2/2
f 143/2/2 142/2/2 144/2/2
f 145/2/2 146/2/2 147/2/2
f 147/2/2 146/2/2 148/2/2
f 149/2/2 150/2/2 151/2/2
f 151/2/2 150/2/2 152/2/2
f 153/2/2 154/2/2 157/2/2
f 157/2/2 154/2/2 158/2/2
f 155/2/2 156/2/2 159/2/2
f 159/2/2 156/2/2 160/2/2
f 161/2/2 162/2/2 167/2/2
f 167/2/2 162/2/2 168/2/2
f 163/2/2 164/2/2 169/2/2
f 169/2/2 164/2/2 170/2/2
f 165/2/2 166/2/2 171/2/2
f 171/2/2 166/2/2 172/2/2
f 173/2/2 174/2/2 177/2/2
f 177/2/2 174/2/2 178/2/2
f 175/2/2 176/2/2 179/2/2
f 179/2/2 176/2/2 180/2/2
f 181/2/2 182/2/2 185/2/2
f 185/2/2 182/2/2 186/2/2
f 183/2/2 184/2/2 187/2/2
f 187/2/2 184/2/2 188/2/2
f 189/2/2 190/2/2 191/2/2
f 191/2/2 190/2/2 192/2/2
f 193/2/2 194/2/2 199/2/2
f 199/2/2 194/2/2 200/2/2
f 195/2/2 196/2/2 201/2/2
f 201/2/2 196/2/2 202/2/2
f 197/2/2 198/2/2 203/2/2
f 203/2/2 198/2/2 204/2/2
f 205/2/2 206/2/2 207/2/2
f 207/2/2 206/2/2 208/2/2
f 209/2/2 210/2/2 211/2/2
f 211/2/2 210/2/2 212/2/2
f 213/2/2 214/2/2 215/2/2
f 215/2/2 214/2/2 216/2/2
f 219/2/3 218/2/3 217/2/3
f 220/2/3 218/2/3 219/2/3
f 223/2/3 222/2/3 221/2/3
f 224/2/3 222/2/3 223/2/3
f 227/2/3 226/2/3 225/2/3
f 228/2/3 226/2/3 227/2/3
f 231/2/3 230/2/3 229/2/3
f 232/2/3 230/2/3 231/2/3
f 235/2/3 234/2/3 233/2/3
f 236/2/3 234/2/3 235/2/3
f 239/2/3 238/2/3 237/2/3
f 240/2/3 238/2/3 239/2/3
f 243/2/3 242/2/3 241/2/3
f 244/2/3 242/2/3 243/2/3
f 247/2/3 246/2/3 245/2/3
f 248/2/3 246/2/3 247/2/3
f 251/2/3 250/2/3 249/2/3
f 252/2/3 250/2/3 251/2/3
f 255/2/3 254/2/3 253/2/3
f 256/2/3 254/2/3 255/2/3
f 259/2/3 258/2/3 257/2/3
f 260/2/3 258/2/3 259/2/3
f 263/2/3 262/2/3 261/2/3
f 264/2/3 262/2/3 263/2/3
f 267/2/3 266/2/3 265/2/3
f 268/2/3 266/2/3 267/2/3
f 271/2/3 270/2/3 269/2/3
f 272/2/3 270/2/3 271/2/3
f 275/2/3 274/2/3 273/2/3
f 276/2/3 274/2/3 275/2/3
f 279/2/3 278/2/3 277/2/3
f 280/2/3 278/2/3 279/2/3
f 283/2/3 282/2/3 281/2/3
f 284/2/3 282/2/3 283/2/3
f 287/2/3 286/2/3 285/2/3
f 288/2/3 286/2/3 287/2/3
f 291/2/3 290/2/3 289/2/3
f 292/2/3 290/2/3 291/2/3
f 295/2/3 294/2/3 293/2/3
f 296/2/3 294/2/3 295/2/3
f 299/2/3 298/2/3 297/2/3
f 300/2/3 298/2/3 299/2/3
f 303/2/3 302/2/3 301/2/3
f 304/2/3 302/2/3 303/2/3
f 307/2/3 306/2/3 305/2/3
f 308/2/3 306/2/3 307/2/3
f 311/2/3 310/2/3 309/2/3
f 312/2/3 310/2/3 311/2/3
f 315/2/3 314/2/3 313/2/3
f 316/2/3 314/2/3 315/2/3
f 319/2/3 318/2/3 317/2/3
f 320/2/3 318/2/3 319/2/3
f 323/2/3 322/2/3 321/2/3
f 324/2/3 322/2/3 323/2/3
f 327/2/3 326/2/3 325/2/3
f 328/2/3 326/2/3 327/2/3
f 331/2/3 330/2/3 329/2/3
f 332/2/3 330/2/3 331/2/3
f 335/2/3 334/2/3 333/2/3
f 336/2/3 334/2/3 335/2/3
f 339/2/3 338/2/3 337/2/3
f 340/2/3 338/2/3 339/2/3
f 343/2/3 342/2/3 341/2/3
f 344/2/3 342/2/3 343/2/3
f 345/2/4 346/2/4 347/2/4
f 347/2/4 346/2/4 348/2/4
f 349/2/4 350/2/4 351/2/4
f 351/2/4 350/2/4 352/2/4
f 353/2/4 354/2/4 355/2/4
f 355/2/4 354/2/4 356/2/4
f 357/2/4 358/2/4 359/2/4
f 359/2/4 358/2/4 360/2/4
f 361/2/4 362/2/4 363/2/4
f 363/2/4 362/2/4 364/2/4
f 365/2/4 366/2/4 367/2/4
f 367/2/4 366/2/4 368/2/4
f 369/2/4 370/2/4 371/2/4
f 371/2/4 370/2/4 372/2/4
f 373/2/4 374/2/4 375/2/4
f 375/2/4 374/2/4 376/2/4
f 377/2/4 378/2/4 379/2/4
f 379/2/4 378/2/4 380/2/4
f 381/2/4 382/2/4 383/2/4
f 383/2/4 382/2/4 384/2/4
f 385/2/4 386/2/4 387/2/4
f 387/2/4 386/2/4 388/2/4
f 389/2/4 390/2/4 391/2/4
f 391/2/4 390/2/4 392/2/4
f 393/2/4 394/2/4 395/2/4
f 395/2/4 394/2/4 396/2/4
f 397/2/4 398/2/4 399/2/4
f 399/2/4 398/2/4 400/2/4
f 401/2/4 402/2/4 403/2/4
f 403/2/4 402/2/4 404/2/4
f 405/2/4 406/2/4 407/2/4
f 407/2/4 406/2/4 408/2/4
f 409/2/4 410/2/4 411/2/4
f 411/2/4 410/2/4 412/2/4
f 413/2/4 414/2/4 415/2/4
f 415/2/4 414/2/4 416/2/4
f 417/2/4 418/2/4 419/2/4
f 419/2/4 418/2/4 420/2/4
f 421/2/4 422/2/4 423/2/4
f 423/2/4 422/2/4 424/2/4
f 425/2/4 426/2/4 427/2/4
f 427/2/4 426/2/4 428/2/4
f 429/2/4 430/2/4 431/2/4
f 431/2/4 430/2/4 432/2/4
f 436/2/5 434/2/5 433/2/5
f 437/2/5 434/2/5 436/2/5
f 440/2/5 436/2/5 435/2/5
f 440/2/5 438/2/5 437/2/5
f 440/2/5 437/2/5 436/2/5
f 441/2/5 438/2/5 440/2/5
f 444/2/5 440/2/5 439/2/5
f 444/2/5 442/2/5 441/2/5
f 444/2/5 441/2/5 440/2/5
f 445/2/5 442/2/5 444/2/5
f 447/2/5 444/2/5 443/2/5
f 447/2/5 446/2/5 445/2/5
f 447/2/5 445/2/5 444/2/5
f 448/2/5 446/2/5 447/2/5
f 449/2/5 447/2/5 443/2/5
f 450/2/5 447/2/5 449/2/5
f 451/2/5 449/2/5 443/2/5
f 452/2/5 449/2/5 451/2/5
f 453/2/5 451/2/5 443/2/5
f 454/2/5 451/2/5 453/2/5
f 455/2/5 451/2/5 454/2/5
f 456/2/5 451/2/5 455/2/5
f 457/2/5 455/2/5 454/2/5
f 458/2/5 455/2/5 457/2/5
f 459/2/5 455/2/5 458/2/5
f 460/2/5 455/2/5 459/2/5
f 461/2/5 459/2/5 458/2/5
f 462/2/5 459/2/5 461/2/5
f 463/2/5 459/2/5 462/2/5
f 464/2/5 459/2/5 463/2/5
f 465/2/5 463/2/5 462/2/5
f 466/2/5 463/2/5 465/2/5
f 467/2/5 463/2/5 466/2/5
f 468/2/5 463/2/5 467/2/5
f 469/2/5 463/2/5 468/2/5
f 470/2/5 463/2/5 469/2/5
f 471/2/5 463/2/5 470/2/5
f 472/2/5 463/2/5 471/2/5
f 473/2/5 463/2/5 472/2/5
f 474/2/5 463/2/5 473/2/5
f 475/2/5 463/2/5 474/2/5
f 478/2/5 475/2/5 474/2/5
f 478/2/5 476/2/5 475/2/5
f 479/2/5 476/2/5 478/2/5
f 481/2/5 479/2/5 478/2/5
f 481/2/5 480/2/5 479/2/5
f 481/2/5 478/2/5 477/2/5
f 484/2/5 481/2/5 477/2/5
f 484/2/5 482/2/5 481/2/5
f 485/2/5 482/2/5 484/2/5
f 488/2/5 485/2/5 484/2/5
f 488/2/5 486/2/5 485/2/5
f 488/2/5 484/2/5 483/2/5
f 489/2/5 486/2/5 488/2/5
f 492/2/5 489/2/5 488/2/5
f 492/2/5 490/2/5 489/2/5
f 492/2/5 488/2/5 487/2/5
f 493/2/5 490/2/5 492/2/5
f 496/2/5 493/2/5 492/2/5
f 496/2/5 494/2/5 493/2/5
f 496/2/5 492/2/5 491/2/5
f 497/2/5 494/2/5 496/2/5
f 500/2/5 496/2/5 495/2/5
f 500/2/5 498/2/5 497/2/5
f 500/2/5 497/2/5 496/2/5
f 501/2/5 500/2/5 499/2/5
f 502/2/5 500/2/5 501/2/5
f 503/2/5 501/2/5 499/2/5
f 504/2/5 501/2/5 503/2/5
f 505/2/5 500/2/5 502/2/5
f 506/2/5 500/2/5 505/2/5
f 507/2/5 503/2/5 499/2/5
f 508/2/5 503/2/5 507/2/5
f 509/2/5 503/2/5 508/2/5
f 510/2/5 503/2/5 509/2/5
f 511/2/5 500/2/5 506/2/5
f 512/2/5 500/2/5 511/2/5
f 513/2/5 509/2/5 508/2/5
f 514/2/5 509/2/5 513/2/5
f 516/2/5 500/2/5 512/2/5
f 518/2/5 516/2/5 515/2/5
f 520/2/5 518/2/5 517/2/5
f 522/2/5 520/2/5 519/2/5
f 524/2/5 522/2/5 521/2/5
f 528/2/5 524/2/5 523/2/5
f 529/2/5 526/2/5 525/2/5
f 532/2/5 528/2/5 527/2/5
f 533/2/5 530/2/5 529/2/5
f 536/2/5 532/2/5 531/2/5
f 537/2/5 534/2/5 533/2/5
f 538/2/5 536/2/5 535/2/5
f 539/2/5 537/2/5 533/2/5
f 539/2/5 538/2/5 537/2/5
f 539/2/5 529/2/5 525/2/5
f 539/2/5 533/2/5 529/2/5
f 540/2/5 498/2/5 500/2/5
f 540/2/5 538/2/5 539/2/5
f 540/2/5 500/2/5 516/2/5
f 540/2/5 516/2/5 518/2/5
f 540/2/5 532/2/5 536/2/5
f 540/2/5 528/2/5 532/2/5
f 540/2/5 518/2/5 520/2/5
f 540/2/5 520/2/5 522/2/5
f 540/2/5 524/2/5 528/2/5
f 540/2/5 522/2/5 524/2/5
f 540/2/5 536/2/5 538/2/5
f 541/2/6 542/2/6 544/2/6
f 544/2/6 542/2/6 545/2/6
f 543/2/6 544/2/6 548/2/6
f 545/2/6 546/2/6 548/2/6
f 544/2/6 545/2/6 548/2/6
f 548/2/6 546/2/6 549/2/6
f 547/2/6 548/2/6 552/2/6
f 549/2/6 550/2/6 552/2/6
f 548/2/6 549/2/6 552/2/6
f 552/2/6 550/2/6 553/2/6
f 551/2/6 552/2/6 555/2/6
f 553/2/6 554/2/6 555/2/6
f 552/2/6 553/2/6 555/2/6
f 555/2/6 554/2/6 556/2/6
f 551/2/6 555/2/6 557/2/6
f 557/2/6 555/2/6 558/2/6
f 551/2/6 557/2/6 559/2/6
f 559/2/6 557/2/6 560/2/6
f 551/2/6 559/2/6 561/2/6
f 561/2/6 559/2/6 562/2/6
f 562/2/6 559/2/6 563/2/6
f 563/2/6 559/2/6 564/2/6
f 562/2/6 563/2/6 565/2/6
f 565/2/6 563/2/6 566/2/6
f 566/2/6 563/2/6 567/2/6
f 567/2/6 563/2/6 568/2/6
f 566/2/6 567/2/6 569/2/6
f 569/2/6 567/2/6 570/2/6
f 570/2/6 567/2/6 571/2/6
f 571/2/6 567/2/6 572/2/6
f 570/2/6 571/2/6 573/2/6
f 573/2/6 571/2/6 574/2/6
f 574/2/6 571/2/6 575/2/6
f 575/2/6 571/2/6 576/2/6
f 576/2/6 571/2/6 577/2/6
f 577/2/6 571/2/6 578/2/6
f 578/2/6 571/2/6 579/2/6
f 579/2/6 571/2/6 580/2/6
f 580/2/6 571/2/6 581/2/6
f 581/2/6 571/2/6 582/2/6
f 582/2/6 571/2/6 583/2/6
f 582/2/6 583/2/6 586/2/6
f 583/2/6 584/2/6 586/2/6
f 586/2/6 584/2/6 587/2/6
f 586/2/6 587/2/6 589/2/6
f 587/2/6 588/2/6 589/2/6
f 585/2/6 586/2/6 589/2/6
f 585/2/6 589/2/6 592/2/6
f 589/2/6 590/2/6 592/2/6
f 592/2/6 590/2/6 593/2/6
f 592/2/6 593/2/6 596/2/6
f 593/2/6 594/2/6 596/2/6
f 591/2/6 592/2/6 596/2/6
f 596/2/6 594/2/6 597/2/6
f 596/2/6 597/2/6 600/2/6
f 597/2/6 598/2/6 600/2/6
f 595/2/6 596/2/6 600/2/6
f 600/2/6 598/2/6 601/2/6
f 600/2/6 601/2/6 604/2/6
f 601/2/6 602/2/6 604/2/6
f 599/2/6 600/2/6 604/2/6
f 604/2/6 602/2/6 605/2/6
f 603/2/6 604/2/6 608/2/6
f 605/2/6 606/2/6 608/2/6
f 604/2/6 605/2/6 608/2/6
f 607/2/6 608/2/6 609/2/6
f 609/2/6 608/2/6 610/2/6
f 608/2/6 606/2/6 611/2/6
f 610/2/6 608/2/6 611/2/6
f 611/2/6 606/2/6 612/2/6
f 607/2/6 609/2/6 613/2/6
f 613/2/6 609/2/6 614/2/6
f 610/2/6 611/2/6 615/2/6
f 615/2/6 611/2/6 616/2/6
f 616/2/6 611/2/6 617/2/6
f 611/1/6 612/1/6 618/1/6
f 617/2/6 611/2/6 618/2/6
f 612/2/6 606/2/6 619/2/6
f 618/1/6 612/1/6 619/1/6
f 619/2/6 606/2/6 620/2/6
f 607/2/6 613/2/6 621/2/6
f 621/2/6 613/2/6 622/2/6
f 622/2/6 613/2/6 623/2/6
f 623/2/6 613/2/6 624/2/6
f 616/2/6 617/2/6 625/2/6
f 625/2/6 617/2/6 626/2/6
f 626/2/6 617/2/6 627/2/6
f 617/1/6 618/1/6 628/1/6
f 627/2/6 617/2/6 628/2/6
f 619/1/6 620/1/6 628/1/6
f 618/1/6 619/1/6 628/1/6
f 620/2/6 606/2/6 629/2/6
f 628/1/6 620/1/6 629/1/6
f 629/2/6 606/2/6 630/2/6
f 622/2/6 623/2/6 631/2/6
f 631/2/6 623/2/6 632/2/6
f 626/2/6 627/2/6 633/2/6
f 627/1/6 628/1/6 634/1/6
f 633/2/6 627/2/6 634/2/6
f 629/1/6 630/1/6 634/1/6
f 628/1/6 629/1/6 634/1/6
f 630/2/6 606/2/6 635/2/6
f 634/1/6 630/1/6 635/1/6
f 635/2/6 606/2/6 636/2/6
f 626/2/6 633/2/6 637/2/6
f 633/1/6 634/1/6 638/1/6
f 637/2/6 633/2/6 638/2/6
f 635/1/6 636/1/6 638/1/6
f 634/1/6 635/1/6 638/1/6
f 636/2/6 606/2/6 639/2/6
f 638/1/6 636/1/6 639/1/6
f 639/2/6 606/2/6 640/2/6
f 626/2/6 637/2/6 641/2/6
f 637/1/6 638/1/6 642/1/6
f 641/2/6 637/2/6 642/2/6
f 638/1/6 639/1/6 642/1/6
f 639/1/6 640/1/6 642/1/6
f 640/2/6 606/2/6 643/2/6
f 642/1/6 640/1/6 643/1/6
f 643/2/6 606/2/6 644/2/6
f 626/2/6 641/2/6 646/2/6
f 646/2/6 641/2/6 647/2/6
f 641/1/6 642/1/6 648/1/6
f 647/2/6 641/2/6 648/2/6
f 642/1/6 643/1/6 648/1/6
f 643/1/6 644/1/6 648/1/6
f 644/2/6 606/2/6 649/2/6
f 648/1/6 644/1/6 649/1/6
f 649/2/6 606/2/6 650/2/6
f 646/2/6 647/2/6 651/2/6
f 645/2/6 646/2/6 651/2/6
f 647/1/6 648/1/6 652/1/6
f 651/2/6 647/2/6 652/2/6
f 649/1/6 650/1/6 652/1/6
f 648/1/6 649/1/6 652/1/6
f 650/2/6 606/2/6 653/2/6
f 652/1/6 650/1/6 653/1/6
f 653/2/6 606/2/6 654/2/6
f 645/2/6 651/2/6 656/2/6
f 656/2/6 651/2/6 657/2/6
f 651/1/6 652/1/6 658/1/6
f 657/2/6 651/2/6 658/2/6
f 652/1/6 653/1/6 658/1/6
f 653/1/6 654/1/6 658/1/6
f 654/2/6 606/2/6 659/2/6
f 658/1/6 654/1/6 659/1/6
f 659/2/6 606/2/6 660/2/6
f 656/2/6 657/2/6 662/2/6
f 655/2/6 656/2/6 662/2/6
f 662/2/6 657/2/6 663/2/6
f 657/1/6 658/1/6 664/1/6
f 663/2/6 657/2/6 664/2/6
f 659/1/6 660/1/6 664/1/6
f 658/1/6 659/1/6 664/1/6
f 660/2/6 606/2/6 665/2/6
f 664/1/6 660/1/6 665/1/6
f 665/2/6 606/2/6 666/2/6
f 662/2/6 663/2/6 668/2/6
f 661/2/6 662/2/6 668/2/6
f 667/2/6 668/2/6 670/2/6
f 668/2/6 663/2/6 671/2/6
f 670/2/6 668/2/6 671/2/6
f 663/1/6 664/1/6 672/1/6
f 671/2/6 663/2/6 672/2/6
f 665/1/6 666/1/6 672/1/6
f 664/1/6 665/1/6 672/1/6
f 666/2/6 606/2/6 673/2/6
f 672/1/6 666/1/6 673/1/6
f 673/2/6 606/2/6 674/2/6
f 670/2/6 671/2/6 678/2/6
f 669/2/6 670/2/6 678/2/6
f 675/2/6 676/2/6 679/2/6
f 677/2/6 678/2/6 682/2/6
f 679/2/6 680/2/6 683/2/6
f 681/2/6 682/2/6 686/2/6
f 683/2/6 684/2/6 687/2/6
f 685/2/6 686/2/6 688/2/6
f 671/1/6 672/1/6 689/1/6
f 687/2/6 688/2/6 689/2/6
f 688/2/6 686/2/6 689/2/6
f 672/1/6 673/1/6 689/1/6
f 686/2/6 682/2/6 689/2/6
f 673/1/6 674/1/6 689/1/6
f 678/2/6 671/2/6 689/2/6
f 682/2/6 678/2/6 689/2/6
f 689/1/6 674/1/6 690/1/6
f 690/1/6 674/1/6 691/1/6
f 674/2/6 606/2/6 692/2/6
f 691/1/6 674/1/6 692/1/6
f 690/1/6 691/1/6 693/1/6
f 689/2/6 690/2/6 693/2/6
f 693/1/6 691/1/6 694/1/6
f 694/1/6 691/1/6 695/1/6
f 691/2/6 692/2/6 696/2/6
f 695/1/6 691/1/6 696/1/6
f 694/1/6 695/1/6 697/1/6
f 693/2/6 694/2/6 697/2/6
f 697/1/6 695/1/6 698/1/6
f 698/1/6 695/1/6 699/1/6
f 695/2/6 696/2/6 700/2/6
f 699/1/6 695/1/6 700/1/6
f 698/1/6 699/1/6 701/1/6
f 697/2/6 698/2/6 701/2/6
f 701/1/6 699/1/6 702/1/6
f 702/1/6 699/1/6 703/1/6
f 699/2/6 700/2/6 704/2/6
f 703/1/6 699/1/6 704/1/6
f 702/1/6 703/1/6 705/1/6
f 701/2/6 702/2/6 705/2/6
f 705/1/6 703/1/6 706/1/6
f 706/1/6 703/1/6 707/1/6
f 703/2/6 704/2/6 708/2/6
f 707/1/6 703/1/6 708/1/6
f 706/1/6 707/1/6 709/1/6
f 705/2/6 706/2/6 709/2/6
f 709/1/6 707/1/6 710/1/6
f 710/1/6 707/1/6 711/1/6
f 707/2/6 708/2/6 712/2/6
f 711/1/6 707/1/6 712/1/6
f 710/1/6 711/1/6 713/1/6
f 709/2/6 710/2/6 713/2/6
f 713/1/6 711/1/6 714/1/6
f 714/1/6 711/1/6 715/1/6
f 711/2/6 712/2/6 716/2/6
f 715/1/6 711/1/6 716/1/6
f 714/1/6 715/1/6 717/1/6
f 713/2/6 714/2/6 717/2/6
f 717/1/6 715/1/6 718/1/6
f 718/1/6 715/1/6 719/1/6
f 715/2/6 716/2/6 720/2/6
f 719/1/6 715/1/6 720/1/6
f 718/1/6 719/1/6 721/1/6
f 717/2/6 718/2/6 721/2/6
f 721/1/6 719/1/6 722/1/6
f 722/1/6 719/1/6 723/1/6
f 719/2/6 720/2/6 724/2/6
f 723/1/6 719/1/6 724/1/6
f 722/1/6 723/1/6 725/1/6
f 721/2/6 722/2/6 725/2/6
f 725/1/6 723/1/6 726/1/6
f 726/1/6 723/1/6 727/1/6
f 723/2/6 724/2/6 728/2/6
f 727/1/6 723/1/6 728/1/6
f 726/1/6 727/1/6 729/1/6
f 725/2/6 726/2/6 729/2/6
f 727/2/6 728/2/6 730/2/6
f 729/1/6 727/1/6 730/1/6
f 683/2/6 687/2/6 731/2/6
f 679/2/6 683/2/6 731/2/6
f 729/2/6 730/2/6 731/2/6
f 725/2/6 729/2/6 731/2/6
f 721/2/6 725/2/6 731/2/6
f 675/2/6 679/2/6 731/2/6
f 717/2/6 721/2/6 731/2/6
f 687/2/6 689/2/6 731/2/6
f 713/2/6 717/2/6 731/2/6
f 689/2/6 693/2/6 731/2/6
f 709/2/6 713/2/6 731/2/6
f 693/2/6 697/2/6 731/2/6
f 705/2/6 709/2/6 731/2/6
f 697/2/6 701/2/6 731/2/6
f 701/2/6 705/2/6 731/2/6
f 730/2/6 728/2/6 732/2/6
f 731/2/6 730/2/6 732/2/6
f 692/2/6 606/2/6 732/2/6
f 708/2/6 704/2/6 732/2/6
f 704/2/6 700/2/6 732/2/6
f 712/2/6 708/2/6 732/2/6
f 700/2/6 696/2/6 732/2/6
f 716/2/6 712/2/6 732/2/6
f 696/2/6 692/2/6 732/2/6
f 720/2/6 716/2/6 732/2/6
f 724/2/6 720/2/6 732/2/6
f 728/2/6 724/2/6 732/2/6
