# MagicaVoxel @ Ephtracy

# material
mtllib puzzle_3.mtl
usemtl palette

# normals
vn -1 0 0
vn 1 0 0
vn 0 0 1
vn 0 0 -1
vn 0 -1 0
vn 0 1 0

# texcoords
vt 0.00195313 0.5
vt 0.607422 0.5

# verts
v -50 0 37
v -50 0 -37
v -50 3 37
v -50 3 -37
v 34 0 3
v 34 0 2
v 34 3 3
v 34 3 2
v 35 0 2
v 35 0 1
v 35 3 2
v 35 3 1
v 36 0 1
v 36 0 -0
v 36 3 1
v 36 3 -0
v 40 0 15
v 40 0 14
v 40 3 15
v 40 3 14
v 42 0 16
v 42 0 15
v 42 3 16
v 42 3 15
v 43 0 17
v 43 0 16
v 43 3 17
v 43 3 16
v 31 0 37
v 31 0 15
v 31 0 3
v 31 0 -37
v 31 3 37
v 31 3 15
v 31 3 3
v 31 3 -37
v 33 0 15
v 33 0 14
v 33 3 15
v 33 3 14
v 41 0 1
v 41 0 -0
v 41 3 1
v 41 3 -0
v 43 0 2
v 43 0 1
v 43 3 2
v 43 3 1
v 44 0 3
v 44 0 2
v 44 3 3
v 44 3 2
v 45 0 4
v 45 0 3
v 45 3 4
v 45 3 3
v 46 0 17
v 46 0 16
v 46 0 6
v 46 0 4
v 46 3 17
v 46 3 16
v 46 3 6
v 46 3 4
v 47 0 7
v 47 0 6
v 47 3 7
v 47 3 6
v 48 0 9
v 48 0 7
v 48 3 9
v 48 3 7
v 49 0 16
v 49 0 15
v 49 0 11
v 49 0 9
v 49 3 16
v 49 3 15
v 49 3 11
v 49 3 9
v 50 0 15
v 50 0 11
v 50 3 15
v 50 3 11
v -50 0 37
v -50 3 37
v -48 2 37
v -48 3 37
v -31 2 37
v -31 3 37
v 31 0 37
v 31 3 37
v 43 0 17
v 43 3 17
v 46 0 17
v 46 3 17
v 42 0 16
v 42 3 16
v 43 0 16
v 43 3 16
v 46 0 16
v 46 3 16
v 49 0 16
v 49 3 16
v 31 0 15
v 31 3 15
v 33 0 15
v 33 3 15
v 40 0 15
v 40 3 15
v 42 0 15
v 42 3 15
v 49 0 15
v 49 3 15
v 50 0 15
v 50 3 15
v 33 0 14
v 33 3 14
v 40 0 14
v 40 3 14
v 49 0 11
v 49 3 11
v 50 0 11
v 50 3 11
v 48 0 9
v 48 3 9
v 49 0 9
v 49 3 9
v 47 0 7
v 47 3 7
v 48 0 7
v 48 3 7
v 46 0 6
v 46 3 6
v 47 0 6
v 47 3 6
v 45 0 4
v 45 3 4
v 46 0 4
v 46 3 4
v 31 0 3
v 31 3 3
v 34 0 3
v 34 3 3
v 44 0 3
v 44 3 3
v 45 0 3
v 45 3 3
v 34 0 2
v 34 3 2
v 35 0 2
v 35 3 2
v 43 0 2
v 43 3 2
v 44 0 2
v 44 3 2
v 35 0 1
v 35 3 1
v 36 0 1
v 36 3 1
v 41 0 1
v 41 3 1
v 43 0 1
v 43 3 1
v 36 0 -0
v 36 3 -0
v 41 0 -0
v 41 3 -0
v -50 0 -37
v -50 3 -37
v 31 0 -37
v 31 3 -37
v -50 0 37
v 31 0 37
v 43 0 17
v 46 0 17
v 42 0 16
v 43 0 16
v 46 0 16
v 49 0 16
v 31 0 15
v 33 0 15
v 40 0 15
v 42 0 15
v 49 0 15
v 50 0 15
v 33 0 14
v 40 0 14
v 49 0 11
v 50 0 11
v 48 0 9
v 49 0 9
v 47 0 7
v 48 0 7
v 46 0 6
v 47 0 6
v 45 0 4
v 46 0 4
v 31 0 3
v 34 0 3
v 44 0 3
v 45 0 3
v 34 0 2
v 35 0 2
v 43 0 2
v 44 0 2
v 35 0 1
v 36 0 1
v 41 0 1
v 43 0 1
v 36 0 -0
v 41 0 -0
v -50 0 -37
v 31 0 -37
v -50 3 37
v -48 3 37
v -31 3 37
v 31 3 37
v -48 3 25
v -47 3 25
v -31 3 24
v -30 3 24
v -30 3 21
v -29 3 21
v -47 3 19
v -46 3 19
v -29 3 18
v -28 3 18
v 43 3 17
v 46 3 17
v -28 3 16
v -27 3 16
v 42 3 16
v 43 3 16
v 46 3 16
v 49 3 16
v 31 3 15
v 33 3 15
v 40 3 15
v 42 3 15
v 49 3 15
v 50 3 15
v -46 3 14
v -45 3 14
v -27 3 14
v -26 3 14
v 33 3 14
v 40 3 14
v -45 3 12
v -44 3 12
v -26 3 12
v -25 3 12
v 49 3 11
v 50 3 11
v -25 3 10
v -24 3 10
v -44 3 9
v -43 3 9
v 48 3 9
v 49 3 9
v -43 3 8
v -42 3 8
v -24 3 8
v -23 3 8
v 47 3 7
v 48 3 7
v -42 3 6
v -41 3 6
v -23 3 6
v -22 3 6
v 46 3 6
v 47 3 6
v -41 3 4
v -40 3 4
v -22 3 4
v -21 3 4
v 45 3 4
v 46 3 4
v -40 3 3
v -39 3 3
v 31 3 3
v 34 3 3
v 44 3 3
v 45 3 3
v -21 3 2
v -20 3 2
v 34 3 2
v 35 3 2
v 43 3 2
v 44 3 2
v -39 3 1
v -38 3 1
v -20 3 1
v -19 3 1
v 35 3 1
v 36 3 1
v 41 3 1
v 43 3 1
v -38 3 -0
v -37 3 -0
v 36 3 -0
v 41 3 -0
v -37 3 -1
v -36 3 -1
v -19 3 -1
v -18 3 -1
v -36 3 -2
v -35 3 -2
v -18 3 -2
v -17 3 -2
v -35 3 -3
v -34 3 -3
v -17 3 -3
v -16 3 -3
v -34 3 -4
v -33 3 -4
v -16 3 -4
v -15 3 -4
v -33 3 -5
v -31 3 -5
v -15 3 -5
v -14 3 -5
v -31 3 -6
v -29 3 -6
v -14 3 -6
v -13 3 -6
v -29 3 -7
v -28 3 -7
v -13 3 -7
v -12 3 -7
v -28 3 -8
v -27 3 -8
v -12 3 -8
v -11 3 -8
v -27 3 -9
v -25 3 -9
v -11 3 -9
v -10 3 -9
v -25 3 -10
v -23 3 -10
v -10 3 -10
v -9 3 -10
v -23 3 -11
v -21 3 -11
v -9 3 -11
v -8 3 -11
v -21 3 -12
v -19 3 -12
v -8 3 -12
v -6 3 -12
v -19 3 -13
v -16 3 -13
v -6 3 -13
v -5 3 -13
v -16 3 -14
v -14 3 -14
v -5 3 -14
v -3 3 -14
v -14 3 -15
v -12 3 -15
v -3 3 -15
v -1 3 -15
v -12 3 -16
v -8 3 -16
v -8 3 -17
v -1 3 -17
v -50 3 -37
v 31 3 -37

# faces
f 3/2/1 2/2/1 1/2/1
f 4/2/1 2/2/1 3/2/1
f 7/2/1 6/2/1 5/2/1
f 8/2/1 6/2/1 7/2/1
f 11/2/1 10/2/1 9/2/1
f 12/2/1 10/2/1 11/2/1
f 15/2/1 14/2/1 13/2/1
f 16/2/1 14/2/1 15/2/1
f 19/2/1 18/2/1 17/2/1
f 20/2/1 18/2/1 19/2/1
f 23/2/1 22/2/1 21/2/1
f 24/2/1 22/2/1 23/2/1
f 27/2/1 26/2/1 25/2/1
f 28/2/1 26/2/1 27/2/1
f 29/2/2 30/2/2 33/2/2
f 33/2/2 30/2/2 34/2/2
f 31/2/2 32/2/2 35/2/2
f 35/2/2 32/2/2 36/2/2
f 37/2/2 38/2/2 39/2/2
f 39/2/2 38/2/2 40/2/2
f 41/2/2 42/2/2 43/2/2
f 43/2/2 42/2/2 44/2/2
f 45/2/2 46/2/2 47/2/2
f 47/2/2 46/2/2 48/2/2
f 49/2/2 50/2/2 51/2/2
f 51/2/2 50/2/2 52/2/2
f 53/2/2 54/2/2 55/2/2
f 55/2/2 54/2/2 56/2/2
f 57/2/2 58/2/2 61/2/2
f 61/2/2 58/2/2 62/2/2
f 59/2/2 60/2/2 63/2/2
f 63/2/2 60/2/2 64/2/2
f 65/2/2 66/2/2 67/2/2
f 67/2/2 66/2/2 68/2/2
f 69/2/2 70/2/2 71/2/2
f 71/2/2 70/2/2 72/2/2
f 73/2/2 74/2/2 77/2/2
f 77/2/2 74/2/2 78/2/2
f 75/2/2 76/2/2 79/2/2
f 79/2/2 76/2/2 80/2/2
f 81/2/2 82/2/2 83/2/2
f 83/2/2 82/2/2 84/2/2
f 87/2/3 86/2/3 85/2/3
f 88/2/3 86/2/3 87/2/3
f 89/2/3 87/2/3 85/2/3
f 89/1/3 88/1/3 87/1/3
f 90/1/3 88/1/3 89/1/3
f 91/2/3 89/2/3 85/2/3
f 91/2/3 90/2/3 89/2/3
f 92/2/3 90/2/3 91/2/3
f 95/2/3 94/2/3 93/2/3
f 96/2/3 94/2/3 95/2/3
f 99/2/3 98/2/3 97/2/3
f 100/2/3 98/2/3 99/2/3
f 103/2/3 102/2/3 101/2/3
f 104/2/3 102/2/3 103/2/3
f 107/2/3 106/2/3 105/2/3
f 108/2/3 106/2/3 107/2/3
f 111/2/3 110/2/3 109/2/3
f 112/2/3 110/2/3 111/2/3
f 115/2/3 114/2/3 113/2/3
f 116/2/3 114/2/3 115/2/3
f 119/2/3 118/2/3 117/2/3
f 120/2/3 118/2/3 119/2/3
f 121/2/4 122/2/4 123/2/4
f 123/2/4 122/2/4 124/2/4
f 125/2/4 126/2/4 127/2/4
f 127/2/4 126/2/4 128/2/4
f 129/2/4 130/2/4 131/2/4
f 131/2/4 130/2/4 132/2/4
f 133/2/4 134/2/4 135/2/4
f 135/2/4 134/2/4 136/2/4
f 137/2/4 138/2/4 139/2/4
f 139/2/4 138/2/4 140/2/4
f 141/2/4 142/2/4 143/2/4
f 143/2/4 142/2/4 144/2/4
f 145/2/4 146/2/4 147/2/4
f 147/2/4 146/2/4 148/2/4
f 149/2/4 150/2/4 151/2/4
f 151/2/4 150/2/4 152/2/4
f 153/2/4 154/2/4 155/2/4
f 155/2/4 154/2/4 156/2/4
f 157/2/4 158/2/4 159/2/4
f 159/2/4 158/2/4 160/2/4
f 161/2/4 162/2/4 163/2/4
f 163/2/4 162/2/4 164/2/4
f 165/2/4 166/2/4 167/2/4
f 167/2/4 166/2/4 168/2/4
f 169/2/4 170/2/4 171/2/4
f 171/2/4 170/2/4 172/2/4
f 178/2/5 176/2/5 175/2/5
f 179/2/5 176/2/5 178/2/5
f 181/2/5 174/2/5 173/2/5
f 184/2/5 180/2/5 179/2/5
f 184/2/5 178/2/5 177/2/5
f 184/2/5 179/2/5 178/2/5
f 185/2/5 180/2/5 184/2/5
f 187/2/5 182/2/5 181/2/5
f 188/2/5 186/2/5 185/2/5
f 188/2/5 184/2/5 183/2/5
f 188/2/5 185/2/5 184/2/5
f 189/2/5 186/2/5 188/2/5
f 189/2/5 188/2/5 187/2/5
f 190/2/5 186/2/5 189/2/5
f 191/2/5 189/2/5 187/2/5
f 192/2/5 189/2/5 191/2/5
f 193/2/5 191/2/5 187/2/5
f 194/2/5 191/2/5 193/2/5
f 195/2/5 193/2/5 187/2/5
f 196/2/5 193/2/5 195/2/5
f 197/2/5 195/2/5 187/2/5
f 198/2/5 195/2/5 197/2/5
f 199/2/5 187/2/5 181/2/5
f 199/2/5 181/2/5 173/2/5
f 199/2/5 197/2/5 187/2/5
f 200/2/5 197/2/5 199/2/5
f 201/2/5 197/2/5 200/2/5
f 202/2/5 197/2/5 201/2/5
f 203/2/5 201/2/5 200/2/5
f 204/2/5 201/2/5 203/2/5
f 205/2/5 201/2/5 204/2/5
f 206/2/5 201/2/5 205/2/5
f 207/2/5 205/2/5 204/2/5
f 208/2/5 205/2/5 207/2/5
f 209/2/5 205/2/5 208/2/5
f 210/2/5 205/2/5 209/2/5
f 211/2/5 209/2/5 208/2/5
f 212/2/5 209/2/5 211/2/5
f 213/2/5 199/2/5 173/2/5
f 214/2/5 199/2/5 213/2/5
f 215/2/6 216/2/6 219/2/6
f 216/1/6 217/1/6 219/1/6
f 219/1/6 217/1/6 220/1/6
f 217/2/6 218/2/6 221/2/6
f 220/1/6 217/1/6 221/1/6
f 221/2/6 218/2/6 222/2/6
f 221/1/6 222/1/6 223/1/6
f 222/2/6 218/2/6 223/2/6
f 223/2/6 218/2/6 224/2/6
f 219/2/6 220/2/6 225/2/6
f 220/1/6 221/1/6 225/1/6
f 223/1/6 224/1/6 225/1/6
f 221/1/6 223/1/6 225/1/6
f 225/1/6 224/1/6 226/1/6
f 224/2/6 218/2/6 227/2/6
f 226/1/6 224/1/6 227/1/6
f 227/2/6 218/2/6 228/2/6
f 227/1/6 228/1/6 231/1/6
f 228/2/6 218/2/6 231/2/6
f 231/2/6 218/2/6 232/2/6
f 229/2/6 230/2/6 234/2/6
f 234/2/6 230/2/6 235/2/6
f 232/2/6 218/2/6 237/2/6
f 235/2/6 236/2/6 240/2/6
f 233/2/6 234/2/6 240/2/6
f 234/2/6 235/2/6 240/2/6
f 240/2/6 236/2/6 241/2/6
f 225/2/6 226/2/6 243/2/6
f 226/1/6 227/1/6 243/1/6
f 227/1/6 231/1/6 243/1/6
f 231/1/6 232/1/6 243/1/6
f 243/1/6 232/1/6 244/1/6
f 237/2/6 238/2/6 245/2/6
f 244/1/6 232/1/6 245/1/6
f 232/2/6 237/2/6 245/2/6
f 245/2/6 238/2/6 246/2/6
f 246/2/6 238/2/6 247/2/6
f 241/2/6 242/2/6 248/2/6
f 240/2/6 241/2/6 248/2/6
f 239/2/6 240/2/6 248/2/6
f 245/1/6 246/1/6 249/1/6
f 243/2/6 244/2/6 249/2/6
f 244/1/6 245/1/6 249/1/6
f 249/1/6 246/1/6 250/1/6
f 246/2/6 247/2/6 251/2/6
f 250/1/6 246/1/6 251/1/6
f 247/2/6 248/2/6 251/2/6
f 251/2/6 248/2/6 252/2/6
f 248/2/6 242/2/6 253/2/6
f 252/2/6 248/2/6 253/2/6
f 253/2/6 242/2/6 254/2/6
f 251/1/6 252/1/6 255/1/6
f 250/1/6 251/1/6 255/1/6
f 252/2/6 253/2/6 255/2/6
f 255/2/6 253/2/6 256/2/6
f 249/2/6 250/2/6 257/2/6
f 250/1/6 255/1/6 257/1/6
f 255/1/6 256/1/6 257/1/6
f 257/1/6 256/1/6 258/1/6
f 256/2/6 253/2/6 259/2/6
f 259/2/6 253/2/6 260/2/6
f 258/1/6 256/1/6 261/1/6
f 257/2/6 258/2/6 261/2/6
f 261/1/6 256/1/6 262/1/6
f 256/2/6 259/2/6 263/2/6
f 262/1/6 256/1/6 263/1/6
f 263/2/6 259/2/6 264/2/6
f 264/2/6 259/2/6 265/2/6
f 265/2/6 259/2/6 266/2/6
f 261/2/6 262/2/6 267/2/6
f 262/1/6 263/1/6 267/1/6
f 263/1/6 264/1/6 267/1/6
f 267/1/6 264/1/6 268/1/6
f 264/2/6 265/2/6 269/2/6
f 268/1/6 264/1/6 269/1/6
f 269/2/6 265/2/6 270/2/6
f 270/2/6 265/2/6 271/2/6
f 271/2/6 265/2/6 272/2/6
f 267/2/6 268/2/6 273/2/6
f 268/1/6 269/1/6 273/1/6
f 269/1/6 270/1/6 273/1/6
f 273/1/6 270/1/6 274/1/6
f 270/2/6 271/2/6 275/2/6
f 274/1/6 270/1/6 275/1/6
f 275/2/6 271/2/6 276/2/6
f 276/2/6 271/2/6 277/2/6
f 277/2/6 271/2/6 278/2/6
f 273/2/6 274/2/6 279/2/6
f 274/1/6 275/1/6 279/1/6
f 275/1/6 276/1/6 279/1/6
f 279/1/6 276/1/6 280/1/6
f 276/2/6 277/2/6 281/2/6
f 281/2/6 277/2/6 282/2/6
f 282/2/6 277/2/6 283/2/6
f 283/2/6 277/2/6 284/2/6
f 280/1/6 276/1/6 285/1/6
f 276/2/6 281/2/6 285/2/6
f 285/2/6 281/2/6 286/2/6
f 282/2/6 283/2/6 287/2/6
f 287/2/6 283/2/6 288/2/6
f 288/2/6 283/2/6 289/2/6
f 289/2/6 283/2/6 290/2/6
f 279/2/6 280/2/6 291/2/6
f 280/1/6 285/1/6 291/1/6
f 285/1/6 286/1/6 291/1/6
f 291/1/6 286/1/6 292/1/6
f 286/2/6 281/2/6 293/2/6
f 292/1/6 286/1/6 293/1/6
f 293/2/6 281/2/6 294/2/6
f 288/2/6 289/2/6 295/2/6
f 295/2/6 289/2/6 296/2/6
f 296/2/6 289/2/6 297/2/6
f 297/2/6 289/2/6 298/2/6
f 291/2/6 292/2/6 299/2/6
f 292/1/6 293/1/6 299/1/6
f 293/1/6 294/1/6 299/1/6
f 299/1/6 294/1/6 300/1/6
f 296/2/6 297/2/6 301/2/6
f 301/2/6 297/2/6 302/2/6
f 300/1/6 294/1/6 303/1/6
f 299/2/6 300/2/6 303/2/6
f 303/1/6 294/1/6 304/1/6
f 294/2/6 281/2/6 305/2/6
f 304/1/6 294/1/6 305/1/6
f 305/2/6 281/2/6 306/2/6
f 303/2/6 304/2/6 307/2/6
f 304/1/6 305/1/6 307/1/6
f 305/1/6 306/1/6 307/1/6
f 307/1/6 306/1/6 308/1/6
f 306/2/6 281/2/6 309/2/6
f 308/1/6 306/1/6 309/1/6
f 309/2/6 281/2/6 310/2/6
f 307/2/6 308/2/6 311/2/6
f 308/1/6 309/1/6 311/1/6
f 309/1/6 310/1/6 311/1/6
f 311/1/6 310/1/6 312/1/6
f 310/2/6 281/2/6 313/2/6
f 312/1/6 310/1/6 313/1/6
f 313/2/6 281/2/6 314/2/6
f 311/2/6 312/2/6 315/2/6
f 312/1/6 313/1/6 315/1/6
f 313/1/6 314/1/6 315/1/6
f 315/1/6 314/1/6 316/1/6
f 314/2/6 281/2/6 317/2/6
f 316/1/6 314/1/6 317/1/6
f 317/2/6 281/2/6 318/2/6
f 315/2/6 316/2/6 319/2/6
f 316/1/6 317/1/6 319/1/6
f 317/1/6 318/1/6 319/1/6
f 319/1/6 318/1/6 320/1/6
f 318/2/6 281/2/6 321/2/6
f 320/1/6 318/1/6 321/1/6
f 321/2/6 281/2/6 322/2/6
f 319/2/6 320/2/6 323/2/6
f 320/1/6 321/1/6 323/1/6
f 321/1/6 322/1/6 323/1/6
f 323/1/6 322/1/6 324/1/6
f 322/2/6 281/2/6 325/2/6
f 324/1/6 322/1/6 325/1/6
f 325/2/6 281/2/6 326/2/6
f 323/2/6 324/2/6 327/2/6
f 324/1/6 325/1/6 327/1/6
f 325/1/6 326/1/6 327/1/6
f 327/1/6 326/1/6 328/1/6
f 326/2/6 281/2/6 329/2/6
f 328/1/6 326/1/6 329/1/6
f 329/2/6 281/2/6 330/2/6
f 327/2/6 328/2/6 331/2/6
f 328/1/6 329/1/6 331/1/6
f 329/1/6 330/1/6 331/1/6
f 331/1/6 330/1/6 332/1/6
f 330/2/6 281/2/6 333/2/6
f 332/1/6 330/1/6 333/1/6
f 333/2/6 281/2/6 334/2/6
f 331/2/6 332/2/6 335/2/6
f 332/1/6 333/1/6 335/1/6
f 333/1/6 334/1/6 335/1/6
f 335/1/6 334/1/6 336/1/6
f 334/2/6 281/2/6 337/2/6
f 336/1/6 334/1/6 337/1/6
f 337/2/6 281/2/6 338/2/6
f 335/2/6 336/2/6 339/2/6
f 336/1/6 337/1/6 339/1/6
f 337/1/6 338/1/6 339/1/6
f 339/1/6 338/1/6 340/1/6
f 338/2/6 281/2/6 341/2/6
f 340/1/6 338/1/6 341/1/6
f 341/2/6 281/2/6 342/2/6
f 339/2/6 340/2/6 343/2/6
f 340/1/6 341/1/6 343/1/6
f 341/1/6 342/1/6 343/1/6
f 343/1/6 342/1/6 344/1/6
f 342/2/6 281/2/6 345/2/6
f 344/1/6 342/1/6 345/1/6
f 345/2/6 281/2/6 346/2/6
f 343/2/6 344/2/6 347/2/6
f 344/1/6 345/1/6 347/1/6
f 345/1/6 346/1/6 347/1/6
f 347/1/6 346/1/6 348/1/6
f 346/2/6 281/2/6 349/2/6
f 348/1/6 346/1/6 349/1/6
f 349/2/6 281/2/6 350/2/6
f 347/2/6 348/2/6 351/2/6
f 348/1/6 349/1/6 351/1/6
f 349/1/6 350/1/6 351/1/6
f 351/1/6 350/1/6 352/1/6
f 350/2/6 281/2/6 353/2/6
f 352/1/6 350/1/6 353/1/6
f 353/2/6 281/2/6 354/2/6
f 351/2/6 352/2/6 355/2/6
f 352/1/6 353/1/6 355/1/6
f 353/1/6 354/1/6 355/1/6
f 355/1/6 354/1/6 356/1/6
f 354/2/6 281/2/6 357/2/6
f 356/1/6 354/1/6 357/1/6
f 357/2/6 281/2/6 358/2/6
f 355/2/6 356/2/6 359/2/6
f 356/1/6 357/1/6 359/1/6
f 357/1/6 358/1/6 359/1/6
f 359/1/6 358/1/6 360/1/6
f 358/2/6 281/2/6 361/2/6
f 360/1/6 358/1/6 361/1/6
f 361/2/6 281/2/6 362/2/6
f 359/2/6 360/2/6 363/2/6
f 360/1/6 361/1/6 363/1/6
f 361/1/6 362/1/6 363/1/6
f 363/1/6 362/1/6 364/1/6
f 363/2/6 364/2/6 365/2/6
f 364/1/6 362/1/6 365/1/6
f 362/2/6 281/2/6 366/2/6
f 365/1/6 362/1/6 366/1/6
f 215/2/6 219/2/6 367/2/6
f 219/2/6 225/2/6 367/2/6
f 365/2/6 366/2/6 367/2/6
f 359/2/6 363/2/6 367/2/6
f 355/2/6 359/2/6 367/2/6
f 351/2/6 355/2/6 367/2/6
f 347/2/6 351/2/6 367/2/6
f 343/2/6 347/2/6 367/2/6
f 339/2/6 343/2/6 367/2/6
f 335/2/6 339/2/6 367/2/6
f 331/2/6 335/2/6 367/2/6
f 327/2/6 331/2/6 367/2/6
f 323/2/6 327/2/6 367/2/6
f 319/2/6 323/2/6 367/2/6
f 315/2/6 319/2/6 367/2/6
f 311/2/6 315/2/6 367/2/6
f 307/2/6 311/2/6 367/2/6
f 303/2/6 307/2/6 367/2/6
f 299/2/6 303/2/6 367/2/6
f 243/2/6 249/2/6 367/2/6
f 291/2/6 299/2/6 367/2/6
f 225/2/6 243/2/6 367/2/6
f 249/2/6 257/2/6 367/2/6
f 279/2/6 291/2/6 367/2/6
f 257/2/6 261/2/6 367/2/6
f 363/2/6 365/2/6 367/2/6
f 261/2/6 267/2/6 367/2/6
f 267/2/6 273/2/6 367/2/6
f 273/2/6 279/2/6 367/2/6
f 366/2/6 281/2/6 368/2/6
f 367/2/6 366/2/6 368/2/6
