# MagicaVoxel @ Ephtracy

# material
mtllib fenetre_droite.mtl
usemtl palette

# normals
vn -1 0 0
vn 1 0 0
vn 0 0 1
vn 0 0 -1
vn 0 -1 0
vn 0 1 0

# texcoords
vt 0.00976563 0.5
vt 0.0214844 0.5
vt 0.302734 0.5
vt 0.310547 0.5

# verts
v -17.5 0 -1
v -17.5 0 -2
v -17.5 0 -3
v -17.5 70 -1
v -17.5 70 -2
v -17.5 70 -3
v -16.5 1 -0
v -16.5 1 -1
v -16.5 18 -0
v -16.5 18 -1
v -16.5 20 -0
v -16.5 20 -1
v -16.5 21 3
v -16.5 21 -0
v -16.5 22 2
v -16.5 22 -0
v -16.5 28 2
v -16.5 28 -0
v -16.5 29 3
v -16.5 29 -0
v -16.5 69 -0
v -16.5 69 -1
v -15.5 18 -0
v -15.5 18 -2
v -15.5 19 -1
v -15.5 19 -2
v -15.5 20 -0
v -15.5 20 -1
v -2.5 3 -1
v -2.5 3 -2
v -2.5 3 -3
v -2.5 32 -1
v -2.5 32 -2
v -2.5 32 -3
v -2.5 34 -1
v -2.5 34 -2
v -2.5 34 -3
v -2.5 67 -1
v -2.5 67 -2
v -2.5 67 -3
v 14.5 3 -0
v 14.5 3 -2
v 14.5 3 -3
v 14.5 32 -1
v 14.5 32 -2
v 14.5 32 -3
v 14.5 34 -1
v 14.5 34 -2
v 14.5 34 -3
v 14.5 67 -0
v 14.5 67 -2
v 14.5 67 -3
v 16.5 11 1
v 16.5 11 -0
v 16.5 18 1
v 16.5 18 -0
v 16.5 54 1
v 16.5 54 -0
v 16.5 60 1
v 16.5 60 -0
v -16.5 18 -1
v -16.5 18 -2
v -16.5 19 -1
v -16.5 19 -2
v -15.5 21 3
v -15.5 21 -0
v -15.5 22 2
v -15.5 22 -0
v -15.5 28 2
v -15.5 28 -0
v -15.5 29 3
v -15.5 29 -0
v -14.5 3 -0
v -14.5 3 -2
v -14.5 3 -3
v -14.5 32 -1
v -14.5 32 -2
v -14.5 32 -3
v -14.5 34 -1
v -14.5 34 -2
v -14.5 34 -3
v -14.5 67 -0
v -14.5 67 -2
v -14.5 67 -3
v 0.5 3 -1
v 0.5 3 -2
v 0.5 3 -3
v 0.5 32 -1
v 0.5 32 -2
v 0.5 32 -3
v 0.5 34 -1
v 0.5 34 -2
v 0.5 34 -3
v 0.5 67 -1
v 0.5 67 -2
v 0.5 67 -3
v 16.5 1 -0
v 16.5 1 -1
v 16.5 11 -0
v 16.5 11 -1
v 16.5 18 -0
v 16.5 18 -1
v 16.5 54 -0
v 16.5 54 -1
v 16.5 60 -0
v 16.5 60 -1
v 16.5 69 -0
v 16.5 69 -1
v 17.5 0 -1
v 17.5 0 -2
v 17.5 0 -3
v 17.5 11 1
v 17.5 11 -1
v 17.5 11 -2
v 17.5 18 1
v 17.5 18 -1
v 17.5 18 -2
v 17.5 54 1
v 17.5 54 -1
v 17.5 54 -2
v 17.5 60 1
v 17.5 60 -1
v 17.5 60 -2
v 17.5 70 -1
v 17.5 70 -2
v 17.5 70 -3
v -16.5 21 3
v -16.5 29 3
v -15.5 21 3
v -15.5 29 3
v 16.5 11 1
v 16.5 18 1
v 16.5 54 1
v 16.5 60 1
v 17.5 11 1
v 17.5 18 1
v 17.5 54 1
v 17.5 60 1
v -16.5 1 -0
v -16.5 18 -0
v -16.5 20 -0
v -16.5 21 -0
v -16.5 22 -0
v -16.5 28 -0
v -16.5 29 -0
v -16.5 69 -0
v -15.5 18 -0
v -15.5 20 -0
v -15.5 21 -0
v -15.5 22 -0
v -15.5 28 -0
v -15.5 29 -0
v -14.5 3 -0
v -14.5 67 -0
v 14.5 3 -0
v 14.5 67 -0
v 16.5 1 -0
v 16.5 11 -0
v 16.5 18 -0
v 16.5 54 -0
v 16.5 60 -0
v 16.5 69 -0
v -17.5 0 -1
v -17.5 70 -1
v -16.5 1 -1
v -16.5 18 -1
v -16.5 19 -1
v -16.5 20 -1
v -16.5 69 -1
v -15.5 19 -1
v -15.5 20 -1
v -14.5 32 -1
v -14.5 34 -1
v -2.5 3 -1
v -2.5 32 -1
v -2.5 34 -1
v -2.5 67 -1
v 0.5 3 -1
v 0.5 32 -1
v 0.5 34 -1
v 0.5 67 -1
v 14.5 32 -1
v 14.5 34 -1
v 16.5 1 -1
v 16.5 11 -1
v 16.5 18 -1
v 16.5 54 -1
v 16.5 60 -1
v 16.5 69 -1
v 17.5 0 -1
v 17.5 11 -1
v 17.5 18 -1
v 17.5 54 -1
v 17.5 60 -1
v 17.5 70 -1
v -16.5 18 -2
v -16.5 19 -2
v -15.5 18 -2
v -15.5 19 -2
v -16.5 22 2
v -16.5 28 2
v -15.5 22 2
v -15.5 28 2
v -17.5 0 -3
v -17.5 70 -3
v -14.5 3 -3
v -14.5 32 -3
v -14.5 34 -3
v -14.5 67 -3
v -2.5 3 -3
v -2.5 32 -3
v -2.5 34 -3
v -2.5 67 -3
v 0.5 3 -3
v 0.5 32 -3
v 0.5 34 -3
v 0.5 67 -3
v 14.5 3 -3
v 14.5 32 -3
v 14.5 34 -3
v 14.5 67 -3
v 17.5 0 -3
v 17.5 70 -3
v -17.5 0 -1
v 17.5 0 -1
v -17.5 0 -2
v 17.5 0 -2
v -17.5 0 -3
v 17.5 0 -3
v -16.5 1 -0
v 16.5 1 -0
v -16.5 1 -1
v 16.5 1 -1
v 16.5 11 1
v 17.5 11 1
v 16.5 11 -0
v 16.5 11 -1
v 17.5 11 -1
v -16.5 19 -1
v -15.5 19 -1
v -16.5 19 -2
v -15.5 19 -2
v -16.5 20 -0
v -15.5 20 -0
v -16.5 20 -1
v -15.5 20 -1
v -16.5 21 3
v -15.5 21 3
v -16.5 21 -0
v -15.5 21 -0
v -16.5 28 2
v -15.5 28 2
v -16.5 28 -0
v -15.5 28 -0
v -14.5 32 -1
v -2.5 32 -1
v 0.5 32 -1
v 14.5 32 -1
v -14.5 32 -2
v -2.5 32 -2
v 0.5 32 -2
v 14.5 32 -2
v -14.5 32 -3
v -2.5 32 -3
v 0.5 32 -3
v 14.5 32 -3
v 16.5 54 1
v 17.5 54 1
v 16.5 54 -0
v 16.5 54 -1
v 17.5 54 -1
v -14.5 67 -0
v 14.5 67 -0
v -2.5 67 -1
v 0.5 67 -1
v -14.5 67 -2
v -2.5 67 -2
v 0.5 67 -2
v 14.5 67 -2
v -14.5 67 -3
v -2.5 67 -3
v 0.5 67 -3
v 14.5 67 -3
v -14.5 3 -0
v 14.5 3 -0
v -2.5 3 -1
v 0.5 3 -1
v -14.5 3 -2
v -2.5 3 -2
v 0.5 3 -2
v 14.5 3 -2
v -14.5 3 -3
v -2.5 3 -3
v 0.5 3 -3
v 14.5 3 -3
v 16.5 18 1
v 17.5 18 1
v -16.5 18 -0
v -15.5 18 -0
v 16.5 18 -0
v -16.5 18 -1
v 16.5 18 -1
v 17.5 18 -1
v -16.5 18 -2
v -15.5 18 -2
v -16.5 22 2
v -15.5 22 2
v -16.5 22 -0
v -15.5 22 -0
v -16.5 29 3
v -15.5 29 3
v -16.5 29 -0
v -15.5 29 -0
v -14.5 34 -1
v -2.5 34 -1
v 0.5 34 -1
v 14.5 34 -1
v -14.5 34 -2
v -2.5 34 -2
v 0.5 34 -2
v 14.5 34 -2
v -14.5 34 -3
v -2.5 34 -3
v 0.5 34 -3
v 14.5 34 -3
v 16.5 60 1
v 17.5 60 1
v 16.5 60 -0
v 16.5 60 -1
v 17.5 60 -1
v -16.5 69 -0
v 16.5 69 -0
v -16.5 69 -1
v 16.5 69 -1
v -17.5 70 -1
v 17.5 70 -1
v -17.5 70 -2
v 17.5 70 -2
v -17.5 70 -3
v 17.5 70 -3

# faces
f 4/3/1 2/3/1 1/3/1
f 5/4/1 3/4/1 2/4/1
f 5/3/1 2/3/1 4/3/1
f 6/4/1 3/4/1 5/4/1
f 9/3/1 8/3/1 7/3/1
f 10/3/1 8/3/1 9/3/1
f 14/3/1 12/3/1 11/3/1
f 15/2/1 14/2/1 13/2/1
f 16/3/1 12/3/1 14/3/1
f 16/2/1 14/2/1 15/2/1
f 17/2/1 15/2/1 13/2/1
f 18/3/1 12/3/1 16/3/1
f 19/2/1 17/2/1 13/2/1
f 19/2/1 18/2/1 17/2/1
f 20/3/1 12/3/1 18/3/1
f 20/2/1 18/2/1 19/2/1
f 21/3/1 12/3/1 20/3/1
f 22/3/1 12/3/1 21/3/1
f 25/3/1 24/3/1 23/3/1
f 26/3/1 24/3/1 25/3/1
f 27/3/1 25/3/1 23/3/1
f 28/3/1 25/3/1 27/3/1
f 32/3/1 30/3/1 29/3/1
f 33/4/1 31/4/1 30/4/1
f 33/3/1 30/3/1 32/3/1
f 34/4/1 31/4/1 33/4/1
f 38/3/1 36/3/1 35/3/1
f 39/4/1 37/4/1 36/4/1
f 39/3/1 36/3/1 38/3/1
f 40/4/1 37/4/1 39/4/1
f 44/3/1 42/3/1 41/3/1
f 45/4/1 43/4/1 42/4/1
f 45/3/1 42/3/1 44/3/1
f 46/4/1 43/4/1 45/4/1
f 47/3/1 44/3/1 41/3/1
f 50/3/1 47/3/1 41/3/1
f 50/3/1 48/3/1 47/3/1
f 51/4/1 49/4/1 48/4/1
f 51/3/1 48/3/1 50/3/1
f 52/4/1 49/4/1 51/4/1
f 55/2/1 54/2/1 53/2/1
f 56/2/1 54/2/1 55/2/1
f 59/2/1 58/2/1 57/2/1
f 60/2/1 58/2/1 59/2/1
f 61/3/2 62/3/2 63/3/2
f 63/3/2 62/3/2 64/3/2
f 65/2/2 66/2/2 67/2/2
f 67/2/2 66/2/2 68/2/2
f 65/2/2 67/2/2 69/2/2
f 65/2/2 69/2/2 71/2/2
f 69/2/2 70/2/2 71/2/2
f 71/2/2 70/2/2 72/2/2
f 73/3/2 74/3/2 76/3/2
f 74/4/2 75/4/2 77/4/2
f 76/3/2 74/3/2 77/3/2
f 77/4/2 75/4/2 78/4/2
f 73/3/2 76/3/2 79/3/2
f 73/3/2 79/3/2 82/3/2
f 79/3/2 80/3/2 82/3/2
f 80/4/2 81/4/2 83/4/2
f 82/3/2 80/3/2 83/3/2
f 83/4/2 81/4/2 84/4/2
f 85/3/2 86/3/2 88/3/2
f 86/4/2 87/4/2 89/4/2
f 88/3/2 86/3/2 89/3/2
f 89/4/2 87/4/2 90/4/2
f 91/3/2 92/3/2 94/3/2
f 92/4/2 93/4/2 95/4/2
f 94/3/2 92/3/2 95/3/2
f 95/4/2 93/4/2 96/4/2
f 97/3/2 98/3/2 99/3/2
f 99/3/2 98/3/2 100/3/2
f 101/3/2 102/3/2 103/3/2
f 103/3/2 102/3/2 104/3/2
f 105/3/2 106/3/2 107/3/2
f 107/3/2 106/3/2 108/3/2
f 109/3/2 110/3/2 113/3/2
f 110/4/2 111/4/2 114/4/2
f 113/3/2 110/3/2 114/3/2
f 112/2/2 113/2/2 115/2/2
f 113/1/2 114/1/2 116/1/2
f 115/2/2 113/2/2 116/2/2
f 114/4/2 111/4/2 117/4/2
f 116/1/2 114/1/2 117/1/2
f 116/3/2 117/3/2 119/3/2
f 117/4/2 111/4/2 120/4/2
f 119/3/2 117/3/2 120/3/2
f 118/2/2 119/2/2 121/2/2
f 119/1/2 120/1/2 122/1/2
f 121/2/2 119/2/2 122/2/2
f 120/4/2 111/4/2 123/4/2
f 122/1/2 120/1/2 123/1/2
f 122/3/2 123/3/2 124/3/2
f 123/4/2 111/4/2 125/4/2
f 124/3/2 123/3/2 125/3/2
f 125/4/2 111/4/2 126/4/2
f 129/2/3 128/2/3 127/2/3
f 130/2/3 128/2/3 129/2/3
f 135/2/3 132/2/3 131/2/3
f 136/2/3 132/2/3 135/2/3
f 137/2/3 134/2/3 133/2/3
f 138/2/3 134/2/3 137/2/3
f 147/3/3 140/3/3 139/3/3
f 148/3/3 142/3/3 141/3/3
f 149/3/3 142/3/3 148/3/3
f 150/3/3 144/3/3 143/3/3
f 151/3/3 144/3/3 150/3/3
f 152/3/3 146/3/3 145/3/3
f 153/3/3 151/3/3 150/3/3
f 153/3/3 152/3/3 151/3/3
f 153/3/3 147/3/3 139/3/3
f 153/3/3 149/3/3 148/3/3
f 153/3/3 150/3/3 149/3/3
f 153/3/3 148/3/3 147/3/3
f 154/3/3 146/3/3 152/3/3
f 154/3/3 152/3/3 153/3/3
f 155/3/3 153/3/3 139/3/3
f 156/3/3 146/3/3 154/3/3
f 157/3/3 155/3/3 139/3/3
f 157/3/3 156/3/3 155/3/3
f 158/3/3 156/3/3 157/3/3
f 159/3/3 156/3/3 158/3/3
f 160/3/3 156/3/3 159/3/3
f 161/3/3 156/3/3 160/3/3
f 162/3/3 146/3/3 156/3/3
f 162/3/3 156/3/3 161/3/3
f 165/3/3 164/3/3 163/3/3
f 166/3/3 164/3/3 165/3/3
f 167/3/3 164/3/3 166/3/3
f 168/3/3 164/3/3 167/3/3
f 169/3/3 164/3/3 168/3/3
f 170/1/3 168/1/3 167/1/3
f 171/1/3 168/1/3 170/1/3
f 175/3/3 173/3/3 172/3/3
f 176/3/3 173/3/3 175/3/3
f 178/3/3 175/3/3 174/3/3
f 178/3/3 177/3/3 176/3/3
f 178/3/3 176/3/3 175/3/3
f 179/3/3 177/3/3 178/3/3
f 180/3/3 177/3/3 179/3/3
f 181/3/3 177/3/3 180/3/3
f 182/3/3 180/3/3 179/3/3
f 183/3/3 180/3/3 182/3/3
f 184/3/3 165/3/3 163/3/3
f 189/3/3 164/3/3 169/3/3
f 190/3/3 185/3/3 184/3/3
f 190/3/3 184/3/3 163/3/3
f 191/3/3 185/3/3 190/3/3
f 192/3/3 187/3/3 186/3/3
f 193/3/3 187/3/3 192/3/3
f 194/3/3 189/3/3 188/3/3
f 195/3/3 164/3/3 189/3/3
f 195/3/3 189/3/3 194/3/3
f 198/4/3 197/4/3 196/4/3
f 199/4/3 197/4/3 198/4/3
f 200/2/4 201/2/4 202/2/4
f 202/2/4 201/2/4 203/2/4
f 204/4/4 205/4/4 206/4/4
f 206/4/4 205/4/4 207/4/4
f 207/4/4 205/4/4 208/4/4
f 208/4/4 205/4/4 209/4/4
f 204/4/4 206/4/4 210/4/4
f 207/4/4 208/4/4 211/4/4
f 211/4/4 208/4/4 212/4/4
f 209/4/4 205/4/4 213/4/4
f 211/4/4 212/4/4 214/4/4
f 212/4/4 213/4/4 214/4/4
f 204/4/4 210/4/4 214/4/4
f 210/4/4 211/4/4 214/4/4
f 214/4/4 213/4/4 215/4/4
f 215/4/4 213/4/4 216/4/4
f 213/4/4 205/4/4 217/4/4
f 216/4/4 213/4/4 217/4/4
f 204/4/4 214/4/4 218/4/4
f 215/4/4 216/4/4 219/4/4
f 219/4/4 216/4/4 220/4/4
f 217/4/4 205/4/4 221/4/4
f 204/4/4 218/4/4 222/4/4
f 220/4/4 221/4/4 222/4/4
f 219/4/4 220/4/4 222/4/4
f 218/4/4 219/4/4 222/4/4
f 221/4/4 205/4/4 223/4/4
f 222/4/4 221/4/4 223/4/4
f 226/3/5 225/3/5 224/3/5
f 227/3/5 225/3/5 226/3/5
f 228/4/5 227/4/5 226/4/5
f 229/4/5 227/4/5 228/4/5
f 232/3/5 231/3/5 230/3/5
f 233/3/5 231/3/5 232/3/5
f 236/2/5 235/2/5 234/2/5
f 237/2/5 235/2/5 236/2/5
f 238/2/5 235/2/5 237/2/5
f 241/1/5 240/1/5 239/1/5
f 242/1/5 240/1/5 241/1/5
f 245/3/5 244/3/5 243/3/5
f 246/3/5 244/3/5 245/3/5
f 249/2/5 248/2/5 247/2/5
f 250/2/5 248/2/5 249/2/5
f 253/2/5 252/2/5 251/2/5
f 254/2/5 252/2/5 253/2/5
f 259/3/5 256/3/5 255/3/5
f 260/3/5 256/3/5 259/3/5
f 261/3/5 258/3/5 257/3/5
f 262/3/5 258/3/5 261/3/5
f 263/4/5 260/4/5 259/4/5
f 264/4/5 260/4/5 263/4/5
f 265/4/5 262/4/5 261/4/5
f 266/4/5 262/4/5 265/4/5
f 269/2/5 268/2/5 267/2/5
f 270/2/5 268/2/5 269/2/5
f 271/2/5 268/2/5 270/2/5
f 274/3/5 273/3/5 272/3/5
f 275/3/5 273/3/5 274/3/5
f 276/3/5 274/3/5 272/3/5
f 277/3/5 274/3/5 276/3/5
f 278/3/5 273/3/5 275/3/5
f 279/3/5 273/3/5 278/3/5
f 280/4/5 277/4/5 276/4/5
f 281/4/5 277/4/5 280/4/5
f 282/4/5 279/4/5 278/4/5
f 283/4/5 279/4/5 282/4/5
f 284/3/6 285/3/6 286/3/6
f 286/3/6 285/3/6 287/3/6
f 284/3/6 286/3/6 288/3/6
f 288/3/6 286/3/6 289/3/6
f 287/3/6 285/3/6 290/3/6
f 290/3/6 285/3/6 291/3/6
f 288/4/6 289/4/6 292/4/6
f 292/4/6 289/4/6 293/4/6
f 290/4/6 291/4/6 294/4/6
f 294/4/6 291/4/6 295/4/6
f 296/2/6 297/2/6 300/2/6
f 298/3/6 299/3/6 301/3/6
f 300/2/6 297/2/6 302/2/6
f 302/2/6 297/2/6 303/2/6
f 301/3/6 299/3/6 304/3/6
f 304/3/6 299/3/6 305/3/6
f 306/2/6 307/2/6 308/2/6
f 308/2/6 307/2/6 309/2/6
f 310/2/6 311/2/6 312/2/6
f 312/2/6 311/2/6 313/2/6
f 314/3/6 315/3/6 318/3/6
f 318/3/6 315/3/6 319/3/6
f 316/3/6 317/3/6 320/3/6
f 320/3/6 317/3/6 321/3/6
f 318/4/6 319/4/6 322/4/6
f 322/4/6 319/4/6 323/4/6
f 320/4/6 321/4/6 324/4/6
f 324/4/6 321/4/6 325/4/6
f 326/2/6 327/2/6 328/2/6
f 328/2/6 327/2/6 329/2/6
f 329/2/6 327/2/6 330/2/6
f 331/3/6 332/3/6 333/3/6
f 333/3/6 332/3/6 334/3/6
f 335/3/6 336/3/6 337/3/6
f 337/3/6 336/3/6 338/3/6
f 337/4/6 338/4/6 339/4/6
f 339/4/6 338/4/6 340/4/6
