# MagicaVoxel @ Ephtracy

# material
mtllib interupteur_socle.mtl
usemtl palette

# normals
vn -1 0 0
vn 1 0 0
vn 0 0 1
vn 0 0 -1
vn 0 -1 0
vn 0 1 0

# texcoords
vt 0.0136719 0.5
vt 0.248047 0.5

# verts
v -1 0 7.5
v -1 0 -7.5
v -1 14 2.5
v -1 14 -2.5
v -1 15 2.5
v -1 15 -2.5
v -1 28 7.5
v -1 28 -7.5
v 0 0 7.5
v 0 0 -7.5
v 0 1 6.5
v 0 1 -6.5
v 0 14 2.5
v 0 14 -2.5
v 0 15 2.5
v 0 15 -2.5
v 0 27 6.5
v 0 27 -6.5
v 0 28 7.5
v 0 28 -7.5
v 1 1 6.5
v 1 1 -6.5
v 1 12 2.5
v 1 12 -2.5
v 1 14 2.5
v 1 14 -2.5
v 1 15 2.5
v 1 15 -2.5
v 1 17 2.5
v 1 17 -2.5
v 1 27 6.5
v 1 27 -6.5
v -1 0 7.5
v -1 28 7.5
v 0 0 7.5
v 0 28 7.5
v 0 1 6.5
v 0 27 6.5
v 1 1 6.5
v 1 27 6.5
v 0 14 -2.5
v 0 15 -2.5
v 1 14 -2.5
v 1 15 -2.5
v 0 14 2.5
v 0 15 2.5
v 1 14 2.5
v 1 15 2.5
v 0 1 -6.5
v 0 27 -6.5
v 1 1 -6.5
v 1 27 -6.5
v -1 0 -7.5
v -1 28 -7.5
v 0 0 -7.5
v 0 28 -7.5
v -1 0 7.5
v 0 0 7.5
v -1 0 -7.5
v 0 0 -7.5
v 0 1 6.5
v 1 1 6.5
v 0 1 -6.5
v 1 1 -6.5
v 0 15 2.5
v 1 15 2.5
v 0 15 -2.5
v 1 15 -2.5
v 0 14 2.5
v 1 14 2.5
v 0 14 -2.5
v 1 14 -2.5
v 0 27 6.5
v 1 27 6.5
v 0 27 -6.5
v 1 27 -6.5
v -1 28 7.5
v 0 28 7.5
v -1 28 -7.5
v 0 28 -7.5

# faces
f 3/2/1 2/2/1 1/2/1
f 4/2/1 2/2/1 3/2/1
f 5/2/1 3/2/1 1/2/1
f 5/1/1 4/1/1 3/1/1
f 6/2/1 2/2/1 4/2/1
f 6/1/1 4/1/1 5/1/1
f 7/2/1 5/2/1 1/2/1
f 7/2/1 6/2/1 5/2/1
f 8/2/1 2/2/1 6/2/1
f 8/2/1 6/2/1 7/2/1
f 9/2/2 10/2/2 11/2/2
f 11/2/2 10/2/2 12/2/2
f 13/1/2 14/1/2 15/1/2
f 15/1/2 14/1/2 16/1/2
f 9/2/2 11/2/2 17/2/2
f 12/2/2 10/2/2 18/2/2
f 9/2/2 17/2/2 19/2/2
f 17/2/2 18/2/2 19/2/2
f 18/2/2 10/2/2 20/2/2
f 19/2/2 18/2/2 20/2/2
f 21/2/2 22/2/2 23/2/2
f 23/2/2 22/2/2 24/2/2
f 21/2/2 23/2/2 25/2/2
f 23/1/2 24/1/2 25/1/2
f 24/2/2 22/2/2 26/2/2
f 25/1/2 24/1/2 26/1/2
f 21/2/2 25/2/2 27/2/2
f 26/2/2 22/2/2 28/2/2
f 21/2/2 27/2/2 29/2/2
f 27/1/2 28/1/2 29/1/2
f 28/2/2 22/2/2 30/2/2
f 29/1/2 28/1/2 30/1/2
f 21/2/2 29/2/2 31/2/2
f 29/2/2 30/2/2 31/2/2
f 30/2/2 22/2/2 32/2/2
f 31/2/2 30/2/2 32/2/2
f 35/2/3 34/2/3 33/2/3
f 36/2/3 34/2/3 35/2/3
f 39/2/3 38/2/3 37/2/3
f 40/2/3 38/2/3 39/2/3
f 43/2/3 42/2/3 41/2/3
f 44/2/3 42/2/3 43/2/3
f 45/2/4 46/2/4 47/2/4
f 47/2/4 46/2/4 48/2/4
f 49/2/4 50/2/4 51/2/4
f 51/2/4 50/2/4 52/2/4
f 53/2/4 54/2/4 55/2/4
f 55/2/4 54/2/4 56/2/4
f 59/2/5 58/2/5 57/2/5
f 60/2/5 58/2/5 59/2/5
f 63/2/5 62/2/5 61/2/5
f 64/2/5 62/2/5 63/2/5
f 67/1/5 66/1/5 65/1/5
f 68/1/5 66/1/5 67/1/5
f 69/1/6 70/1/6 71/1/6
f 71/1/6 70/1/6 72/1/6
f 73/2/6 74/2/6 75/2/6
f 75/2/6 74/2/6 76/2/6
f 77/2/6 78/2/6 79/2/6
f 79/2/6 78/2/6 80/2/6
