# MagicaVoxel @ Ephtracy

# material
mtllib mur_plancher_porte.mtl
usemtl palette

# normals
vn -1 0 0
vn 1 0 0
vn 0 0 1
vn 0 0 -1
vn 0 -1 0
vn 0 1 0

# texcoords
vt 0.337891 0.5
vt 0.369141 0.5
vt 0.755859 0.5
vt 0.958984 0.5
vt 0.962891 0.5

# verts
v -50 0 -46
v -50 0 -47
v -50 0 -49
v -50 0 -50
v -50 7 -46
v -50 7 -47
v -50 9 -46
v -50 9 -48
v -50 10 -46
v -50 10 -48
v -50 14 -46
v -50 14 -47
v -50 15 -47
v -50 15 -48
v -50 18 -48
v -50 18 -49
v -50 67 -49
v -50 67 -50
v -50 73 -49
v -50 73 -50
v -50 90 -49
v -50 90 -50
v -50 100 -49
v -50 100 -50
v -40 18 -48
v -40 18 -49
v -40 66 -49
v -40 71 -49
v -40 84 -49
v -40 86 -49
v -40 89 -49
v -40 100 -48
v -40 100 -49
v -35 15 -47
v -35 15 -48
v -35 100 -47
v -35 100 -48
v -34 14 -46
v -34 14 -47
v -34 100 -46
v -34 100 -47
v 32 0 -46
v 32 0 -50
v 32 9 -46
v 32 9 -48
v 32 10 -46
v 32 10 -48
v 32 100 -46
v 32 100 -50
v -31 0 -46
v -31 0 -50
v -31 9 -46
v -31 9 -48
v -31 10 -46
v -31 10 -48
v -31 100 -46
v -31 100 -50
v 35 14 -46
v 35 14 -47
v 35 100 -46
v 35 100 -47
v 36 15 -47
v 36 15 -48
v 36 100 -47
v 36 100 -48
v 41 18 -48
v 41 18 -49
v 41 68 -49
v 41 75 -49
v 41 89 -49
v 41 90 -49
v 41 93 -49
v 41 100 -48
v 41 100 -49
v 50 0 -46
v 50 0 -47
v 50 0 -49
v 50 0 -50
v 50 7 -46
v 50 7 -47
v 50 9 -46
v 50 9 -48
v 50 10 -46
v 50 10 -48
v 50 14 -46
v 50 14 -47
v 50 15 -47
v 50 15 -48
v 50 18 -48
v 50 18 -49
v 50 67 -49
v 50 67 -50
v 50 72 -49
v 50 72 -50
v 50 89 -49
v 50 89 -50
v 50 100 -49
v 50 100 -50
v -50 0 -46
v -50 7 -46
v -50 9 -46
v -50 10 -46
v -50 14 -46
v -38 0 -46
v -38 7 -46
v -34 14 -46
v -34 100 -46
v -31 0 -46
v -31 9 -46
v -31 10 -46
v -31 100 -46
v 32 0 -46
v 32 9 -46
v 32 10 -46
v 32 100 -46
v 35 14 -46
v 35 100 -46
v 39 0 -46
v 39 7 -46
v 50 0 -46
v 50 7 -46
v 50 9 -46
v 50 10 -46
v 50 14 -46
v -50 14 -47
v -50 15 -47
v -35 15 -47
v -35 100 -47
v -34 14 -47
v -34 100 -47
v 35 14 -47
v 35 100 -47
v 36 15 -47
v 36 100 -47
v 50 14 -47
v 50 15 -47
v -50 9 -48
v -50 10 -48
v -50 15 -48
v -50 18 -48
v -40 18 -48
v -40 100 -48
v -35 15 -48
v -35 100 -48
v -31 9 -48
v -31 10 -48
v 32 9 -48
v 32 10 -48
v 36 15 -48
v 36 100 -48
v 41 18 -48
v 41 100 -48
v 50 9 -48
v 50 10 -48
v 50 15 -48
v 50 18 -48
v -50 18 -49
v -50 67 -49
v -50 73 -49
v -50 90 -49
v -50 100 -49
v -49 67 -49
v -49 68 -49
v -49 73 -49
v -49 74 -49
v -48 68 -49
v -48 69 -49
v -48 90 -49
v -48 91 -49
v -47 68 -49
v -47 69 -49
v -47 73 -49
v -47 74 -49
v -46 67 -49
v -46 68 -49
v -46 72 -49
v -46 73 -49
v -46 88 -49
v -46 89 -49
v -44 66 -49
v -44 67 -49
v -44 71 -49
v -44 72 -49
v -44 87 -49
v -44 88 -49
v -44 89 -49
v -43 90 -49
v -43 91 -49
v -42 86 -49
v -42 87 -49
v -42 88 -49
v -41 84 -49
v -41 86 -49
v -41 87 -49
v -41 89 -49
v -41 90 -49
v -40 18 -49
v -40 66 -49
v -40 71 -49
v -40 84 -49
v -40 86 -49
v -40 89 -49
v -40 100 -49
v 41 18 -49
v 41 68 -49
v 41 75 -49
v 41 89 -49
v 41 90 -49
v 41 93 -49
v 41 100 -49
v 42 67 -49
v 42 68 -49
v 42 73 -49
v 42 75 -49
v 42 89 -49
v 42 90 -49
v 42 91 -49
v 43 72 -49
v 43 73 -49
v 44 66 -49
v 44 67 -49
v 44 89 -49
v 44 90 -49
v 44 91 -49
v 45 39 -49
v 45 40 -49
v 45 71 -49
v 45 72 -49
v 45 89 -49
v 45 90 -49
v 46 38 -49
v 46 39 -49
v 46 40 -49
v 46 41 -49
v 46 92 -49
v 46 93 -49
v 47 38 -49
v 47 39 -49
v 47 40 -49
v 47 41 -49
v 48 39 -49
v 48 40 -49
v 48 91 -49
v 48 92 -49
v 49 66 -49
v 49 67 -49
v 49 71 -49
v 49 72 -49
v 49 89 -49
v 49 91 -49
v 50 18 -49
v 50 67 -49
v 50 72 -49
v 50 89 -49
v 50 100 -49
v -50 0 -50
v -50 67 -50
v -50 73 -50
v -50 90 -50
v -50 100 -50
v -49 67 -50
v -49 68 -50
v -49 73 -50
v -49 74 -50
v -48 68 -50
v -48 69 -50
v -48 90 -50
v -48 91 -50
v -47 68 -50
v -47 69 -50
v -47 73 -50
v -47 74 -50
v -46 67 -50
v -46 68 -50
v -46 72 -50
v -46 73 -50
v -46 88 -50
v -46 89 -50
v -44 66 -50
v -44 67 -50
v -44 71 -50
v -44 72 -50
v -44 87 -50
v -44 88 -50
v -44 89 -50
v -43 90 -50
v -43 91 -50
v -42 86 -50
v -42 87 -50
v -42 88 -50
v -41 84 -50
v -41 86 -50
v -41 87 -50
v -41 89 -50
v -41 90 -50
v -40 84 -50
v -40 86 -50
v -39 0 -50
v -39 66 -50
v -39 71 -50
v -39 89 -50
v -39 100 -50
v -31 0 -50
v -31 100 -50
v 32 0 -50
v 32 100 -50
v 40 0 -50
v 40 66 -50
v 40 71 -50
v 40 89 -50
v 40 100 -50
v 41 66 -50
v 41 68 -50
v 41 71 -50
v 41 75 -50
v 41 89 -50
v 41 90 -50
v 41 93 -50
v 42 67 -50
v 42 68 -50
v 42 73 -50
v 42 75 -50
v 42 89 -50
v 42 90 -50
v 42 91 -50
v 43 72 -50
v 43 73 -50
v 44 66 -50
v 44 67 -50
v 44 89 -50
v 44 90 -50
v 44 91 -50
v 45 7 -50
v 45 8 -50
v 45 39 -50
v 45 40 -50
v 45 71 -50
v 45 72 -50
v 45 89 -50
v 45 90 -50
v 46 6 -50
v 46 7 -50
v 46 8 -50
v 46 9 -50
v 46 38 -50
v 46 39 -50
v 46 40 -50
v 46 41 -50
v 46 92 -50
v 46 93 -50
v 47 6 -50
v 47 7 -50
v 47 8 -50
v 47 9 -50
v 47 38 -50
v 47 39 -50
v 47 40 -50
v 47 41 -50
v 48 7 -50
v 48 8 -50
v 48 39 -50
v 48 40 -50
v 48 91 -50
v 48 92 -50
v 49 66 -50
v 49 67 -50
v 49 71 -50
v 49 72 -50
v 49 89 -50
v 49 91 -50
v 50 0 -50
v 50 67 -50
v 50 72 -50
v 50 89 -50
v 50 100 -50
v -50 0 -46
v -38 0 -46
v -31 0 -46
v 32 0 -46
v 39 0 -46
v 50 0 -46
v -50 0 -47
v -38 0 -47
v 39 0 -47
v 50 0 -47
v -50 0 -49
v -39 0 -49
v 40 0 -49
v 50 0 -49
v -50 0 -50
v -39 0 -50
v -31 0 -50
v 32 0 -50
v 40 0 -50
v 50 0 -50
v -50 10 -46
v -31 10 -46
v 32 10 -46
v 50 10 -46
v -50 10 -48
v -31 10 -48
v 32 10 -48
v 50 10 -48
v -50 9 -46
v -31 9 -46
v 32 9 -46
v 50 9 -46
v -50 9 -48
v -31 9 -48
v 32 9 -48
v 50 9 -48
v -50 14 -46
v -34 14 -46
v 35 14 -46
v 50 14 -46
v -50 14 -47
v -34 14 -47
v 35 14 -47
v 50 14 -47
v -50 15 -47
v -35 15 -47
v 36 15 -47
v 50 15 -47
v -50 15 -48
v -35 15 -48
v 36 15 -48
v 50 15 -48
v -50 18 -48
v -40 18 -48
v 41 18 -48
v 50 18 -48
v -50 18 -49
v -40 18 -49
v 41 18 -49
v 50 18 -49
v -34 100 -46
v -31 100 -46
v 32 100 -46
v 35 100 -46
v -35 100 -47
v -34 100 -47
v 35 100 -47
v 36 100 -47
v -40 100 -48
v -35 100 -48
v 36 100 -48
v 41 100 -48
v -50 100 -49
v -40 100 -49
v -39 100 -49
v 40 100 -49
v 41 100 -49
v 50 100 -49
v -50 100 -50
v -39 100 -50
v -31 100 -50
v 32 100 -50
v 40 100 -50
v 50 100 -50

# faces
f 5/1/1 2/1/1 1/1/1
f 6/2/1 3/2/1 2/2/1
f 6/1/1 2/1/1 5/1/1
f 7/2/1 6/2/1 5/2/1
f 8/2/1 3/2/1 6/2/1
f 8/2/1 6/2/1 7/2/1
f 10/2/1 3/2/1 8/2/1
f 11/2/1 10/2/1 9/2/1
f 12/2/1 10/2/1 11/2/1
f 13/2/1 10/2/1 12/2/1
f 14/2/1 3/2/1 10/2/1
f 14/2/1 10/2/1 13/2/1
f 15/2/1 3/2/1 14/2/1
f 16/3/1 4/3/1 3/3/1
f 16/2/1 3/2/1 15/2/1
f 17/3/1 4/3/1 16/3/1
f 18/3/1 4/3/1 17/3/1
f 19/4/1 18/4/1 17/4/1
f 20/4/1 18/4/1 19/4/1
f 21/5/1 20/5/1 19/5/1
f 22/5/1 20/5/1 21/5/1
f 23/3/1 22/3/1 21/3/1
f 24/3/1 22/3/1 23/3/1
f 27/2/1 26/2/1 25/2/1
f 28/2/1 27/2/1 25/2/1
f 29/2/1 28/2/1 25/2/1
f 30/2/1 29/2/1 25/2/1
f 31/2/1 30/2/1 25/2/1
f 32/2/1 31/2/1 25/2/1
f 33/2/1 31/2/1 32/2/1
f 36/2/1 35/2/1 34/2/1
f 37/2/1 35/2/1 36/2/1
f 40/2/1 39/2/1 38/2/1
f 41/2/1 39/2/1 40/2/1
f 44/2/1 43/2/1 42/2/1
f 45/2/1 43/2/1 44/2/1
f 47/2/1 43/2/1 45/2/1
f 48/2/1 47/2/1 46/2/1
f 49/2/1 43/2/1 47/2/1
f 49/2/1 47/2/1 48/2/1
f 50/2/2 51/2/2 52/2/2
f 52/2/2 51/2/2 53/2/2
f 53/2/2 51/2/2 55/2/2
f 54/2/2 55/2/2 56/2/2
f 55/2/2 51/2/2 57/2/2
f 56/2/2 55/2/2 57/2/2
f 58/2/2 59/2/2 60/2/2
f 60/2/2 59/2/2 61/2/2
f 62/2/2 63/2/2 64/2/2
f 64/2/2 63/2/2 65/2/2
f 66/2/2 67/2/2 68/2/2
f 66/2/2 68/2/2 69/2/2
f 66/2/2 69/2/2 70/2/2
f 66/2/2 70/2/2 71/2/2
f 66/2/2 71/2/2 72/2/2
f 66/2/2 72/2/2 73/2/2
f 73/2/2 72/2/2 74/2/2
f 75/1/2 76/1/2 79/1/2
f 76/2/2 77/2/2 80/2/2
f 79/1/2 76/1/2 80/1/2
f 79/2/2 80/2/2 81/2/2
f 80/2/2 77/2/2 82/2/2
f 81/2/2 80/2/2 82/2/2
f 82/2/2 77/2/2 84/2/2
f 83/2/2 84/2/2 85/2/2
f 85/2/2 84/2/2 86/2/2
f 86/2/2 84/2/2 87/2/2
f 84/2/2 77/2/2 88/2/2
f 87/2/2 84/2/2 88/2/2
f 88/2/2 77/2/2 89/2/2
f 77/3/2 78/3/2 90/3/2
f 89/2/2 77/2/2 90/2/2
f 90/3/2 78/3/2 91/3/2
f 91/3/2 78/3/2 92/3/2
f 91/4/2 92/4/2 93/4/2
f 93/4/2 92/4/2 94/4/2
f 93/5/2 94/5/2 95/5/2
f 95/5/2 94/5/2 96/5/2
f 95/3/2 96/3/2 97/3/2
f 97/3/2 96/3/2 98/3/2
f 104/1/3 100/1/3 99/1/3
f 105/2/3 101/2/3 100/2/3
f 105/1/3 100/1/3 104/1/3
f 106/2/3 103/2/3 102/2/3
f 108/2/3 105/2/3 104/2/3
f 109/2/3 101/2/3 105/2/3
f 109/2/3 105/2/3 108/2/3
f 110/2/3 107/2/3 106/2/3
f 110/2/3 106/2/3 102/2/3
f 111/2/3 107/2/3 110/2/3
f 116/2/3 115/2/3 114/2/3
f 117/2/3 115/2/3 116/2/3
f 118/2/3 113/2/3 112/2/3
f 119/2/3 113/2/3 118/2/3
f 120/1/3 119/1/3 118/1/3
f 121/2/3 113/2/3 119/2/3
f 121/1/3 119/1/3 120/1/3
f 122/2/3 113/2/3 121/2/3
f 123/2/3 116/2/3 114/2/3
f 124/2/3 116/2/3 123/2/3
f 127/2/3 126/2/3 125/2/3
f 129/2/3 127/2/3 125/2/3
f 129/2/3 128/2/3 127/2/3
f 130/2/3 128/2/3 129/2/3
f 133/2/3 132/2/3 131/2/3
f 134/2/3 132/2/3 133/2/3
f 135/2/3 133/2/3 131/2/3
f 136/2/3 133/2/3 135/2/3
f 141/2/3 140/2/3 139/2/3
f 143/2/3 141/2/3 139/2/3
f 143/2/3 142/2/3 141/2/3
f 144/2/3 142/2/3 143/2/3
f 145/2/3 138/2/3 137/2/3
f 146/2/3 138/2/3 145/2/3
f 151/2/3 150/2/3 149/2/3
f 152/2/3 150/2/3 151/2/3
f 153/2/3 148/2/3 147/2/3
f 154/2/3 148/2/3 153/2/3
f 155/2/3 151/2/3 149/2/3
f 156/2/3 151/2/3 155/2/3
f 162/3/3 158/3/3 157/3/3
f 162/4/3 159/4/3 158/4/3
f 163/4/3 159/4/3 162/4/3
f 164/5/3 160/5/3 159/5/3
f 164/4/3 159/4/3 163/4/3
f 165/5/3 160/5/3 164/5/3
f 166/3/3 163/3/3 162/3/3
f 166/4/3 164/4/3 163/4/3
f 166/4/3 165/4/3 164/4/3
f 167/4/3 165/4/3 166/4/3
f 168/3/3 161/3/3 160/3/3
f 168/5/3 160/5/3 165/5/3
f 169/3/3 161/3/3 168/3/3
f 170/3/3 167/3/3 166/3/3
f 170/3/3 166/3/3 162/3/3
f 171/4/3 165/4/3 167/4/3
f 171/3/3 167/3/3 170/3/3
f 172/4/3 165/4/3 171/4/3
f 173/5/3 169/5/3 168/5/3
f 173/4/3 165/4/3 172/4/3
f 173/5/3 168/5/3 165/5/3
f 174/3/3 170/3/3 162/3/3
f 174/3/3 162/3/3 157/3/3
f 175/4/3 172/4/3 171/4/3
f 175/3/3 170/3/3 174/3/3
f 175/4/3 171/4/3 170/4/3
f 176/4/3 172/4/3 175/4/3
f 177/5/3 173/5/3 172/5/3
f 177/4/3 172/4/3 176/4/3
f 178/5/3 169/5/3 173/5/3
f 178/5/3 173/5/3 177/5/3
f 179/5/3 169/5/3 178/5/3
f 180/3/3 174/3/3 157/3/3
f 181/4/3 176/4/3 175/4/3
f 181/3/3 174/3/3 180/3/3
f 181/4/3 175/4/3 174/4/3
f 182/4/3 176/4/3 181/4/3
f 183/5/3 177/5/3 176/5/3
f 183/4/3 176/4/3 182/4/3
f 183/5/3 178/5/3 177/5/3
f 184/5/3 178/5/3 183/5/3
f 185/4/3 179/4/3 178/4/3
f 185/5/3 178/5/3 184/5/3
f 186/5/3 169/5/3 179/5/3
f 186/4/3 179/4/3 185/4/3
f 187/5/3 186/5/3 185/5/3
f 187/5/3 169/5/3 186/5/3
f 188/3/3 161/3/3 169/3/3
f 188/5/3 169/5/3 187/5/3
f 189/5/3 184/5/3 183/5/3
f 189/5/3 183/5/3 182/5/3
f 190/4/3 185/4/3 184/4/3
f 190/5/3 184/5/3 189/5/3
f 191/5/3 187/5/3 185/5/3
f 191/4/3 185/4/3 190/4/3
f 192/5/3 189/5/3 182/5/3
f 193/4/3 190/4/3 189/4/3
f 193/5/3 189/5/3 192/5/3
f 194/5/3 191/5/3 190/5/3
f 194/4/3 190/4/3 193/4/3
f 195/5/3 187/5/3 191/5/3
f 195/5/3 191/5/3 194/5/3
f 196/3/3 188/3/3 187/3/3
f 196/5/3 187/5/3 195/5/3
f 197/3/3 180/3/3 157/3/3
f 198/4/3 182/4/3 181/4/3
f 198/3/3 180/3/3 197/3/3
f 198/4/3 181/4/3 180/4/3
f 199/5/3 192/5/3 182/5/3
f 199/4/3 182/4/3 198/4/3
f 200/4/3 193/4/3 192/4/3
f 200/5/3 192/5/3 199/5/3
f 201/5/3 194/5/3 193/5/3
f 201/4/3 193/4/3 200/4/3
f 201/5/3 195/5/3 194/5/3
f 202/3/3 196/3/3 195/3/3
f 202/5/3 195/5/3 201/5/3
f 203/3/3 188/3/3 196/3/3
f 203/3/3 196/3/3 202/3/3
f 203/3/3 161/3/3 188/3/3
f 211/3/3 205/3/3 204/3/3
f 212/4/3 206/4/3 205/4/3
f 212/3/3 205/3/3 211/3/3
f 213/4/3 206/4/3 212/4/3
f 214/5/3 207/5/3 206/5/3
f 214/4/3 206/4/3 213/4/3
f 215/4/3 208/4/3 207/4/3
f 215/5/3 207/5/3 214/5/3
f 216/5/3 209/5/3 208/5/3
f 216/4/3 208/4/3 215/4/3
f 217/5/3 209/5/3 216/5/3
f 218/4/3 213/4/3 212/4/3
f 218/4/3 212/4/3 211/4/3
f 219/5/3 214/5/3 213/5/3
f 219/4/3 213/4/3 218/4/3
f 219/5/3 215/5/3 214/5/3
f 219/5/3 216/5/3 215/5/3
f 220/3/3 211/3/3 204/3/3
f 221/4/3 218/4/3 211/4/3
f 221/3/3 211/3/3 220/3/3
f 222/5/3 216/5/3 219/5/3
f 222/5/3 219/5/3 218/5/3
f 223/4/3 217/4/3 216/4/3
f 223/5/3 216/5/3 222/5/3
f 224/5/3 209/5/3 217/5/3
f 224/4/3 217/4/3 223/4/3
f 225/3/3 220/3/3 204/3/3
f 226/3/3 220/3/3 225/3/3
f 227/4/3 218/4/3 221/4/3
f 227/4/3 221/4/3 220/4/3
f 228/5/3 222/5/3 218/5/3
f 228/4/3 218/4/3 227/4/3
f 229/4/3 223/4/3 222/4/3
f 229/5/3 222/5/3 228/5/3
f 230/5/3 224/5/3 223/5/3
f 230/4/3 223/4/3 229/4/3
f 231/3/3 225/3/3 204/3/3
f 232/5/3 226/5/3 225/5/3
f 232/3/3 225/3/3 231/3/3
f 233/3/3 220/3/3 226/3/3
f 233/5/3 226/5/3 232/5/3
f 234/3/3 220/3/3 233/3/3
f 235/5/3 228/5/3 227/5/3
f 235/5/3 209/5/3 224/5/3
f 235/5/3 229/5/3 228/5/3
f 235/5/3 224/5/3 230/5/3
f 235/5/3 230/5/3 229/5/3
f 236/3/3 210/3/3 209/3/3
f 236/5/3 209/5/3 235/5/3
f 237/4/3 232/4/3 231/4/3
f 237/3/3 231/3/3 204/3/3
f 237/4/3 233/4/3 232/4/3
f 238/4/3 233/4/3 237/4/3
f 239/5/3 234/5/3 233/5/3
f 239/4/3 233/4/3 238/4/3
f 240/3/3 220/3/3 234/3/3
f 240/5/3 234/5/3 239/5/3
f 241/4/3 239/4/3 238/4/3
f 241/3/3 238/3/3 237/3/3
f 242/3/3 240/3/3 239/3/3
f 242/4/3 239/4/3 241/4/3
f 243/5/3 235/5/3 227/5/3
f 244/3/3 236/3/3 235/3/3
f 244/5/3 235/5/3 243/5/3
f 245/3/3 240/3/3 242/3/3
f 245/3/3 220/3/3 240/3/3
f 245/4/3 227/4/3 220/4/3
f 245/3/3 242/3/3 241/3/3
f 246/4/3 227/4/3 245/4/3
f 247/5/3 243/5/3 227/5/3
f 247/4/3 227/4/3 246/4/3
f 248/5/3 243/5/3 247/5/3
f 249/5/3 243/5/3 248/5/3
f 250/3/3 244/3/3 243/3/3
f 250/5/3 243/5/3 249/5/3
f 251/3/3 241/3/3 237/3/3
f 251/3/3 237/3/3 204/3/3
f 251/3/3 246/3/3 245/3/3
f 251/3/3 245/3/3 241/3/3
f 252/4/3 248/4/3 247/4/3
f 252/3/3 246/3/3 251/3/3
f 252/4/3 247/4/3 246/4/3
f 253/5/3 249/5/3 248/5/3
f 253/4/3 248/4/3 252/4/3
f 254/3/3 250/3/3 249/3/3
f 254/5/3 249/5/3 253/5/3
f 255/3/3 236/3/3 244/3/3
f 255/3/3 250/3/3 254/3/3
f 255/3/3 210/3/3 236/3/3
f 255/3/3 244/3/3 250/3/3
f 256/3/4 257/3/4 261/3/4
f 257/4/4 258/4/4 261/4/4
f 261/4/4 258/4/4 262/4/4
f 258/5/4 259/5/4 263/5/4
f 262/4/4 258/4/4 263/4/4
f 263/5/4 259/5/4 264/5/4
f 261/3/4 262/3/4 265/3/4
f 262/4/4 263/4/4 265/4/4
f 263/4/4 264/4/4 265/4/4
f 265/4/4 264/4/4 266/4/4
f 259/3/4 260/3/4 267/3/4
f 264/5/4 259/5/4 267/5/4
f 267/3/4 260/3/4 268/3/4
f 265/3/4 266/3/4 269/3/4
f 261/3/4 265/3/4 269/3/4
f 266/4/4 264/4/4 270/4/4
f 269/3/4 266/3/4 270/3/4
f 270/4/4 264/4/4 271/4/4
f 267/5/4 268/5/4 272/5/4
f 271/4/4 264/4/4 272/4/4
f 264/5/4 267/5/4 272/5/4
f 261/3/4 269/3/4 273/3/4
f 256/3/4 261/3/4 273/3/4
f 270/4/4 271/4/4 274/4/4
f 273/3/4 269/3/4 274/3/4
f 269/4/4 270/4/4 274/4/4
f 274/4/4 271/4/4 275/4/4
f 271/5/4 272/5/4 276/5/4
f 275/4/4 271/4/4 276/4/4
f 272/5/4 268/5/4 277/5/4
f 276/5/4 272/5/4 277/5/4
f 277/5/4 268/5/4 278/5/4
f 256/3/4 273/3/4 279/3/4
f 274/4/4 275/4/4 280/4/4
f 279/3/4 273/3/4 280/3/4
f 273/4/4 274/4/4 280/4/4
f 280/4/4 275/4/4 281/4/4
f 275/5/4 276/5/4 282/5/4
f 281/4/4 275/4/4 282/4/4
f 276/5/4 277/5/4 282/5/4
f 282/5/4 277/5/4 283/5/4
f 277/4/4 278/4/4 284/4/4
f 283/5/4 277/5/4 284/5/4
f 278/5/4 268/5/4 285/5/4
f 284/4/4 278/4/4 285/4/4
f 284/5/4 285/5/4 286/5/4
f 285/5/4 268/5/4 286/5/4
f 268/3/4 260/3/4 287/3/4
f 286/5/4 268/5/4 287/5/4
f 282/5/4 283/5/4 288/5/4
f 281/5/4 282/5/4 288/5/4
f 283/4/4 284/4/4 289/4/4
f 288/5/4 283/5/4 289/5/4
f 284/5/4 286/5/4 290/5/4
f 289/4/4 284/4/4 290/4/4
f 281/5/4 288/5/4 291/5/4
f 288/4/4 289/4/4 292/4/4
f 291/5/4 288/5/4 292/5/4
f 289/5/4 290/5/4 293/5/4
f 292/4/4 289/4/4 293/4/4
f 290/5/4 286/5/4 294/5/4
f 293/5/4 290/5/4 294/5/4
f 286/3/4 287/3/4 295/3/4
f 294/5/4 286/5/4 295/5/4
f 281/5/4 291/5/4 296/5/4
f 291/4/4 292/4/4 296/4/4
f 292/5/4 293/5/4 297/5/4
f 296/4/4 292/4/4 297/4/4
f 293/5/4 294/5/4 297/5/4
f 256/3/4 279/3/4 298/3/4
f 280/4/4 281/4/4 299/4/4
f 298/3/4 279/3/4 299/3/4
f 279/4/4 280/4/4 299/4/4
f 281/5/4 296/5/4 300/5/4
f 299/4/4 281/4/4 300/4/4
f 296/5/4 297/5/4 300/5/4
f 297/5/4 294/5/4 301/5/4
f 300/5/4 297/5/4 301/5/4
f 294/3/4 295/3/4 301/3/4
f 295/3/4 287/3/4 302/3/4
f 301/3/4 295/3/4 302/3/4
f 287/3/4 260/3/4 302/3/4
f 300/2/4 301/2/4 303/2/4
f 299/2/4 300/2/4 303/2/4
f 301/2/4 302/2/4 303/2/4
f 298/2/4 299/2/4 303/2/4
f 303/2/4 302/2/4 304/2/4
f 305/2/4 306/2/4 307/2/4
f 307/2/4 306/2/4 308/2/4
f 308/2/4 306/2/4 309/2/4
f 309/2/4 306/2/4 310/2/4
f 310/2/4 306/2/4 311/2/4
f 307/3/4 308/3/4 312/3/4
f 308/4/4 309/4/4 312/4/4
f 312/4/4 309/4/4 313/4/4
f 309/5/4 310/5/4 314/5/4
f 313/4/4 309/4/4 314/4/4
f 314/5/4 310/5/4 315/5/4
f 310/3/4 311/3/4 316/3/4
f 315/5/4 310/5/4 316/5/4
f 316/3/4 311/3/4 317/3/4
f 317/3/4 311/3/4 318/3/4
f 312/3/4 313/3/4 319/3/4
f 314/4/4 315/4/4 320/4/4
f 319/3/4 313/3/4 320/3/4
f 313/4/4 314/4/4 320/4/4
f 320/4/4 315/4/4 321/4/4
f 315/5/4 316/5/4 322/5/4
f 321/4/4 315/4/4 322/4/4
f 316/4/4 317/4/4 323/4/4
f 322/5/4 316/5/4 323/5/4
f 317/5/4 318/5/4 324/5/4
f 323/4/4 317/4/4 324/4/4
f 324/5/4 318/5/4 325/5/4
f 320/4/4 321/4/4 326/4/4
f 319/4/4 320/4/4 326/4/4
f 322/5/4 323/5/4 327/5/4
f 326/4/4 321/4/4 327/4/4
f 321/5/4 322/5/4 327/5/4
f 323/5/4 324/5/4 327/5/4
f 312/3/4 319/3/4 328/3/4
f 307/3/4 312/3/4 328/3/4
f 319/4/4 326/4/4 329/4/4
f 328/3/4 319/3/4 329/3/4
f 327/5/4 324/5/4 330/5/4
f 326/5/4 327/5/4 330/5/4
f 324/4/4 325/4/4 331/4/4
f 330/5/4 324/5/4 331/5/4
f 325/5/4 318/5/4 332/5/4
f 331/4/4 325/4/4 332/4/4
f 307/3/4 328/3/4 333/3/4
f 333/3/4 328/3/4 334/3/4
f 334/3/4 328/3/4 335/3/4
f 335/3/4 328/3/4 336/3/4
f 329/4/4 326/4/4 337/4/4
f 328/4/4 329/4/4 337/4/4
f 326/5/4 330/5/4 338/5/4
f 337/4/4 326/4/4 338/4/4
f 330/4/4 331/4/4 339/4/4
f 338/5/4 330/5/4 339/5/4
f 331/5/4 332/5/4 340/5/4
f 339/4/4 331/4/4 340/4/4
f 307/3/4 333/3/4 341/3/4
f 333/5/4 334/5/4 342/5/4
f 341/3/4 333/3/4 342/3/4
f 334/3/4 335/3/4 343/3/4
f 342/5/4 334/5/4 343/5/4
f 343/3/4 335/3/4 344/3/4
f 344/3/4 335/3/4 345/3/4
f 335/5/4 336/5/4 346/5/4
f 345/3/4 335/3/4 346/3/4
f 336/3/4 328/3/4 347/3/4
f 346/5/4 336/5/4 347/5/4
f 347/3/4 328/3/4 348/3/4
f 332/5/4 318/5/4 349/5/4
f 337/5/4 338/5/4 349/5/4
f 338/5/4 339/5/4 349/5/4
f 340/5/4 332/5/4 349/5/4
f 339/5/4 340/5/4 349/5/4
f 318/3/4 311/3/4 350/3/4
f 349/5/4 318/5/4 350/5/4
f 307/3/4 341/3/4 351/3/4
f 341/4/4 342/4/4 351/4/4
f 342/4/4 343/4/4 351/4/4
f 351/4/4 343/4/4 352/4/4
f 343/5/4 344/5/4 353/5/4
f 352/4/4 343/4/4 353/4/4
f 344/3/4 345/3/4 354/3/4
f 353/5/4 344/5/4 354/5/4
f 345/4/4 346/4/4 355/4/4
f 354/3/4 345/3/4 355/3/4
f 346/4/4 347/4/4 355/4/4
f 355/4/4 347/4/4 356/4/4
f 347/5/4 348/5/4 357/5/4
f 356/4/4 347/4/4 357/4/4
f 348/3/4 328/3/4 358/3/4
f 357/5/4 348/5/4 358/5/4
f 352/4/4 353/4/4 359/4/4
f 351/3/4 352/3/4 359/3/4
f 353/3/4 354/3/4 360/3/4
f 359/4/4 353/4/4 360/4/4
f 355/3/4 356/3/4 360/3/4
f 354/3/4 355/3/4 360/3/4
f 356/4/4 357/4/4 361/4/4
f 360/3/4 356/3/4 361/3/4
f 357/3/4 358/3/4 362/3/4
f 361/4/4 357/4/4 362/4/4
f 337/5/4 349/5/4 363/5/4
f 349/3/4 350/3/4 364/3/4
f 363/5/4 349/5/4 364/5/4
f 362/3/4 358/3/4 365/3/4
f 358/3/4 328/3/4 365/3/4
f 359/3/4 360/3/4 365/3/4
f 361/3/4 362/3/4 365/3/4
f 328/4/4 337/4/4 365/4/4
f 360/3/4 361/3/4 365/3/4
f 365/4/4 337/4/4 366/4/4
f 337/5/4 363/5/4 367/5/4
f 366/4/4 337/4/4 367/4/4
f 367/5/4 363/5/4 368/5/4
f 368/5/4 363/5/4 369/5/4
f 363/3/4 364/3/4 370/3/4
f 369/5/4 363/5/4 370/5/4
f 351/3/4 359/3/4 371/3/4
f 365/3/4 366/3/4 371/3/4
f 307/3/4 351/3/4 371/3/4
f 359/3/4 365/3/4 371/3/4
f 367/4/4 368/4/4 372/4/4
f 371/3/4 366/3/4 372/3/4
f 366/4/4 367/4/4 372/4/4
f 368/5/4 369/5/4 373/5/4
f 372/4/4 368/4/4 373/4/4
f 369/3/4 370/3/4 374/3/4
f 373/5/4 369/5/4 374/5/4
f 370/3/4 364/3/4 375/3/4
f 374/3/4 370/3/4 375/3/4
f 364/3/4 350/3/4 375/3/4
f 350/3/4 311/3/4 375/3/4
f 382/1/5 377/1/5 376/1/5
f 383/2/5 378/2/5 377/2/5
f 383/1/5 377/1/5 382/1/5
f 384/1/5 381/1/5 380/1/5
f 384/2/5 380/2/5 379/2/5
f 385/1/5 381/1/5 384/1/5
f 386/2/5 383/2/5 382/2/5
f 387/2/5 383/2/5 386/2/5
f 388/2/5 385/2/5 384/2/5
f 389/2/5 385/2/5 388/2/5
f 390/3/5 387/3/5 386/3/5
f 391/2/5 383/2/5 387/2/5
f 391/3/5 387/3/5 390/3/5
f 392/2/5 378/2/5 383/2/5
f 392/2/5 383/2/5 391/2/5
f 393/2/5 384/2/5 379/2/5
f 393/2/5 388/2/5 384/2/5
f 394/3/5 389/3/5 388/3/5
f 394/2/5 388/2/5 393/2/5
f 395/3/5 389/3/5 394/3/5
f 400/2/5 397/2/5 396/2/5
f 401/2/5 397/2/5 400/2/5
f 402/2/5 399/2/5 398/2/5
f 403/2/5 399/2/5 402/2/5
f 404/2/6 405/2/6 408/2/6
f 408/2/6 405/2/6 409/2/6
f 406/2/6 407/2/6 410/2/6
f 410/2/6 407/2/6 411/2/6
f 412/2/6 413/2/6 416/2/6
f 416/2/6 413/2/6 417/2/6
f 414/2/6 415/2/6 418/2/6
f 418/2/6 415/2/6 419/2/6
f 420/2/6 421/2/6 424/2/6
f 424/2/6 421/2/6 425/2/6
f 422/2/6 423/2/6 426/2/6
f 426/2/6 423/2/6 427/2/6
f 428/2/6 429/2/6 432/2/6
f 432/2/6 429/2/6 433/2/6
f 430/2/6 431/2/6 434/2/6
f 434/2/6 431/2/6 435/2/6
f 436/2/6 437/2/6 441/2/6
f 438/2/6 439/2/6 442/2/6
f 440/2/6 441/2/6 445/2/6
f 442/2/6 443/2/6 446/2/6
f 444/2/6 445/2/6 449/2/6
f 449/2/6 445/2/6 450/2/6
f 446/2/6 447/2/6 451/2/6
f 451/2/6 447/2/6 452/2/6
f 448/3/6 449/3/6 454/3/6
f 449/3/6 450/3/6 454/3/6
f 450/2/6 445/2/6 455/2/6
f 454/3/6 450/3/6 455/3/6
f 441/2/6 437/2/6 456/2/6
f 455/2/6 445/2/6 456/2/6
f 445/2/6 441/2/6 456/2/6
f 438/2/6 442/2/6 457/2/6
f 446/2/6 451/2/6 457/2/6
f 442/2/6 446/2/6 457/2/6
f 451/3/6 452/3/6 458/3/6
f 457/2/6 451/2/6 458/2/6
f 452/3/6 453/3/6 458/3/6
f 458/3/6 453/3/6 459/3/6
