# MagicaVoxel @ Ephtracy

# material
mtllib pime.mtl
usemtl palette

# normals
vn -1 0 0
vn 1 0 0
vn 0 0 1
vn 0 0 -1
vn 0 -1 0
vn 0 1 0

# texcoords
vt 0.0253906 0.5
vt 0.0410156 0.5
vt 0.0527344 0.5
vt 0.158203 0.5
vt 0.466797 0.5

# verts
v -4.5 0 2
v -4.5 0 -1
v -4.5 9 2
v -4.5 9 -1
v -4.5 10 2
v -4.5 10 -1
v -4.5 14 2
v -4.5 14 -1
v -3.5 0 3
v -3.5 0 2
v -3.5 0 -1
v -3.5 0 -2
v -3.5 2 -1
v -3.5 2 -2
v -3.5 3 -1
v -3.5 3 -2
v -3.5 4 3
v -3.5 4 2
v -3.5 5 3
v -3.5 5 2
v -3.5 9 3
v -3.5 9 2
v -3.5 9 -1
v -3.5 9 -2
v -3.5 10 3
v -3.5 10 2
v -3.5 10 -1
v -3.5 10 -2
v -3.5 12 3
v -3.5 12 2
v -3.5 12 -1
v -3.5 12 -2
v -3.5 13 3
v -3.5 13 2
v -3.5 13 -1
v -3.5 13 -2
v -3.5 14 3
v -3.5 14 2
v -3.5 14 -1
v -3.5 14 -2
v -3.5 15 2
v -3.5 15 -1
v -0.5 14 -1
v -0.5 14 -2
v -0.5 15 1
v -0.5 15 -1
v -0.5 18 1
v -0.5 18 -2
v 0.5 4 -2
v 0.5 4 -3
v 0.5 6 -2
v 0.5 6 -3
v 0.5 7 -2
v 0.5 7 -3
v 0.5 13 -2
v 0.5 13 -3
v 0.5 14 2
v 0.5 14 1
v 0.5 14 -2
v 0.5 14 -3
v 0.5 16 2
v 0.5 16 1
v 0.5 16 -2
v 0.5 16 -3
v 0.5 17 2
v 0.5 17 1
v 0.5 17 -2
v 0.5 17 -3
v 0.5 18 2
v 0.5 18 1
v 0.5 18 -2
v 0.5 18 -3
v 0.5 19 1
v 0.5 19 -2
v -0.5 0 3
v -0.5 0 2
v -0.5 0 -1
v -0.5 0 -2
v -0.5 2 3
v -0.5 2 2
v -0.5 2 -1
v -0.5 2 -2
v -0.5 3 3
v -0.5 3 2
v -0.5 3 -1
v -0.5 3 -2
v -0.5 4 3
v -0.5 4 2
v -0.5 4 -1
v -0.5 4 -2
v -0.5 5 3
v -0.5 5 2
v -0.5 6 3
v -0.5 6 2
v -0.5 8 3
v -0.5 8 2
v -0.5 9 3
v -0.5 9 2
v -0.5 10 3
v -0.5 10 2
v -0.5 12 3
v -0.5 12 2
v -0.5 13 3
v -0.5 13 2
v -0.5 14 3
v -0.5 14 2
v -0.5 14 1
v -0.5 15 2
v -0.5 15 1
v 0.5 0 2
v 0.5 0 -1
v 0.5 4 2
v 0.5 4 1
v 0.5 4 -1
v 3.5 4 2
v 3.5 4 1
v 3.5 4 -2
v 3.5 4 -3
v 3.5 6 2
v 3.5 6 1
v 3.5 6 -2
v 3.5 6 -3
v 3.5 7 2
v 3.5 7 1
v 3.5 7 -2
v 3.5 7 -3
v 3.5 8 2
v 3.5 8 1
v 3.5 9 2
v 3.5 9 1
v 3.5 10 2
v 3.5 10 1
v 3.5 12 2
v 3.5 12 1
v 3.5 13 2
v 3.5 13 1
v 3.5 13 -2
v 3.5 13 -3
v 3.5 14 2
v 3.5 14 1
v 3.5 14 -2
v 3.5 14 -3
v 3.5 16 2
v 3.5 16 1
v 3.5 16 -2
v 3.5 16 -3
v 3.5 17 2
v 3.5 17 1
v 3.5 17 -2
v 3.5 17 -3
v 3.5 18 2
v 3.5 18 1
v 3.5 18 -2
v 3.5 18 -3
v 3.5 19 1
v 3.5 19 -2
v 4.5 4 1
v 4.5 4 -2
v 4.5 13 1
v 4.5 13 -2
v 4.5 14 1
v 4.5 14 -2
v 4.5 18 1
v 4.5 18 -2
v -3.5 0 3
v -3.5 4 3
v -3.5 5 3
v -3.5 9 3
v -3.5 10 3
v -3.5 12 3
v -3.5 13 3
v -3.5 14 3
v -2.5 3 3
v -2.5 4 3
v -2.5 7 3
v -2.5 8 3
v -2.5 11 3
v -2.5 12 3
v -2.5 13 3
v -2.5 14 3
v -1.5 2 3
v -1.5 3 3
v -1.5 4 3
v -1.5 6 3
v -1.5 7 3
v -1.5 11 3
v -1.5 12 3
v -1.5 13 3
v -1.5 14 3
v -0.5 0 3
v -0.5 2 3
v -0.5 3 3
v -0.5 4 3
v -0.5 5 3
v -0.5 6 3
v -0.5 8 3
v -0.5 9 3
v -0.5 10 3
v -0.5 12 3
v -0.5 13 3
v -0.5 14 3
v -4.5 0 2
v -4.5 9 2
v -4.5 10 2
v -4.5 14 2
v -3.5 0 2
v -3.5 4 2
v -3.5 5 2
v -3.5 9 2
v -3.5 10 2
v -3.5 12 2
v -3.5 13 2
v -3.5 14 2
v -3.5 15 2
v -2.5 14 2
v -1.5 14 2
v -0.5 0 2
v -0.5 2 2
v -0.5 3 2
v -0.5 4 2
v -0.5 5 2
v -0.5 6 2
v -0.5 8 2
v -0.5 9 2
v -0.5 10 2
v -0.5 12 2
v -0.5 13 2
v -0.5 14 2
v -0.5 15 2
v 0.5 0 2
v 0.5 4 2
v 0.5 8 2
v 0.5 9 2
v 0.5 10 2
v 0.5 13 2
v 0.5 14 2
v 0.5 16 2
v 0.5 17 2
v 0.5 18 2
v 1.5 7 2
v 1.5 8 2
v 1.5 11 2
v 1.5 12 2
v 1.5 15 2
v 1.5 16 2
v 1.5 17 2
v 1.5 18 2
v 2.5 6 2
v 2.5 7 2
v 2.5 8 2
v 2.5 10 2
v 2.5 11 2
v 2.5 15 2
v 2.5 16 2
v 2.5 17 2
v 2.5 18 2
v 3.5 4 2
v 3.5 6 2
v 3.5 7 2
v 3.5 8 2
v 3.5 9 2
v 3.5 10 2
v 3.5 12 2
v 3.5 13 2
v 3.5 14 2
v 3.5 16 2
v 3.5 17 2
v 3.5 18 2
v -0.5 14 1
v -0.5 15 1
v -0.5 18 1
v 0.5 14 1
v 0.5 16 1
v 0.5 17 1
v 0.5 18 1
v 0.5 19 1
v 1.5 18 1
v 2.5 18 1
v 3.5 4 1
v 3.5 6 1
v 3.5 7 1
v 3.5 8 1
v 3.5 9 1
v 3.5 10 1
v 3.5 12 1
v 3.5 13 1
v 3.5 14 1
v 3.5 16 1
v 3.5 17 1
v 3.5 18 1
v 3.5 19 1
v 4.5 4 1
v 4.5 13 1
v 4.5 14 1
v 4.5 18 1
v -4.5 0 -1
v -4.5 9 -1
v -4.5 10 -1
v -4.5 14 -1
v -3.5 0 -1
v -3.5 2 -1
v -3.5 3 -1
v -3.5 9 -1
v -3.5 10 -1
v -3.5 12 -1
v -3.5 13 -1
v -3.5 14 -1
v -3.5 15 -1
v -2.5 14 -1
v -1.5 14 -1
v -0.5 0 -1
v -0.5 2 -1
v -0.5 3 -1
v -0.5 4 -1
v -0.5 14 -1
v -0.5 15 -1
v 0.5 0 -1
v 0.5 4 -1
v -3.5 0 -2
v -3.5 2 -2
v -3.5 3 -2
v -3.5 9 -2
v -3.5 10 -2
v -3.5 12 -2
v -3.5 13 -2
v -3.5 14 -2
v -2.5 11 -2
v -2.5 12 -2
v -2.5 13 -2
v -2.5 14 -2
v -1.5 11 -2
v -1.5 12 -2
v -1.5 13 -2
v -1.5 14 -2
v -0.5 0 -2
v -0.5 2 -2
v -0.5 3 -2
v -0.5 4 -2
v -0.5 9 -2
v -0.5 10 -2
v -0.5 12 -2
v -0.5 13 -2
v -0.5 14 -2
v -0.5 18 -2
v 0.5 4 -2
v 0.5 6 -2
v 0.5 7 -2
v 0.5 13 -2
v 0.5 14 -2
v 0.5 16 -2
v 0.5 17 -2
v 0.5 18 -2
v 0.5 19 -2
v 1.5 18 -2
v 2.5 18 -2
v 3.5 4 -2
v 3.5 6 -2
v 3.5 7 -2
v 3.5 13 -2
v 3.5 14 -2
v 3.5 16 -2
v 3.5 17 -2
v 3.5 18 -2
v 3.5 19 -2
v 4.5 4 -2
v 4.5 13 -2
v 4.5 14 -2
v 4.5 18 -2
v 0.5 4 -3
v 0.5 6 -3
v 0.5 7 -3
v 0.5 13 -3
v 0.5 14 -3
v 0.5 16 -3
v 0.5 17 -3
v 0.5 18 -3
v 1.5 15 -3
v 1.5 16 -3
v 1.5 17 -3
v 1.5 18 -3
v 2.5 15 -3
v 2.5 16 -3
v 2.5 17 -3
v 2.5 18 -3
v 3.5 4 -3
v 3.5 6 -3
v 3.5 7 -3
v 3.5 13 -3
v 3.5 14 -3
v 3.5 16 -3
v 3.5 17 -3
v 3.5 18 -3
v -3.5 0 3
v -0.5 0 3
v -4.5 0 2
v -3.5 0 2
v -0.5 0 2
v 0.5 0 2
v -4.5 0 -1
v -3.5 0 -1
v -0.5 0 -1
v 0.5 0 -1
v -3.5 0 -2
v -0.5 0 -2
v 0.5 4 2
v 3.5 4 2
v 0.5 4 1
v 3.5 4 1
v 4.5 4 1
v -0.5 4 -1
v 0.5 4 -1
v -0.5 4 -2
v 0.5 4 -2
v 3.5 4 -2
v 4.5 4 -2
v 0.5 4 -3
v 3.5 4 -3
v -3.5 14 3
v -2.5 14 3
v -1.5 14 3
v -0.5 14 3
v -4.5 14 2
v -3.5 14 2
v -2.5 14 2
v -1.5 14 2
v -0.5 14 2
v 0.5 14 2
v -0.5 14 1
v 0.5 14 1
v -4.5 14 -1
v -3.5 14 -1
v -2.5 14 -1
v -1.5 14 -1
v -0.5 14 -1
v -3.5 14 -2
v -2.5 14 -2
v -1.5 14 -2
v -0.5 14 -2
v -3.5 15 2
v -0.5 15 2
v -0.5 15 1
v -3.5 15 -1
v -0.5 15 -1
v 0.5 18 2
v 1.5 18 2
v 2.5 18 2
v 3.5 18 2
v -0.5 18 1
v 0.5 18 1
v 1.5 18 1
v 2.5 18 1
v 3.5 18 1
v 4.5 18 1
v -0.5 18 -2
v 0.5 18 -2
v 1.5 18 -2
v 2.5 18 -2
v 3.5 18 -2
v 4.5 18 -2
v 0.5 18 -3
v 1.5 18 -3
v 2.5 18 -3
v 3.5 18 -3
v 0.5 19 1
v 3.5 19 1
v 0.5 19 -2
v 3.5 19 -2

# faces
f 3/3/1 2/3/1 1/3/1
f 4/3/1 2/3/1 3/3/1
f 5/5/1 4/5/1 3/5/1
f 6/5/1 4/5/1 5/5/1
f 7/4/1 6/4/1 5/4/1
f 8/4/1 6/4/1 7/4/1
f 13/3/1 12/3/1 11/3/1
f 14/3/1 12/3/1 13/3/1
f 15/5/1 14/5/1 13/5/1
f 16/5/1 14/5/1 15/5/1
f 17/3/1 10/3/1 9/3/1
f 18/3/1 10/3/1 17/3/1
f 19/5/1 18/5/1 17/5/1
f 20/5/1 18/5/1 19/5/1
f 21/3/1 20/3/1 19/3/1
f 22/3/1 20/3/1 21/3/1
f 23/3/1 16/3/1 15/3/1
f 24/3/1 16/3/1 23/3/1
f 25/5/1 22/5/1 21/5/1
f 26/5/1 22/5/1 25/5/1
f 27/5/1 24/5/1 23/5/1
f 28/5/1 24/5/1 27/5/1
f 29/4/1 26/4/1 25/4/1
f 30/4/1 26/4/1 29/4/1
f 31/4/1 28/4/1 27/4/1
f 32/4/1 28/4/1 31/4/1
f 33/3/1 30/3/1 29/3/1
f 34/3/1 30/3/1 33/3/1
f 35/3/1 32/3/1 31/3/1
f 36/3/1 32/3/1 35/3/1
f 37/4/1 34/4/1 33/4/1
f 38/4/1 34/4/1 37/4/1
f 39/4/1 36/4/1 35/4/1
f 40/4/1 36/4/1 39/4/1
f 41/1/1 39/1/1 38/1/1
f 42/1/1 39/1/1 41/1/1
f 46/4/1 44/4/1 43/4/1
f 47/4/1 46/4/1 45/4/1
f 48/4/1 44/4/1 46/4/1
f 48/4/1 46/4/1 47/4/1
f 51/3/1 50/3/1 49/3/1
f 52/3/1 50/3/1 51/3/1
f 53/5/1 52/5/1 51/5/1
f 54/5/1 52/5/1 53/5/1
f 55/3/1 54/3/1 53/3/1
f 56/3/1 54/3/1 55/3/1
f 59/5/1 56/5/1 55/5/1
f 60/5/1 56/5/1 59/5/1
f 61/4/1 58/4/1 57/4/1
f 62/4/1 58/4/1 61/4/1
f 63/4/1 60/4/1 59/4/1
f 64/4/1 60/4/1 63/4/1
f 65/3/1 62/3/1 61/3/1
f 66/3/1 62/3/1 65/3/1
f 67/3/1 64/3/1 63/3/1
f 68/3/1 64/3/1 67/3/1
f 69/4/1 66/4/1 65/4/1
f 70/4/1 66/4/1 69/4/1
f 71/4/1 68/4/1 67/4/1
f 72/4/1 68/4/1 71/4/1
f 73/1/1 71/1/1 70/1/1
f 74/1/1 71/1/1 73/1/1
f 75/3/2 76/3/2 79/3/2
f 79/3/2 76/3/2 80/3/2
f 77/3/2 78/3/2 81/3/2
f 81/3/2 78/3/2 82/3/2
f 79/5/2 80/5/2 83/5/2
f 83/5/2 80/5/2 84/5/2
f 81/5/2 82/5/2 85/5/2
f 85/5/2 82/5/2 86/5/2
f 83/3/2 84/3/2 87/3/2
f 87/3/2 84/3/2 88/3/2
f 85/3/2 86/3/2 89/3/2
f 89/3/2 86/3/2 90/3/2
f 87/5/2 88/5/2 91/5/2
f 91/5/2 88/5/2 92/5/2
f 91/3/2 92/3/2 93/3/2
f 93/3/2 92/3/2 94/3/2
f 93/5/2 94/5/2 95/5/2
f 95/5/2 94/5/2 96/5/2
f 95/3/2 96/3/2 97/3/2
f 97/3/2 96/3/2 98/3/2
f 97/5/2 98/5/2 99/5/2
f 99/5/2 98/5/2 100/5/2
f 99/4/2 100/4/2 101/4/2
f 101/4/2 100/4/2 102/4/2
f 101/3/2 102/3/2 103/3/2
f 103/3/2 102/3/2 104/3/2
f 103/4/2 104/4/2 105/4/2
f 105/4/2 104/4/2 106/4/2
f 106/1/2 107/1/2 108/1/2
f 108/1/2 107/1/2 109/1/2
f 110/3/2 111/3/2 112/3/2
f 112/3/2 111/3/2 113/3/2
f 113/3/2 111/3/2 114/3/2
f 115/3/2 116/3/2 119/3/2
f 119/3/2 116/3/2 120/3/2
f 117/3/2 118/3/2 121/3/2
f 121/3/2 118/3/2 122/3/2
f 119/5/2 120/5/2 123/5/2
f 123/5/2 120/5/2 124/5/2
f 121/5/2 122/5/2 125/5/2
f 125/5/2 122/5/2 126/5/2
f 123/3/2 124/3/2 127/3/2
f 127/3/2 124/3/2 128/3/2
f 127/5/2 128/5/2 129/5/2
f 129/5/2 128/5/2 130/5/2
f 129/3/2 130/3/2 131/3/2
f 131/3/2 130/3/2 132/3/2
f 131/5/2 132/5/2 133/5/2
f 133/5/2 132/5/2 134/5/2
f 133/3/2 134/3/2 135/3/2
f 135/3/2 134/3/2 136/3/2
f 125/3/2 126/3/2 137/3/2
f 137/3/2 126/3/2 138/3/2
f 135/5/2 136/5/2 139/5/2
f 139/5/2 136/5/2 140/5/2
f 137/5/2 138/5/2 141/5/2
f 141/5/2 138/5/2 142/5/2
f 139/4/2 140/4/2 143/4/2
f 143/4/2 140/4/2 144/4/2
f 141/4/2 142/4/2 145/4/2
f 145/4/2 142/4/2 146/4/2
f 143/3/2 144/3/2 147/3/2
f 147/3/2 144/3/2 148/3/2
f 145/3/2 146/3/2 149/3/2
f 149/3/2 146/3/2 150/3/2
f 147/4/2 148/4/2 151/4/2
f 151/4/2 148/4/2 152/4/2
f 149/4/2 150/4/2 153/4/2
f 153/4/2 150/4/2 154/4/2
f 152/1/2 153/1/2 155/1/2
f 155/1/2 153/1/2 156/1/2
f 157/3/2 158/3/2 159/3/2
f 159/3/2 158/3/2 160/3/2
f 159/5/2 160/5/2 161/5/2
f 161/5/2 160/5/2 162/5/2
f 161/4/2 162/4/2 163/4/2
f 163/4/2 162/4/2 164/4/2
f 173/3/3 166/3/3 165/3/3
f 174/5/3 167/5/3 166/5/3
f 174/3/3 166/3/3 173/3/3
f 175/3/3 168/3/3 167/3/3
f 176/3/3 168/3/3 175/3/3
f 177/4/3 170/4/3 169/4/3
f 178/3/3 171/3/3 170/3/3
f 178/4/3 170/4/3 177/4/3
f 179/4/3 172/4/3 171/4/3
f 179/3/3 171/3/3 178/3/3
f 180/4/3 172/4/3 179/4/3
f 181/3/3 173/3/3 165/3/3
f 182/5/3 174/5/3 173/5/3
f 182/3/3 173/3/3 181/3/3
f 183/5/3 167/5/3 174/5/3
f 183/5/3 174/5/3 182/5/3
f 184/3/3 175/3/3 167/3/3
f 185/5/3 176/5/3 175/5/3
f 185/3/3 175/3/3 184/3/3
f 186/3/3 178/3/3 177/3/3
f 186/4/3 177/4/3 169/4/3
f 186/3/3 179/3/3 178/3/3
f 186/3/3 180/3/3 179/3/3
f 187/3/3 180/3/3 186/3/3
f 188/3/3 180/3/3 187/3/3
f 189/3/3 180/3/3 188/3/3
f 190/3/3 181/3/3 165/3/3
f 191/5/3 182/5/3 181/5/3
f 191/3/3 181/3/3 190/3/3
f 192/3/3 183/3/3 182/3/3
f 192/5/3 182/5/3 191/5/3
f 193/5/3 167/5/3 183/5/3
f 193/3/3 183/3/3 192/3/3
f 194/3/3 184/3/3 167/3/3
f 194/5/3 167/5/3 193/5/3
f 195/5/3 185/5/3 184/5/3
f 195/3/3 184/3/3 194/3/3
f 196/5/3 176/5/3 185/5/3
f 196/5/3 185/5/3 195/5/3
f 196/3/3 168/3/3 176/3/3
f 197/5/3 169/5/3 168/5/3
f 197/3/3 168/3/3 196/3/3
f 198/4/3 186/4/3 169/4/3
f 198/5/3 169/5/3 197/5/3
f 198/4/3 187/4/3 186/4/3
f 199/3/3 188/3/3 187/3/3
f 199/4/3 187/4/3 198/4/3
f 200/4/3 189/4/3 188/4/3
f 200/3/3 188/3/3 199/3/3
f 201/4/3 189/4/3 200/4/3
f 206/3/3 203/3/3 202/3/3
f 207/3/3 203/3/3 206/3/3
f 208/3/3 203/3/3 207/3/3
f 209/5/3 204/5/3 203/5/3
f 209/3/3 203/3/3 208/3/3
f 210/4/3 205/4/3 204/4/3
f 210/5/3 204/5/3 209/5/3
f 211/4/3 205/4/3 210/4/3
f 212/4/3 205/4/3 211/4/3
f 213/4/3 205/4/3 212/4/3
f 215/1/3 214/1/3 213/1/3
f 216/1/3 214/1/3 215/1/3
f 228/1/3 214/1/3 216/1/3
f 229/1/3 214/1/3 228/1/3
f 230/3/3 218/3/3 217/3/3
f 230/3/3 219/3/3 218/3/3
f 230/3/3 220/3/3 219/3/3
f 230/3/3 221/3/3 220/3/3
f 230/3/3 222/3/3 221/3/3
f 230/3/3 223/3/3 222/3/3
f 230/3/3 224/3/3 223/3/3
f 231/3/3 224/3/3 230/3/3
f 232/3/3 224/3/3 231/3/3
f 233/5/3 225/5/3 224/5/3
f 233/3/3 224/3/3 232/3/3
f 234/4/3 227/4/3 226/4/3
f 234/5/3 225/5/3 233/5/3
f 234/4/3 228/4/3 227/4/3
f 234/4/3 226/4/3 225/4/3
f 235/4/3 228/4/3 234/4/3
f 236/4/3 228/4/3 235/4/3
f 240/3/3 232/3/3 231/3/3
f 241/5/3 233/5/3 232/5/3
f 241/3/3 232/3/3 240/3/3
f 242/3/3 234/3/3 233/3/3
f 242/3/3 235/3/3 234/3/3
f 243/3/3 235/3/3 242/3/3
f 244/4/3 237/4/3 236/4/3
f 245/3/3 238/3/3 237/3/3
f 245/4/3 237/4/3 244/4/3
f 246/4/3 239/4/3 238/4/3
f 246/3/3 238/3/3 245/3/3
f 247/4/3 239/4/3 246/4/3
f 248/3/3 240/3/3 231/3/3
f 249/5/3 241/5/3 240/5/3
f 249/3/3 240/3/3 248/3/3
f 250/5/3 233/5/3 241/5/3
f 250/5/3 241/5/3 249/5/3
f 251/3/3 242/3/3 233/3/3
f 252/5/3 243/5/3 242/5/3
f 252/3/3 242/3/3 251/3/3
f 253/3/3 245/3/3 244/3/3
f 253/4/3 244/4/3 236/4/3
f 253/3/3 246/3/3 245/3/3
f 253/3/3 247/3/3 246/3/3
f 254/3/3 247/3/3 253/3/3
f 255/3/3 247/3/3 254/3/3
f 256/3/3 247/3/3 255/3/3
f 257/3/3 248/3/3 231/3/3
f 258/5/3 249/5/3 248/5/3
f 258/3/3 248/3/3 257/3/3
f 259/3/3 250/3/3 249/3/3
f 259/5/3 249/5/3 258/5/3
f 260/5/3 233/5/3 250/5/3
f 260/3/3 250/3/3 259/3/3
f 261/3/3 251/3/3 233/3/3
f 261/5/3 233/5/3 260/5/3
f 262/5/3 252/5/3 251/5/3
f 262/3/3 251/3/3 261/3/3
f 263/5/3 243/5/3 252/5/3
f 263/5/3 252/5/3 262/5/3
f 263/3/3 235/3/3 243/3/3
f 264/5/3 236/5/3 235/5/3
f 264/3/3 235/3/3 263/3/3
f 265/4/3 253/4/3 236/4/3
f 265/5/3 236/5/3 264/5/3
f 265/4/3 254/4/3 253/4/3
f 266/3/3 255/3/3 254/3/3
f 266/4/3 254/4/3 265/4/3
f 267/4/3 256/4/3 255/4/3
f 267/3/3 255/3/3 266/3/3
f 268/4/3 256/4/3 267/4/3
f 272/4/3 270/4/3 269/4/3
f 272/4/3 271/4/3 270/4/3
f 273/4/3 271/4/3 272/4/3
f 274/4/3 271/4/3 273/4/3
f 275/4/3 271/4/3 274/4/3
f 277/1/3 276/1/3 275/1/3
f 278/1/3 276/1/3 277/1/3
f 290/1/3 276/1/3 278/1/3
f 291/1/3 276/1/3 290/1/3
f 292/3/3 280/3/3 279/3/3
f 292/3/3 281/3/3 280/3/3
f 292/3/3 282/3/3 281/3/3
f 292/3/3 283/3/3 282/3/3
f 292/3/3 284/3/3 283/3/3
f 292/3/3 285/3/3 284/3/3
f 292/3/3 286/3/3 285/3/3
f 293/5/3 287/5/3 286/5/3
f 293/3/3 286/3/3 292/3/3
f 294/4/3 289/4/3 288/4/3
f 294/5/3 287/5/3 293/5/3
f 294/4/3 290/4/3 289/4/3
f 294/4/3 288/4/3 287/4/3
f 295/4/3 290/4/3 294/4/3
f 296/3/4 297/3/4 300/3/4
f 300/3/4 297/3/4 301/3/4
f 301/3/4 297/3/4 302/3/4
f 297/5/4 298/5/4 303/5/4
f 302/3/4 297/3/4 303/3/4
f 298/4/4 299/4/4 304/4/4
f 303/5/4 298/5/4 304/5/4
f 304/4/4 299/4/4 305/4/4
f 305/4/4 299/4/4 306/4/4
f 306/4/4 299/4/4 307/4/4
f 307/1/4 308/1/4 309/1/4
f 309/1/4 308/1/4 310/1/4
f 310/1/4 308/1/4 315/1/4
f 315/1/4 308/1/4 316/1/4
f 313/3/4 314/3/4 317/3/4
f 311/3/4 312/3/4 317/3/4
f 312/3/4 313/3/4 317/3/4
f 317/3/4 314/3/4 318/3/4
f 323/4/4 324/4/4 327/4/4
f 324/3/4 325/3/4 328/3/4
f 327/4/4 324/4/4 328/4/4
f 325/4/4 326/4/4 329/4/4
f 328/3/4 325/3/4 329/3/4
f 329/4/4 326/4/4 330/4/4
f 327/3/4 328/3/4 331/3/4
f 323/4/4 327/4/4 331/4/4
f 329/3/4 330/3/4 331/3/4
f 328/3/4 329/3/4 331/3/4
f 331/3/4 330/3/4 332/3/4
f 332/3/4 330/3/4 333/3/4
f 333/3/4 330/3/4 334/3/4
f 319/3/4 320/3/4 335/3/4
f 320/5/4 321/5/4 336/5/4
f 335/3/4 320/3/4 336/3/4
f 321/3/4 322/3/4 337/3/4
f 336/5/4 321/5/4 337/5/4
f 337/3/4 322/3/4 338/3/4
f 322/5/4 323/5/4 339/5/4
f 338/3/4 322/3/4 339/3/4
f 323/4/4 331/4/4 340/4/4
f 339/5/4 323/5/4 340/5/4
f 331/4/4 332/4/4 340/4/4
f 332/3/4 333/3/4 341/3/4
f 340/4/4 332/4/4 341/4/4
f 333/4/4 334/4/4 342/4/4
f 341/3/4 333/3/4 342/3/4
f 342/4/4 334/4/4 343/4/4
f 340/3/4 341/3/4 345/3/4
f 339/3/4 340/3/4 345/3/4
f 338/3/4 339/3/4 345/3/4
f 341/3/4 342/3/4 345/3/4
f 345/3/4 342/3/4 346/3/4
f 346/3/4 342/3/4 347/3/4
f 342/5/4 343/5/4 348/5/4
f 347/3/4 342/3/4 348/3/4
f 343/4/4 344/4/4 349/4/4
f 348/5/4 343/5/4 349/5/4
f 349/4/4 344/4/4 350/4/4
f 350/4/4 344/4/4 351/4/4
f 351/4/4 344/4/4 352/4/4
f 352/1/4 353/1/4 354/1/4
f 354/1/4 353/1/4 355/1/4
f 355/1/4 353/1/4 363/1/4
f 363/1/4 353/1/4 364/1/4
f 356/3/4 357/3/4 365/3/4
f 357/3/4 358/3/4 365/3/4
f 358/3/4 359/3/4 365/3/4
f 359/5/4 360/5/4 366/5/4
f 365/3/4 359/3/4 366/3/4
f 361/4/4 362/4/4 367/4/4
f 366/5/4 360/5/4 367/5/4
f 362/4/4 363/4/4 367/4/4
f 360/4/4 361/4/4 367/4/4
f 367/4/4 363/4/4 368/4/4
f 373/4/4 374/4/4 377/4/4
f 374/3/4 375/3/4 378/3/4
f 377/4/4 374/4/4 378/4/4
f 375/4/4 376/4/4 379/4/4
f 378/3/4 375/3/4 379/3/4
f 379/4/4 376/4/4 380/4/4
f 377/3/4 378/3/4 381/3/4
f 373/4/4 377/4/4 381/4/4
f 379/3/4 380/3/4 381/3/4
f 378/3/4 379/3/4 381/3/4
f 381/3/4 380/3/4 382/3/4
f 382/3/4 380/3/4 383/3/4
f 383/3/4 380/3/4 384/3/4
f 369/3/4 370/3/4 385/3/4
f 370/5/4 371/5/4 386/5/4
f 385/3/4 370/3/4 386/3/4
f 371/3/4 372/3/4 387/3/4
f 386/5/4 371/5/4 387/5/4
f 372/5/4 373/5/4 388/5/4
f 387/3/4 372/3/4 388/3/4
f 373/4/4 381/4/4 389/4/4
f 388/5/4 373/5/4 389/5/4
f 381/4/4 382/4/4 389/4/4
f 382/3/4 383/3/4 390/3/4
f 389/4/4 382/4/4 390/4/4
f 383/4/4 384/4/4 391/4/4
f 390/3/4 383/3/4 391/3/4
f 391/4/4 384/4/4 392/4/4
f 396/3/5 394/3/5 393/3/5
f 397/3/5 394/3/5 396/3/5
f 399/3/5 396/3/5 395/3/5
f 400/1/5 397/1/5 396/1/5
f 400/3/5 396/3/5 399/3/5
f 401/3/5 398/3/5 397/3/5
f 401/1/5 397/1/5 400/1/5
f 402/3/5 398/3/5 401/3/5
f 403/3/5 401/3/5 400/3/5
f 404/3/5 401/3/5 403/3/5
f 407/3/5 406/3/5 405/3/5
f 408/3/5 406/3/5 407/3/5
f 411/1/5 408/1/5 407/1/5
f 412/3/5 411/3/5 410/3/5
f 413/1/5 408/1/5 411/1/5
f 413/3/5 411/3/5 412/3/5
f 414/3/5 409/3/5 408/3/5
f 414/1/5 408/1/5 413/1/5
f 415/3/5 409/3/5 414/3/5
f 416/3/5 414/3/5 413/3/5
f 417/3/5 414/3/5 416/3/5
f 418/4/6 419/4/6 423/4/6
f 419/3/6 420/3/6 424/3/6
f 423/4/6 419/4/6 424/4/6
f 420/4/6 421/4/6 425/4/6
f 424/3/6 420/3/6 425/3/6
f 425/4/6 421/4/6 426/4/6
f 426/4/6 427/4/6 428/4/6
f 428/4/6 427/4/6 429/4/6
f 422/4/6 423/4/6 430/4/6
f 430/4/6 423/4/6 431/4/6
f 431/4/6 432/4/6 435/4/6
f 432/3/6 433/3/6 436/3/6
f 435/4/6 432/4/6 436/4/6
f 433/4/6 434/4/6 437/4/6
f 436/3/6 433/3/6 437/3/6
f 437/4/6 434/4/6 438/4/6
f 439/1/6 440/1/6 441/1/6
f 439/1/6 441/1/6 442/1/6
f 442/1/6 441/1/6 443/1/6
f 444/4/6 445/4/6 449/4/6
f 445/3/6 446/3/6 450/3/6
f 449/4/6 445/4/6 450/4/6
f 446/4/6 447/4/6 451/4/6
f 450/3/6 446/3/6 451/3/6
f 451/4/6 447/4/6 452/4/6
f 448/4/6 449/4/6 454/4/6
f 454/4/6 449/4/6 455/4/6
f 452/4/6 453/4/6 458/4/6
f 458/4/6 453/4/6 459/4/6
f 455/4/6 456/4/6 460/4/6
f 456/3/6 457/3/6 461/3/6
f 460/4/6 456/4/6 461/4/6
f 457/4/6 458/4/6 462/4/6
f 461/3/6 457/3/6 462/3/6
f 462/4/6 458/4/6 463/4/6
f 464/1/6 465/1/6 466/1/6
f 466/1/6 465/1/6 467/1/6
